G04 start of page 10 for group -4062 idx -4062 *
G04 Title: (unknown), soldermask *
G04 Creator: pcb 20140316 *
G04 CreationDate: Sun 17 Jul 2016 04:20:40 PM GMT UTC *
G04 For: dev *
G04 Format: Gerber/RS-274X *
G04 PCB-Dimensions (mil): 1560.00 1560.00 *
G04 PCB-Coordinate-Origin: lower left *
%MOIN*%
%FSLAX25Y25*%
%LNBOTTOMMASK*%
%ADD123R,0.0355X0.0355*%
%ADD122R,0.0572X0.0572*%
%ADD121C,0.1361*%
%ADD120C,0.1341*%
%ADD119C,0.1381*%
%ADD118C,0.0513*%
%ADD117C,0.0631*%
%ADD116C,0.0660*%
%ADD115C,0.0001*%
G54D115*G36*
X72700Y70300D02*Y63700D01*
X79300D01*
Y70300D01*
X72700D01*
G37*
G54D116*X76000Y87000D03*
X83000Y11000D03*
X93000D03*
X103000D03*
X145000Y23000D03*
X113000Y11000D03*
X123000D03*
X133000D03*
X145000Y33000D03*
Y43000D03*
G54D115*G36*
X7700Y136300D02*Y129700D01*
X14300D01*
Y136300D01*
X7700D01*
G37*
G54D116*X11000Y123000D03*
X73000Y145000D03*
X63000D03*
X53000D03*
X43000D03*
X33000D03*
X23000D03*
G54D117*X8000Y105780D03*
G54D118*X18630Y101843D03*
G54D116*X145000Y53000D03*
Y63000D03*
Y73000D03*
Y83000D03*
Y93000D03*
Y103000D03*
Y113000D03*
Y123000D03*
Y133000D03*
G54D115*G36*
X129700Y148300D02*Y141700D01*
X136300D01*
Y148300D01*
X129700D01*
G37*
G54D116*X123000Y145000D03*
X113000D03*
X103000D03*
X93000D03*
X83000D03*
G54D115*G36*
X39700Y14300D02*Y7700D01*
X46300D01*
Y14300D01*
X39700D01*
G37*
G54D116*X53000Y11000D03*
X63000D03*
X73000D03*
G54D115*G36*
X7700Y64300D02*Y57700D01*
X14300D01*
Y64300D01*
X7700D01*
G37*
G54D117*X8000Y78220D03*
G54D118*X18630Y82157D03*
G54D116*X11000Y51000D03*
Y41000D03*
Y31000D03*
Y21000D03*
Y11000D03*
G54D119*X147500Y147500D03*
G54D120*X8500D03*
G54D119*X147500Y8500D03*
G54D121*X24000D03*
G54D122*X98607Y74957D02*X99393D01*
X107595Y72181D02*Y69819D01*
G54D115*G36*
X65194Y77487D02*Y75513D01*
X67168D01*
Y77487D01*
X65194D01*
G37*
G36*
X62832D02*Y75513D01*
X64806D01*
Y77487D01*
X62832D01*
G37*
G36*
X65194Y74987D02*Y73013D01*
X67168D01*
Y74987D01*
X65194D01*
G37*
G36*
X62832D02*Y73013D01*
X64806D01*
Y74987D01*
X62832D01*
G37*
G54D122*X98607Y82043D02*X99393D01*
X52107Y81957D02*X52893D01*
X38607Y110543D02*X39393D01*
X38607Y103457D02*X39393D01*
X31107Y110543D02*X31893D01*
X31107Y103457D02*X31893D01*
X21607Y38043D02*X22393D01*
X21607Y44957D02*X22393D01*
X21607Y30957D02*X22393D01*
G54D115*G36*
X19013Y61987D02*Y60013D01*
X20987D01*
Y61987D01*
X19013D01*
G37*
G36*
X21375D02*Y60013D01*
X23349D01*
Y61987D01*
X21375D01*
G37*
G54D122*X21607Y52043D02*X22393D01*
G54D123*X25941Y87492D02*Y86508D01*
X31059Y87492D02*Y86508D01*
G54D122*X60457Y100393D02*Y99607D01*
Y108393D02*Y107607D01*
X67543Y100393D02*Y99607D01*
Y108393D02*Y107607D01*
X52107Y89043D02*X52893D01*
X65607Y122457D02*X66393D01*
X56226Y122357D02*X57012D01*
X65607Y129543D02*X66393D01*
X56226Y129443D02*X57012D01*
X119405Y72181D02*Y69819D01*
X115607Y48543D02*X116393D01*
X107607Y48457D02*X108393D01*
X115607Y41457D02*X116393D01*
X107607Y41371D02*X108393D01*
X123607Y48457D02*X124393D01*
X123607Y41371D02*X124393D01*
M02*
