G04 start of page 4 for group 2 idx 2 *
G04 Title: (unknown), power *
G04 Creator: pcb 20140316 *
G04 CreationDate: Sun 17 Jul 2016 04:20:40 PM GMT UTC *
G04 For: dev *
G04 Format: Gerber/RS-274X *
G04 PCB-Dimensions (mil): 1560.00 1560.00 *
G04 PCB-Coordinate-Origin: lower left *
%MOIN*%
%FSLAX25Y25*%
%LNGROUP2*%
%ADD69C,0.0335*%
%ADD68C,0.0453*%
%ADD67C,0.0380*%
%ADD66C,0.1260*%
%ADD65C,0.0140*%
%ADD64C,0.0150*%
%ADD63C,0.0200*%
%ADD62C,0.0118*%
%ADD61C,0.0280*%
%ADD60C,0.0250*%
%ADD59C,0.0400*%
%ADD58C,0.0240*%
%ADD57C,0.0492*%
%ADD56C,0.0610*%
%ADD55C,0.0600*%
%ADD54C,0.0001*%
G54D54*G36*
X152000Y141744D02*Y14256D01*
X151804Y14423D01*
X150824Y15024D01*
X149763Y15463D01*
X148645Y15732D01*
X148613Y15734D01*
Y20302D01*
X148652Y20347D01*
X149022Y20951D01*
X149293Y21605D01*
X149458Y22294D01*
X149500Y23000D01*
X149458Y23706D01*
X149293Y24395D01*
X149022Y25049D01*
X148652Y25653D01*
X148613Y25698D01*
Y30302D01*
X148652Y30347D01*
X149022Y30951D01*
X149293Y31605D01*
X149458Y32294D01*
X149500Y33000D01*
X149458Y33706D01*
X149293Y34395D01*
X149022Y35049D01*
X148652Y35653D01*
X148613Y35698D01*
Y40302D01*
X148652Y40347D01*
X149022Y40951D01*
X149293Y41605D01*
X149458Y42294D01*
X149500Y43000D01*
X149458Y43706D01*
X149293Y44395D01*
X149022Y45049D01*
X148652Y45653D01*
X148613Y45698D01*
Y50302D01*
X148652Y50347D01*
X149022Y50951D01*
X149293Y51605D01*
X149458Y52294D01*
X149500Y53000D01*
X149458Y53706D01*
X149293Y54395D01*
X149022Y55049D01*
X148652Y55653D01*
X148613Y55698D01*
Y60302D01*
X148652Y60347D01*
X149022Y60951D01*
X149293Y61605D01*
X149458Y62294D01*
X149500Y63000D01*
X149458Y63706D01*
X149293Y64395D01*
X149022Y65049D01*
X148652Y65653D01*
X148613Y65698D01*
Y70302D01*
X148652Y70347D01*
X149022Y70951D01*
X149293Y71605D01*
X149458Y72294D01*
X149500Y73000D01*
X149458Y73706D01*
X149293Y74395D01*
X149022Y75049D01*
X148652Y75653D01*
X148613Y75698D01*
Y80853D01*
X148656Y80860D01*
X148768Y80897D01*
X148873Y80952D01*
X148968Y81022D01*
X149051Y81106D01*
X149119Y81202D01*
X149170Y81308D01*
X149318Y81716D01*
X149422Y82137D01*
X149484Y82567D01*
X149505Y83000D01*
X149484Y83433D01*
X149422Y83863D01*
X149318Y84284D01*
X149175Y84694D01*
X149122Y84800D01*
X149053Y84896D01*
X148970Y84981D01*
X148875Y85051D01*
X148769Y85106D01*
X148657Y85143D01*
X148613Y85151D01*
Y90302D01*
X148652Y90347D01*
X149022Y90951D01*
X149293Y91605D01*
X149458Y92294D01*
X149500Y93000D01*
X149458Y93706D01*
X149293Y94395D01*
X149022Y95049D01*
X148652Y95653D01*
X148613Y95698D01*
Y100302D01*
X148652Y100347D01*
X149022Y100951D01*
X149293Y101605D01*
X149458Y102294D01*
X149500Y103000D01*
X149458Y103706D01*
X149293Y104395D01*
X149022Y105049D01*
X148652Y105653D01*
X148613Y105698D01*
Y110302D01*
X148652Y110347D01*
X149022Y110951D01*
X149293Y111605D01*
X149458Y112294D01*
X149500Y113000D01*
X149458Y113706D01*
X149293Y114395D01*
X149022Y115049D01*
X148652Y115653D01*
X148613Y115698D01*
Y120302D01*
X148652Y120347D01*
X149022Y120951D01*
X149293Y121605D01*
X149458Y122294D01*
X149500Y123000D01*
X149458Y123706D01*
X149293Y124395D01*
X149022Y125049D01*
X148652Y125653D01*
X148613Y125698D01*
Y130302D01*
X148652Y130347D01*
X149022Y130951D01*
X149293Y131605D01*
X149458Y132294D01*
X149500Y133000D01*
X149458Y133706D01*
X149293Y134395D01*
X149022Y135049D01*
X148652Y135653D01*
X148613Y135698D01*
Y140266D01*
X148645Y140268D01*
X149763Y140537D01*
X150824Y140976D01*
X151804Y141577D01*
X152000Y141744D01*
G37*
G36*
X148613Y135698D02*X148192Y136192D01*
X147653Y136652D01*
X147049Y137022D01*
X146395Y137293D01*
X145706Y137458D01*
X145000Y137514D01*
X144993Y137513D01*
Y140638D01*
X145237Y140537D01*
X146355Y140268D01*
X147500Y140178D01*
X148613Y140266D01*
Y135698D01*
G37*
G36*
Y125698D02*X148192Y126192D01*
X147653Y126652D01*
X147049Y127022D01*
X146395Y127293D01*
X145706Y127458D01*
X145000Y127514D01*
X144993Y127513D01*
Y128487D01*
X145000Y128486D01*
X145706Y128542D01*
X146395Y128707D01*
X147049Y128978D01*
X147653Y129348D01*
X148192Y129808D01*
X148613Y130302D01*
Y125698D01*
G37*
G36*
Y115698D02*X148192Y116192D01*
X147653Y116652D01*
X147049Y117022D01*
X146395Y117293D01*
X145706Y117458D01*
X145000Y117514D01*
X144993Y117513D01*
Y118487D01*
X145000Y118486D01*
X145706Y118542D01*
X146395Y118707D01*
X147049Y118978D01*
X147653Y119348D01*
X148192Y119808D01*
X148613Y120302D01*
Y115698D01*
G37*
G36*
Y105698D02*X148192Y106192D01*
X147653Y106652D01*
X147049Y107022D01*
X146395Y107293D01*
X145706Y107458D01*
X145000Y107514D01*
X144993Y107513D01*
Y108487D01*
X145000Y108486D01*
X145706Y108542D01*
X146395Y108707D01*
X147049Y108978D01*
X147653Y109348D01*
X148192Y109808D01*
X148613Y110302D01*
Y105698D01*
G37*
G36*
Y95698D02*X148192Y96192D01*
X147653Y96652D01*
X147049Y97022D01*
X146395Y97293D01*
X145706Y97458D01*
X145000Y97514D01*
X144993Y97513D01*
Y98487D01*
X145000Y98486D01*
X145706Y98542D01*
X146395Y98707D01*
X147049Y98978D01*
X147653Y99348D01*
X148192Y99808D01*
X148613Y100302D01*
Y95698D01*
G37*
G36*
Y75698D02*X148192Y76192D01*
X147653Y76652D01*
X147049Y77022D01*
X146395Y77293D01*
X145706Y77458D01*
X145000Y77514D01*
X144993Y77513D01*
Y78495D01*
X145000Y78495D01*
X145433Y78516D01*
X145863Y78578D01*
X146284Y78682D01*
X146694Y78825D01*
X146800Y78878D01*
X146896Y78947D01*
X146981Y79030D01*
X147051Y79125D01*
X147106Y79231D01*
X147143Y79343D01*
X147163Y79460D01*
X147164Y79579D01*
X147146Y79696D01*
X147110Y79809D01*
X147057Y79915D01*
X146988Y80012D01*
X146905Y80096D01*
X146809Y80167D01*
X146704Y80221D01*
X146592Y80259D01*
X146475Y80278D01*
X146356Y80279D01*
X146239Y80261D01*
X146126Y80223D01*
X145855Y80124D01*
X145575Y80056D01*
X145289Y80014D01*
X145000Y80000D01*
X144993Y80000D01*
Y86000D01*
X145000Y86000D01*
X145289Y85986D01*
X145575Y85944D01*
X145855Y85876D01*
X146128Y85780D01*
X146239Y85742D01*
X146356Y85725D01*
X146474Y85725D01*
X146591Y85745D01*
X146703Y85782D01*
X146807Y85836D01*
X146902Y85906D01*
X146985Y85991D01*
X147054Y86087D01*
X147107Y86192D01*
X147143Y86305D01*
X147160Y86421D01*
X147159Y86539D01*
X147140Y86656D01*
X147103Y86768D01*
X147048Y86873D01*
X146978Y86968D01*
X146894Y87051D01*
X146798Y87119D01*
X146692Y87170D01*
X146284Y87318D01*
X145863Y87422D01*
X145433Y87484D01*
X145000Y87505D01*
X144993Y87505D01*
Y88487D01*
X145000Y88486D01*
X145706Y88542D01*
X146395Y88707D01*
X147049Y88978D01*
X147653Y89348D01*
X148192Y89808D01*
X148613Y90302D01*
Y85151D01*
X148540Y85163D01*
X148421Y85164D01*
X148304Y85146D01*
X148191Y85110D01*
X148085Y85057D01*
X147988Y84988D01*
X147904Y84905D01*
X147833Y84809D01*
X147779Y84704D01*
X147741Y84592D01*
X147722Y84475D01*
X147721Y84356D01*
X147739Y84239D01*
X147777Y84126D01*
X147876Y83855D01*
X147944Y83575D01*
X147986Y83289D01*
X148000Y83000D01*
X147986Y82711D01*
X147944Y82425D01*
X147876Y82145D01*
X147780Y81872D01*
X147742Y81761D01*
X147725Y81644D01*
X147725Y81526D01*
X147745Y81409D01*
X147782Y81297D01*
X147836Y81193D01*
X147906Y81098D01*
X147991Y81015D01*
X148087Y80946D01*
X148192Y80893D01*
X148305Y80857D01*
X148421Y80840D01*
X148539Y80841D01*
X148613Y80853D01*
Y75698D01*
G37*
G36*
Y65698D02*X148192Y66192D01*
X147653Y66652D01*
X147049Y67022D01*
X146395Y67293D01*
X145706Y67458D01*
X145000Y67514D01*
X144993Y67513D01*
Y68487D01*
X145000Y68486D01*
X145706Y68542D01*
X146395Y68707D01*
X147049Y68978D01*
X147653Y69348D01*
X148192Y69808D01*
X148613Y70302D01*
Y65698D01*
G37*
G36*
Y55698D02*X148192Y56192D01*
X147653Y56652D01*
X147049Y57022D01*
X146395Y57293D01*
X145706Y57458D01*
X145000Y57514D01*
X144993Y57513D01*
Y58487D01*
X145000Y58486D01*
X145706Y58542D01*
X146395Y58707D01*
X147049Y58978D01*
X147653Y59348D01*
X148192Y59808D01*
X148613Y60302D01*
Y55698D01*
G37*
G36*
Y45698D02*X148192Y46192D01*
X147653Y46652D01*
X147049Y47022D01*
X146395Y47293D01*
X145706Y47458D01*
X145000Y47514D01*
X144993Y47513D01*
Y48487D01*
X145000Y48486D01*
X145706Y48542D01*
X146395Y48707D01*
X147049Y48978D01*
X147653Y49348D01*
X148192Y49808D01*
X148613Y50302D01*
Y45698D01*
G37*
G36*
Y35698D02*X148192Y36192D01*
X147653Y36652D01*
X147049Y37022D01*
X146395Y37293D01*
X145706Y37458D01*
X145000Y37514D01*
X144993Y37513D01*
Y38487D01*
X145000Y38486D01*
X145706Y38542D01*
X146395Y38707D01*
X147049Y38978D01*
X147653Y39348D01*
X148192Y39808D01*
X148613Y40302D01*
Y35698D01*
G37*
G36*
Y25698D02*X148192Y26192D01*
X147653Y26652D01*
X147049Y27022D01*
X146395Y27293D01*
X145706Y27458D01*
X145000Y27514D01*
X144993Y27513D01*
Y28487D01*
X145000Y28486D01*
X145706Y28542D01*
X146395Y28707D01*
X147049Y28978D01*
X147653Y29348D01*
X148192Y29808D01*
X148613Y30302D01*
Y25698D01*
G37*
G36*
Y15734D02*X147500Y15822D01*
X146355Y15732D01*
X145237Y15463D01*
X144993Y15362D01*
Y18487D01*
X145000Y18486D01*
X145706Y18542D01*
X146395Y18707D01*
X147049Y18978D01*
X147653Y19348D01*
X148192Y19808D01*
X148613Y20302D01*
Y15734D01*
G37*
G36*
X141387Y30302D02*X141808Y29808D01*
X142347Y29348D01*
X142951Y28978D01*
X143605Y28707D01*
X144294Y28542D01*
X144993Y28487D01*
Y27513D01*
X144294Y27458D01*
X143605Y27293D01*
X142951Y27022D01*
X142347Y26652D01*
X141808Y26192D01*
X141387Y25698D01*
Y30302D01*
G37*
G36*
Y40302D02*X141808Y39808D01*
X142347Y39348D01*
X142951Y38978D01*
X143605Y38707D01*
X144294Y38542D01*
X144993Y38487D01*
Y37513D01*
X144294Y37458D01*
X143605Y37293D01*
X142951Y37022D01*
X142347Y36652D01*
X141808Y36192D01*
X141387Y35698D01*
Y40302D01*
G37*
G36*
Y50302D02*X141808Y49808D01*
X142347Y49348D01*
X142951Y48978D01*
X143605Y48707D01*
X144294Y48542D01*
X144993Y48487D01*
Y47513D01*
X144294Y47458D01*
X143605Y47293D01*
X142951Y47022D01*
X142347Y46652D01*
X141808Y46192D01*
X141387Y45698D01*
Y50302D01*
G37*
G36*
Y60302D02*X141808Y59808D01*
X142347Y59348D01*
X142951Y58978D01*
X143605Y58707D01*
X144294Y58542D01*
X144993Y58487D01*
Y57513D01*
X144294Y57458D01*
X143605Y57293D01*
X142951Y57022D01*
X142347Y56652D01*
X141808Y56192D01*
X141387Y55698D01*
Y60302D01*
G37*
G36*
Y70302D02*X141808Y69808D01*
X142347Y69348D01*
X142951Y68978D01*
X143605Y68707D01*
X144294Y68542D01*
X144993Y68487D01*
Y67513D01*
X144294Y67458D01*
X143605Y67293D01*
X142951Y67022D01*
X142347Y66652D01*
X141808Y66192D01*
X141387Y65698D01*
Y70302D01*
G37*
G36*
Y90302D02*X141808Y89808D01*
X142347Y89348D01*
X142951Y88978D01*
X143605Y88707D01*
X144294Y88542D01*
X144993Y88487D01*
Y87505D01*
X144567Y87484D01*
X144137Y87422D01*
X143716Y87318D01*
X143306Y87175D01*
X143200Y87122D01*
X143104Y87053D01*
X143019Y86970D01*
X142949Y86875D01*
X142894Y86769D01*
X142857Y86657D01*
X142837Y86540D01*
X142836Y86421D01*
X142854Y86304D01*
X142890Y86191D01*
X142943Y86085D01*
X143012Y85988D01*
X143095Y85904D01*
X143191Y85833D01*
X143296Y85779D01*
X143408Y85741D01*
X143525Y85722D01*
X143644Y85721D01*
X143761Y85739D01*
X143874Y85777D01*
X144145Y85876D01*
X144425Y85944D01*
X144711Y85986D01*
X144993Y86000D01*
Y80000D01*
X144711Y80014D01*
X144425Y80056D01*
X144145Y80124D01*
X143872Y80220D01*
X143761Y80258D01*
X143644Y80275D01*
X143526Y80275D01*
X143409Y80255D01*
X143297Y80218D01*
X143193Y80164D01*
X143098Y80094D01*
X143015Y80009D01*
X142946Y79913D01*
X142893Y79808D01*
X142857Y79695D01*
X142840Y79579D01*
X142841Y79461D01*
X142860Y79344D01*
X142897Y79232D01*
X142952Y79127D01*
X143022Y79032D01*
X143106Y78949D01*
X143202Y78881D01*
X143308Y78830D01*
X143716Y78682D01*
X144137Y78578D01*
X144567Y78516D01*
X144993Y78495D01*
Y77513D01*
X144294Y77458D01*
X143605Y77293D01*
X142951Y77022D01*
X142347Y76652D01*
X141808Y76192D01*
X141387Y75698D01*
Y80849D01*
X141460Y80837D01*
X141579Y80836D01*
X141696Y80854D01*
X141809Y80890D01*
X141915Y80943D01*
X142012Y81012D01*
X142096Y81095D01*
X142167Y81191D01*
X142221Y81296D01*
X142259Y81408D01*
X142278Y81525D01*
X142279Y81644D01*
X142261Y81761D01*
X142223Y81874D01*
X142124Y82145D01*
X142056Y82425D01*
X142014Y82711D01*
X142000Y83000D01*
X142014Y83289D01*
X142056Y83575D01*
X142124Y83855D01*
X142220Y84128D01*
X142258Y84239D01*
X142275Y84356D01*
X142275Y84474D01*
X142255Y84591D01*
X142218Y84703D01*
X142164Y84807D01*
X142094Y84902D01*
X142009Y84985D01*
X141913Y85054D01*
X141808Y85107D01*
X141695Y85143D01*
X141579Y85160D01*
X141461Y85159D01*
X141387Y85147D01*
Y90302D01*
G37*
G36*
Y100302D02*X141808Y99808D01*
X142347Y99348D01*
X142951Y98978D01*
X143605Y98707D01*
X144294Y98542D01*
X144993Y98487D01*
Y97513D01*
X144294Y97458D01*
X143605Y97293D01*
X142951Y97022D01*
X142347Y96652D01*
X141808Y96192D01*
X141387Y95698D01*
Y100302D01*
G37*
G36*
Y110302D02*X141808Y109808D01*
X142347Y109348D01*
X142951Y108978D01*
X143605Y108707D01*
X144294Y108542D01*
X144993Y108487D01*
Y107513D01*
X144294Y107458D01*
X143605Y107293D01*
X142951Y107022D01*
X142347Y106652D01*
X141808Y106192D01*
X141387Y105698D01*
Y110302D01*
G37*
G36*
Y120302D02*X141808Y119808D01*
X142347Y119348D01*
X142951Y118978D01*
X143605Y118707D01*
X144294Y118542D01*
X144993Y118487D01*
Y117513D01*
X144294Y117458D01*
X143605Y117293D01*
X142951Y117022D01*
X142347Y116652D01*
X141808Y116192D01*
X141387Y115698D01*
Y120302D01*
G37*
G36*
Y130302D02*X141808Y129808D01*
X142347Y129348D01*
X142951Y128978D01*
X143605Y128707D01*
X144294Y128542D01*
X144993Y128487D01*
Y127513D01*
X144294Y127458D01*
X143605Y127293D01*
X142951Y127022D01*
X142347Y126652D01*
X141808Y126192D01*
X141387Y125698D01*
Y130302D01*
G37*
G36*
Y143506D02*X141577Y143196D01*
X142323Y142323D01*
X143196Y141577D01*
X144176Y140976D01*
X144993Y140638D01*
Y137513D01*
X144294Y137458D01*
X143605Y137293D01*
X142951Y137022D01*
X142347Y136652D01*
X141808Y136192D01*
X141387Y135698D01*
Y143506D01*
G37*
G36*
Y152000D02*X141744D01*
X141577Y151804D01*
X141387Y151494D01*
Y152000D01*
G37*
G36*
Y4506D02*X141577Y4196D01*
X141744Y4000D01*
X141387D01*
Y4506D01*
G37*
G36*
X144993Y15362D02*X144176Y15024D01*
X143196Y14423D01*
X142323Y13677D01*
X141577Y12804D01*
X141387Y12494D01*
Y20302D01*
X141808Y19808D01*
X142347Y19348D01*
X142951Y18978D01*
X143605Y18707D01*
X144294Y18542D01*
X144993Y18487D01*
Y15362D01*
G37*
G36*
X141387Y12494D02*X140976Y11824D01*
X140537Y10763D01*
X140268Y9645D01*
X140178Y8500D01*
X140268Y7355D01*
X140537Y6237D01*
X140976Y5176D01*
X141387Y4506D01*
Y4000D01*
X136750D01*
Y8507D01*
X137022Y8951D01*
X137293Y9605D01*
X137458Y10294D01*
X137500Y11000D01*
X137458Y11706D01*
X137293Y12395D01*
X137022Y13049D01*
X136750Y13493D01*
Y142748D01*
X136868Y142757D01*
X136982Y142785D01*
X137092Y142830D01*
X137192Y142891D01*
X137282Y142968D01*
X137359Y143058D01*
X137420Y143158D01*
X137465Y143268D01*
X137493Y143382D01*
X137500Y143500D01*
Y146500D01*
X137493Y146618D01*
X137465Y146732D01*
X137420Y146842D01*
X137359Y146942D01*
X137282Y147032D01*
X137192Y147109D01*
X137092Y147170D01*
X136982Y147215D01*
X136868Y147243D01*
X136750Y147252D01*
Y152000D01*
X141387D01*
Y151494D01*
X140976Y150824D01*
X140537Y149763D01*
X140268Y148645D01*
X140178Y147500D01*
X140268Y146355D01*
X140537Y145237D01*
X140976Y144176D01*
X141387Y143506D01*
Y135698D01*
X141348Y135653D01*
X140978Y135049D01*
X140707Y134395D01*
X140542Y133706D01*
X140486Y133000D01*
X140542Y132294D01*
X140707Y131605D01*
X140978Y130951D01*
X141348Y130347D01*
X141387Y130302D01*
Y125698D01*
X141348Y125653D01*
X140978Y125049D01*
X140707Y124395D01*
X140542Y123706D01*
X140486Y123000D01*
X140542Y122294D01*
X140707Y121605D01*
X140978Y120951D01*
X141348Y120347D01*
X141387Y120302D01*
Y115698D01*
X141348Y115653D01*
X140978Y115049D01*
X140707Y114395D01*
X140542Y113706D01*
X140486Y113000D01*
X140542Y112294D01*
X140707Y111605D01*
X140978Y110951D01*
X141348Y110347D01*
X141387Y110302D01*
Y105698D01*
X141348Y105653D01*
X140978Y105049D01*
X140707Y104395D01*
X140542Y103706D01*
X140486Y103000D01*
X140542Y102294D01*
X140707Y101605D01*
X140978Y100951D01*
X141348Y100347D01*
X141387Y100302D01*
Y95698D01*
X141348Y95653D01*
X140978Y95049D01*
X140707Y94395D01*
X140542Y93706D01*
X140486Y93000D01*
X140542Y92294D01*
X140707Y91605D01*
X140978Y90951D01*
X141348Y90347D01*
X141387Y90302D01*
Y85147D01*
X141344Y85140D01*
X141232Y85103D01*
X141127Y85048D01*
X141032Y84978D01*
X140949Y84894D01*
X140881Y84798D01*
X140830Y84692D01*
X140682Y84284D01*
X140578Y83863D01*
X140516Y83433D01*
X140495Y83000D01*
X140516Y82567D01*
X140578Y82137D01*
X140682Y81716D01*
X140825Y81306D01*
X140878Y81200D01*
X140947Y81104D01*
X141030Y81019D01*
X141125Y80949D01*
X141231Y80894D01*
X141343Y80857D01*
X141387Y80849D01*
Y75698D01*
X141348Y75653D01*
X140978Y75049D01*
X140707Y74395D01*
X140542Y73706D01*
X140486Y73000D01*
X140542Y72294D01*
X140707Y71605D01*
X140978Y70951D01*
X141348Y70347D01*
X141387Y70302D01*
Y65698D01*
X141348Y65653D01*
X140978Y65049D01*
X140707Y64395D01*
X140542Y63706D01*
X140486Y63000D01*
X140542Y62294D01*
X140707Y61605D01*
X140978Y60951D01*
X141348Y60347D01*
X141387Y60302D01*
Y55698D01*
X141348Y55653D01*
X140978Y55049D01*
X140707Y54395D01*
X140542Y53706D01*
X140486Y53000D01*
X140542Y52294D01*
X140707Y51605D01*
X140978Y50951D01*
X141348Y50347D01*
X141387Y50302D01*
Y45698D01*
X141348Y45653D01*
X140978Y45049D01*
X140707Y44395D01*
X140542Y43706D01*
X140486Y43000D01*
X140542Y42294D01*
X140707Y41605D01*
X140978Y40951D01*
X141348Y40347D01*
X141387Y40302D01*
Y35698D01*
X141348Y35653D01*
X140978Y35049D01*
X140707Y34395D01*
X140542Y33706D01*
X140486Y33000D01*
X140542Y32294D01*
X140707Y31605D01*
X140978Y30951D01*
X141348Y30347D01*
X141387Y30302D01*
Y25698D01*
X141348Y25653D01*
X140978Y25049D01*
X140707Y24395D01*
X140542Y23706D01*
X140486Y23000D01*
X140542Y22294D01*
X140707Y21605D01*
X140978Y20951D01*
X141348Y20347D01*
X141387Y20302D01*
Y12494D01*
G37*
G36*
X136750Y13493D02*X136652Y13653D01*
X136192Y14192D01*
X135653Y14652D01*
X135049Y15022D01*
X134395Y15293D01*
X133706Y15458D01*
X133000Y15514D01*
Y140500D01*
X134500D01*
X134618Y140507D01*
X134732Y140535D01*
X134842Y140580D01*
X134942Y140641D01*
X135032Y140718D01*
X135109Y140808D01*
X135170Y140908D01*
X135215Y141018D01*
X135243Y141132D01*
X135252Y141250D01*
X135243Y141368D01*
X135215Y141482D01*
X135170Y141592D01*
X135109Y141692D01*
X135032Y141782D01*
X134942Y141859D01*
X134842Y141920D01*
X134732Y141965D01*
X134618Y141993D01*
X134500Y142000D01*
X133000D01*
Y148000D01*
X134500D01*
X134618Y148007D01*
X134732Y148035D01*
X134842Y148080D01*
X134942Y148141D01*
X135032Y148218D01*
X135109Y148308D01*
X135170Y148408D01*
X135215Y148518D01*
X135243Y148632D01*
X135252Y148750D01*
X135243Y148868D01*
X135215Y148982D01*
X135170Y149092D01*
X135109Y149192D01*
X135032Y149282D01*
X134942Y149359D01*
X134842Y149420D01*
X134732Y149465D01*
X134618Y149493D01*
X134500Y149500D01*
X133000D01*
Y152000D01*
X136750D01*
Y147252D01*
X136632Y147243D01*
X136518Y147215D01*
X136408Y147170D01*
X136308Y147109D01*
X136218Y147032D01*
X136141Y146942D01*
X136080Y146842D01*
X136035Y146732D01*
X136007Y146618D01*
X136000Y146500D01*
Y143500D01*
X136007Y143382D01*
X136035Y143268D01*
X136080Y143158D01*
X136141Y143058D01*
X136218Y142968D01*
X136308Y142891D01*
X136408Y142830D01*
X136518Y142785D01*
X136632Y142757D01*
X136750Y142748D01*
Y13493D01*
G37*
G36*
Y4000D02*X133000D01*
Y6486D01*
X133706Y6542D01*
X134395Y6707D01*
X135049Y6978D01*
X135653Y7348D01*
X136192Y7808D01*
X136652Y8347D01*
X136750Y8507D01*
Y4000D01*
G37*
G36*
X129250Y152000D02*X133000D01*
Y149500D01*
X131500D01*
X131382Y149493D01*
X131268Y149465D01*
X131158Y149420D01*
X131058Y149359D01*
X130968Y149282D01*
X130891Y149192D01*
X130830Y149092D01*
X130785Y148982D01*
X130757Y148868D01*
X130748Y148750D01*
X130757Y148632D01*
X130785Y148518D01*
X130830Y148408D01*
X130891Y148308D01*
X130968Y148218D01*
X131058Y148141D01*
X131158Y148080D01*
X131268Y148035D01*
X131382Y148007D01*
X131500Y148000D01*
X133000D01*
Y142000D01*
X131500D01*
X131382Y141993D01*
X131268Y141965D01*
X131158Y141920D01*
X131058Y141859D01*
X130968Y141782D01*
X130891Y141692D01*
X130830Y141592D01*
X130785Y141482D01*
X130757Y141368D01*
X130748Y141250D01*
X130757Y141132D01*
X130785Y141018D01*
X130830Y140908D01*
X130891Y140808D01*
X130968Y140718D01*
X131058Y140641D01*
X131158Y140580D01*
X131268Y140535D01*
X131382Y140507D01*
X131500Y140500D01*
X133000D01*
Y15514D01*
X133000D01*
X132294Y15458D01*
X131605Y15293D01*
X130951Y15022D01*
X130347Y14652D01*
X129808Y14192D01*
X129348Y13653D01*
X129250Y13493D01*
Y142748D01*
X129368Y142757D01*
X129482Y142785D01*
X129592Y142830D01*
X129692Y142891D01*
X129782Y142968D01*
X129859Y143058D01*
X129920Y143158D01*
X129965Y143268D01*
X129993Y143382D01*
X130000Y143500D01*
Y146500D01*
X129993Y146618D01*
X129965Y146732D01*
X129920Y146842D01*
X129859Y146942D01*
X129782Y147032D01*
X129692Y147109D01*
X129592Y147170D01*
X129482Y147215D01*
X129368Y147243D01*
X129250Y147252D01*
Y152000D01*
G37*
G36*
X133000Y4000D02*X129250D01*
Y8507D01*
X129348Y8347D01*
X129808Y7808D01*
X130347Y7348D01*
X130951Y6978D01*
X131605Y6707D01*
X132294Y6542D01*
X133000Y6486D01*
X133000D01*
Y4000D01*
G37*
G36*
X129250D02*X126909D01*
Y8978D01*
X126968Y9022D01*
X127051Y9106D01*
X127119Y9202D01*
X127170Y9308D01*
X127318Y9716D01*
X127422Y10137D01*
X127484Y10567D01*
X127505Y11000D01*
X127484Y11433D01*
X127422Y11863D01*
X127318Y12284D01*
X127175Y12694D01*
X127122Y12800D01*
X127053Y12896D01*
X126970Y12981D01*
X126909Y13026D01*
Y61069D01*
X126937Y61073D01*
X127012Y61098D01*
X127082Y61134D01*
X127145Y61181D01*
X127200Y61237D01*
X127246Y61301D01*
X127280Y61372D01*
X127379Y61644D01*
X127448Y61925D01*
X127490Y62211D01*
X127503Y62500D01*
X127490Y62789D01*
X127448Y63075D01*
X127379Y63356D01*
X127283Y63629D01*
X127248Y63700D01*
X127202Y63764D01*
X127147Y63821D01*
X127083Y63868D01*
X127013Y63904D01*
X126938Y63929D01*
X126909Y63934D01*
Y90133D01*
X126930Y90138D01*
X127366Y90319D01*
X127769Y90565D01*
X128128Y90872D01*
X128435Y91231D01*
X128681Y91634D01*
X128862Y92070D01*
X128972Y92529D01*
X129000Y93000D01*
X128972Y93471D01*
X128862Y93930D01*
X128681Y94366D01*
X128435Y94769D01*
X128128Y95128D01*
X127769Y95435D01*
X127366Y95681D01*
X126930Y95862D01*
X126909Y95867D01*
Y142766D01*
X127022Y142951D01*
X127293Y143605D01*
X127458Y144294D01*
X127500Y145000D01*
X127458Y145706D01*
X127293Y146395D01*
X127022Y147049D01*
X126909Y147234D01*
Y152000D01*
X129250D01*
Y147252D01*
X129132Y147243D01*
X129018Y147215D01*
X128908Y147170D01*
X128808Y147109D01*
X128718Y147032D01*
X128641Y146942D01*
X128580Y146842D01*
X128535Y146732D01*
X128507Y146618D01*
X128500Y146500D01*
Y143500D01*
X128507Y143382D01*
X128535Y143268D01*
X128580Y143158D01*
X128641Y143058D01*
X128718Y142968D01*
X128808Y142891D01*
X128908Y142830D01*
X129018Y142785D01*
X129132Y142757D01*
X129250Y142748D01*
Y13493D01*
X128978Y13049D01*
X128707Y12395D01*
X128542Y11706D01*
X128486Y11000D01*
X128542Y10294D01*
X128707Y9605D01*
X128978Y8951D01*
X129250Y8507D01*
Y4000D01*
G37*
G36*
X126909Y147234D02*X126652Y147653D01*
X126192Y148192D01*
X125653Y148652D01*
X125049Y149022D01*
X124501Y149249D01*
Y152000D01*
X126909D01*
Y147234D01*
G37*
G36*
Y95867D02*X126471Y95972D01*
X126000Y96009D01*
X125529Y95972D01*
X125070Y95862D01*
X124634Y95681D01*
X124501Y95600D01*
Y140751D01*
X125049Y140978D01*
X125653Y141348D01*
X126192Y141808D01*
X126652Y142347D01*
X126909Y142766D01*
Y95867D01*
G37*
G36*
Y4000D02*X124501D01*
Y6758D01*
X124694Y6825D01*
X124800Y6878D01*
X124896Y6947D01*
X124981Y7030D01*
X125051Y7125D01*
X125106Y7231D01*
X125143Y7343D01*
X125163Y7460D01*
X125164Y7579D01*
X125146Y7696D01*
X125110Y7809D01*
X125057Y7915D01*
X124988Y8012D01*
X124905Y8096D01*
X124809Y8167D01*
X124704Y8221D01*
X124592Y8259D01*
X124501Y8274D01*
Y13730D01*
X124591Y13745D01*
X124703Y13782D01*
X124807Y13836D01*
X124902Y13906D01*
X124985Y13991D01*
X125054Y14087D01*
X125107Y14192D01*
X125143Y14305D01*
X125160Y14421D01*
X125159Y14539D01*
X125140Y14656D01*
X125103Y14768D01*
X125048Y14873D01*
X124978Y14968D01*
X124894Y15051D01*
X124798Y15119D01*
X124692Y15170D01*
X124501Y15239D01*
Y59497D01*
X124789Y59510D01*
X125075Y59552D01*
X125356Y59621D01*
X125629Y59717D01*
X125700Y59752D01*
X125764Y59798D01*
X125821Y59853D01*
X125868Y59917D01*
X125904Y59987D01*
X125929Y60062D01*
X125942Y60140D01*
X125942Y60219D01*
X125931Y60297D01*
X125907Y60373D01*
X125871Y60444D01*
X125825Y60508D01*
X125770Y60564D01*
X125706Y60611D01*
X125636Y60647D01*
X125561Y60672D01*
X125483Y60685D01*
X125404Y60686D01*
X125326Y60674D01*
X125251Y60649D01*
X125070Y60583D01*
X124883Y60537D01*
X124692Y60509D01*
X124501Y60500D01*
Y64500D01*
X124692Y64491D01*
X124883Y64463D01*
X125070Y64417D01*
X125252Y64353D01*
X125326Y64328D01*
X125404Y64316D01*
X125483Y64317D01*
X125560Y64330D01*
X125635Y64355D01*
X125705Y64391D01*
X125768Y64438D01*
X125824Y64494D01*
X125869Y64558D01*
X125905Y64628D01*
X125928Y64703D01*
X125940Y64781D01*
X125940Y64860D01*
X125927Y64937D01*
X125902Y65012D01*
X125866Y65082D01*
X125819Y65145D01*
X125763Y65200D01*
X125699Y65246D01*
X125628Y65280D01*
X125356Y65379D01*
X125075Y65448D01*
X124789Y65490D01*
X124501Y65503D01*
Y90400D01*
X124634Y90319D01*
X125070Y90138D01*
X125529Y90028D01*
X126000Y89991D01*
X126471Y90028D01*
X126909Y90133D01*
Y63934D01*
X126860Y63942D01*
X126781Y63942D01*
X126703Y63931D01*
X126627Y63907D01*
X126556Y63871D01*
X126492Y63825D01*
X126436Y63770D01*
X126389Y63706D01*
X126353Y63636D01*
X126328Y63561D01*
X126315Y63483D01*
X126314Y63404D01*
X126326Y63326D01*
X126351Y63251D01*
X126417Y63070D01*
X126463Y62883D01*
X126491Y62692D01*
X126500Y62500D01*
X126491Y62308D01*
X126463Y62117D01*
X126417Y61930D01*
X126353Y61748D01*
X126328Y61674D01*
X126316Y61596D01*
X126317Y61517D01*
X126330Y61440D01*
X126355Y61365D01*
X126391Y61295D01*
X126438Y61232D01*
X126494Y61176D01*
X126558Y61131D01*
X126628Y61095D01*
X126703Y61072D01*
X126781Y61060D01*
X126860Y61060D01*
X126909Y61069D01*
Y13026D01*
X126875Y13051D01*
X126769Y13106D01*
X126657Y13143D01*
X126540Y13163D01*
X126421Y13164D01*
X126304Y13146D01*
X126191Y13110D01*
X126085Y13057D01*
X125988Y12988D01*
X125904Y12905D01*
X125833Y12809D01*
X125779Y12704D01*
X125741Y12592D01*
X125722Y12475D01*
X125721Y12356D01*
X125739Y12239D01*
X125777Y12126D01*
X125876Y11855D01*
X125944Y11575D01*
X125986Y11289D01*
X126000Y11000D01*
X125986Y10711D01*
X125944Y10425D01*
X125876Y10145D01*
X125780Y9872D01*
X125742Y9761D01*
X125725Y9644D01*
X125725Y9526D01*
X125745Y9409D01*
X125782Y9297D01*
X125836Y9193D01*
X125906Y9098D01*
X125991Y9015D01*
X126087Y8946D01*
X126192Y8893D01*
X126305Y8857D01*
X126421Y8840D01*
X126539Y8841D01*
X126656Y8860D01*
X126768Y8897D01*
X126873Y8952D01*
X126909Y8978D01*
Y4000D01*
G37*
G36*
X124501Y149249D02*X124395Y149293D01*
X123706Y149458D01*
X123000Y149514D01*
X122294Y149458D01*
X121605Y149293D01*
X120951Y149022D01*
X120347Y148652D01*
X119808Y148192D01*
X119496Y147827D01*
Y152000D01*
X124501D01*
Y149249D01*
G37*
G36*
X122091Y13856D02*X122145Y13876D01*
X122425Y13944D01*
X122711Y13986D01*
X123000Y14000D01*
X123289Y13986D01*
X123575Y13944D01*
X123855Y13876D01*
X124128Y13780D01*
X124239Y13742D01*
X124356Y13725D01*
X124474Y13725D01*
X124501Y13730D01*
Y8274D01*
X124475Y8278D01*
X124356Y8279D01*
X124239Y8261D01*
X124126Y8223D01*
X123855Y8124D01*
X123575Y8056D01*
X123289Y8014D01*
X123000Y8000D01*
X122711Y8014D01*
X122425Y8056D01*
X122145Y8124D01*
X122091Y8143D01*
Y13856D01*
G37*
G36*
Y84854D02*X122093Y84855D01*
X122415Y85052D01*
X122702Y85298D01*
X122948Y85585D01*
X123145Y85907D01*
X123290Y86256D01*
X123378Y86623D01*
X123400Y87000D01*
X123378Y87377D01*
X123290Y87744D01*
X123145Y88093D01*
X122948Y88415D01*
X122702Y88702D01*
X122415Y88948D01*
X122093Y89145D01*
X122091Y89146D01*
Y140590D01*
X122294Y140542D01*
X123000Y140486D01*
X123706Y140542D01*
X124395Y140707D01*
X124501Y140751D01*
Y95600D01*
X124231Y95435D01*
X123872Y95128D01*
X123565Y94769D01*
X123319Y94366D01*
X123138Y93930D01*
X123028Y93471D01*
X122991Y93000D01*
X123028Y92529D01*
X123138Y92070D01*
X123319Y91634D01*
X123565Y91231D01*
X123872Y90872D01*
X124231Y90565D01*
X124501Y90400D01*
Y65503D01*
X124500Y65503D01*
X124211Y65490D01*
X123925Y65448D01*
X123644Y65379D01*
X123371Y65283D01*
X123300Y65248D01*
X123236Y65202D01*
X123179Y65147D01*
X123132Y65083D01*
X123096Y65013D01*
X123071Y64938D01*
X123058Y64860D01*
X123058Y64781D01*
X123069Y64703D01*
X123093Y64627D01*
X123129Y64556D01*
X123175Y64492D01*
X123230Y64436D01*
X123294Y64389D01*
X123364Y64353D01*
X123439Y64328D01*
X123517Y64315D01*
X123596Y64314D01*
X123674Y64326D01*
X123749Y64351D01*
X123930Y64417D01*
X124117Y64463D01*
X124308Y64491D01*
X124500Y64500D01*
X124501Y64500D01*
Y60500D01*
X124500Y60500D01*
X124308Y60509D01*
X124117Y60537D01*
X123930Y60583D01*
X123748Y60647D01*
X123674Y60672D01*
X123596Y60684D01*
X123517Y60683D01*
X123440Y60670D01*
X123365Y60645D01*
X123295Y60609D01*
X123232Y60562D01*
X123176Y60506D01*
X123131Y60442D01*
X123095Y60372D01*
X123072Y60297D01*
X123060Y60219D01*
X123060Y60140D01*
X123073Y60063D01*
X123098Y59988D01*
X123134Y59918D01*
X123181Y59855D01*
X123237Y59800D01*
X123301Y59754D01*
X123372Y59720D01*
X123644Y59621D01*
X123925Y59552D01*
X124211Y59510D01*
X124500Y59497D01*
X124501Y59497D01*
Y15239D01*
X124284Y15318D01*
X123863Y15422D01*
X123433Y15484D01*
X123000Y15505D01*
X122567Y15484D01*
X122137Y15422D01*
X122091Y15411D01*
Y32600D01*
X122377Y32622D01*
X122744Y32710D01*
X123093Y32855D01*
X123415Y33052D01*
X123702Y33298D01*
X123948Y33585D01*
X124145Y33907D01*
X124290Y34256D01*
X124378Y34623D01*
X124400Y35000D01*
X124378Y35377D01*
X124290Y35744D01*
X124145Y36093D01*
X123948Y36415D01*
X123702Y36702D01*
X123415Y36948D01*
X123093Y37145D01*
X122744Y37290D01*
X122377Y37378D01*
X122091Y37400D01*
Y61066D01*
X122140Y61058D01*
X122219Y61058D01*
X122297Y61069D01*
X122373Y61093D01*
X122444Y61129D01*
X122508Y61175D01*
X122564Y61230D01*
X122611Y61294D01*
X122647Y61364D01*
X122672Y61439D01*
X122685Y61517D01*
X122686Y61596D01*
X122674Y61674D01*
X122649Y61749D01*
X122583Y61930D01*
X122537Y62117D01*
X122509Y62308D01*
X122500Y62500D01*
X122509Y62692D01*
X122537Y62883D01*
X122583Y63070D01*
X122647Y63252D01*
X122672Y63326D01*
X122684Y63404D01*
X122683Y63483D01*
X122670Y63560D01*
X122645Y63635D01*
X122609Y63705D01*
X122562Y63768D01*
X122506Y63824D01*
X122442Y63869D01*
X122372Y63905D01*
X122297Y63928D01*
X122219Y63940D01*
X122140Y63940D01*
X122091Y63931D01*
Y84854D01*
G37*
G36*
X124501Y4000D02*X122091D01*
Y6589D01*
X122137Y6578D01*
X122567Y6516D01*
X123000Y6495D01*
X123433Y6516D01*
X123863Y6578D01*
X124284Y6682D01*
X124501Y6758D01*
Y4000D01*
G37*
G36*
X122091Y89146D02*X121744Y89290D01*
X121377Y89378D01*
X121000Y89407D01*
X120623Y89378D01*
X120389Y89322D01*
X120400Y89500D01*
X120378Y89877D01*
X120290Y90244D01*
X120145Y90593D01*
X119948Y90915D01*
X119702Y91202D01*
X119496Y91378D01*
Y142173D01*
X119808Y141808D01*
X120347Y141348D01*
X120951Y140978D01*
X121605Y140707D01*
X122091Y140590D01*
Y89146D01*
G37*
G36*
Y4000D02*X119496D01*
Y8837D01*
X119579Y8836D01*
X119696Y8854D01*
X119809Y8890D01*
X119915Y8943D01*
X120012Y9012D01*
X120096Y9095D01*
X120167Y9191D01*
X120221Y9296D01*
X120259Y9408D01*
X120278Y9525D01*
X120279Y9644D01*
X120261Y9761D01*
X120223Y9874D01*
X120124Y10145D01*
X120056Y10425D01*
X120014Y10711D01*
X120000Y11000D01*
X120014Y11289D01*
X120056Y11575D01*
X120124Y11855D01*
X120220Y12128D01*
X120258Y12239D01*
X120275Y12356D01*
X120275Y12474D01*
X120255Y12591D01*
X120218Y12703D01*
X120164Y12807D01*
X120094Y12902D01*
X120009Y12985D01*
X119913Y13054D01*
X119808Y13107D01*
X119695Y13143D01*
X119579Y13160D01*
X119496Y13160D01*
Y85128D01*
X119585Y85052D01*
X119907Y84855D01*
X120256Y84710D01*
X120623Y84622D01*
X121000Y84593D01*
X121377Y84622D01*
X121744Y84710D01*
X122091Y84854D01*
Y63931D01*
X122063Y63927D01*
X121988Y63902D01*
X121918Y63866D01*
X121855Y63819D01*
X121800Y63763D01*
X121754Y63699D01*
X121720Y63628D01*
X121621Y63356D01*
X121552Y63075D01*
X121510Y62789D01*
X121497Y62500D01*
X121510Y62211D01*
X121552Y61925D01*
X121621Y61644D01*
X121717Y61371D01*
X121752Y61300D01*
X121798Y61236D01*
X121853Y61179D01*
X121917Y61132D01*
X121987Y61096D01*
X122062Y61071D01*
X122091Y61066D01*
Y37400D01*
X122000Y37407D01*
X121623Y37378D01*
X121256Y37290D01*
X120907Y37145D01*
X120585Y36948D01*
X120298Y36702D01*
X120052Y36415D01*
X119855Y36093D01*
X119710Y35744D01*
X119622Y35377D01*
X119593Y35000D01*
X119622Y34623D01*
X119710Y34256D01*
X119855Y33907D01*
X120052Y33585D01*
X120298Y33298D01*
X120585Y33052D01*
X120907Y32855D01*
X121256Y32710D01*
X121623Y32622D01*
X122000Y32593D01*
X122091Y32600D01*
Y15411D01*
X121716Y15318D01*
X121306Y15175D01*
X121200Y15122D01*
X121104Y15053D01*
X121019Y14970D01*
X120949Y14875D01*
X120894Y14769D01*
X120857Y14657D01*
X120837Y14540D01*
X120836Y14421D01*
X120854Y14304D01*
X120890Y14191D01*
X120943Y14085D01*
X121012Y13988D01*
X121095Y13904D01*
X121191Y13833D01*
X121296Y13779D01*
X121408Y13741D01*
X121525Y13722D01*
X121644Y13721D01*
X121761Y13739D01*
X121874Y13777D01*
X122091Y13856D01*
Y8143D01*
X121872Y8220D01*
X121761Y8258D01*
X121644Y8275D01*
X121526Y8275D01*
X121409Y8255D01*
X121297Y8218D01*
X121193Y8164D01*
X121098Y8094D01*
X121015Y8009D01*
X120946Y7913D01*
X120893Y7808D01*
X120857Y7695D01*
X120840Y7579D01*
X120841Y7461D01*
X120860Y7344D01*
X120897Y7232D01*
X120952Y7127D01*
X121022Y7032D01*
X121106Y6949D01*
X121202Y6881D01*
X121308Y6830D01*
X121716Y6682D01*
X122091Y6589D01*
Y4000D01*
G37*
G36*
X115996Y152000D02*X119496D01*
Y147827D01*
X119348Y147653D01*
X118978Y147049D01*
X118707Y146395D01*
X118542Y145706D01*
X118486Y145000D01*
X118542Y144294D01*
X118707Y143605D01*
X118978Y142951D01*
X119348Y142347D01*
X119496Y142173D01*
Y91378D01*
X119415Y91448D01*
X119093Y91645D01*
X118744Y91790D01*
X118377Y91878D01*
X118000Y91907D01*
X117623Y91878D01*
X117256Y91790D01*
X116907Y91645D01*
X116585Y91448D01*
X116298Y91202D01*
X116052Y90915D01*
X115996Y90824D01*
Y141641D01*
X116192Y141808D01*
X116652Y142347D01*
X117022Y142951D01*
X117293Y143605D01*
X117458Y144294D01*
X117500Y145000D01*
X117458Y145706D01*
X117293Y146395D01*
X117022Y147049D01*
X116652Y147653D01*
X116192Y148192D01*
X115996Y148359D01*
Y152000D01*
G37*
G36*
X119496Y4000D02*X115996D01*
Y7641D01*
X116192Y7808D01*
X116652Y8347D01*
X117022Y8951D01*
X117293Y9605D01*
X117458Y10294D01*
X117500Y11000D01*
X117458Y11706D01*
X117293Y12395D01*
X117022Y13049D01*
X116652Y13653D01*
X116192Y14192D01*
X115996Y14359D01*
Y32593D01*
X116000Y32593D01*
X116377Y32622D01*
X116744Y32710D01*
X117093Y32855D01*
X117415Y33052D01*
X117702Y33298D01*
X117948Y33585D01*
X118145Y33907D01*
X118290Y34256D01*
X118378Y34623D01*
X118400Y35000D01*
X118378Y35377D01*
X118290Y35744D01*
X118145Y36093D01*
X117948Y36415D01*
X117702Y36702D01*
X117415Y36948D01*
X117093Y37145D01*
X116744Y37290D01*
X116377Y37378D01*
X116000Y37407D01*
X115996Y37407D01*
Y88176D01*
X116052Y88085D01*
X116298Y87798D01*
X116585Y87552D01*
X116907Y87355D01*
X117256Y87210D01*
X117623Y87122D01*
X118000Y87093D01*
X118377Y87122D01*
X118607Y87177D01*
X118593Y87000D01*
X118622Y86623D01*
X118710Y86256D01*
X118855Y85907D01*
X119052Y85585D01*
X119298Y85298D01*
X119496Y85128D01*
Y13160D01*
X119461Y13159D01*
X119344Y13140D01*
X119232Y13103D01*
X119127Y13048D01*
X119032Y12978D01*
X118949Y12894D01*
X118881Y12798D01*
X118830Y12692D01*
X118682Y12284D01*
X118578Y11863D01*
X118516Y11433D01*
X118495Y11000D01*
X118516Y10567D01*
X118578Y10137D01*
X118682Y9716D01*
X118825Y9306D01*
X118878Y9200D01*
X118947Y9104D01*
X119030Y9019D01*
X119125Y8949D01*
X119231Y8894D01*
X119343Y8857D01*
X119460Y8837D01*
X119496Y8837D01*
Y4000D01*
G37*
G36*
X109996Y141648D02*X110347Y141348D01*
X110951Y140978D01*
X111605Y140707D01*
X112294Y140542D01*
X113000Y140486D01*
X113706Y140542D01*
X114395Y140707D01*
X115049Y140978D01*
X115653Y141348D01*
X115996Y141641D01*
Y90824D01*
X115855Y90593D01*
X115710Y90244D01*
X115622Y89877D01*
X115593Y89500D01*
X115622Y89123D01*
X115710Y88756D01*
X115855Y88407D01*
X115996Y88176D01*
Y37407D01*
X115623Y37378D01*
X115256Y37290D01*
X114907Y37145D01*
X114585Y36948D01*
X114298Y36702D01*
X114052Y36415D01*
X113855Y36093D01*
X113710Y35744D01*
X113622Y35377D01*
X113593Y35000D01*
X113622Y34623D01*
X113710Y34256D01*
X113855Y33907D01*
X114052Y33585D01*
X114298Y33298D01*
X114585Y33052D01*
X114907Y32855D01*
X115256Y32710D01*
X115623Y32622D01*
X115996Y32593D01*
Y14359D01*
X115653Y14652D01*
X115049Y15022D01*
X114395Y15293D01*
X113706Y15458D01*
X113000Y15514D01*
X112294Y15458D01*
X111605Y15293D01*
X110951Y15022D01*
X110347Y14652D01*
X109996Y14352D01*
Y32593D01*
X110000Y32593D01*
X110377Y32622D01*
X110744Y32710D01*
X111093Y32855D01*
X111415Y33052D01*
X111702Y33298D01*
X111948Y33585D01*
X112145Y33907D01*
X112290Y34256D01*
X112378Y34623D01*
X112400Y35000D01*
X112378Y35377D01*
X112290Y35744D01*
X112145Y36093D01*
X111948Y36415D01*
X111702Y36702D01*
X111415Y36948D01*
X111093Y37145D01*
X110744Y37290D01*
X110377Y37378D01*
X110000Y37407D01*
X109996Y37407D01*
Y141648D01*
G37*
G36*
Y152000D02*X115996D01*
Y148359D01*
X115653Y148652D01*
X115049Y149022D01*
X114395Y149293D01*
X113706Y149458D01*
X113000Y149514D01*
X112294Y149458D01*
X111605Y149293D01*
X110951Y149022D01*
X110347Y148652D01*
X109996Y148352D01*
Y152000D01*
G37*
G36*
X115996Y4000D02*X109996D01*
Y7648D01*
X110347Y7348D01*
X110951Y6978D01*
X111605Y6707D01*
X112294Y6542D01*
X113000Y6486D01*
X113706Y6542D01*
X114395Y6707D01*
X115049Y6978D01*
X115653Y7348D01*
X115996Y7641D01*
Y4000D01*
G37*
G36*
X109996D02*X101496D01*
Y6752D01*
X101605Y6707D01*
X102294Y6542D01*
X103000Y6486D01*
X103706Y6542D01*
X104395Y6707D01*
X105049Y6978D01*
X105653Y7348D01*
X106192Y7808D01*
X106652Y8347D01*
X107022Y8951D01*
X107293Y9605D01*
X107458Y10294D01*
X107500Y11000D01*
X107458Y11706D01*
X107293Y12395D01*
X107022Y13049D01*
X106652Y13653D01*
X106192Y14192D01*
X105653Y14652D01*
X105049Y15022D01*
X104395Y15293D01*
X103706Y15458D01*
X103000Y15514D01*
X102294Y15458D01*
X101605Y15293D01*
X101496Y15248D01*
Y67093D01*
X101500Y67093D01*
X101877Y67122D01*
X102244Y67210D01*
X102593Y67355D01*
X102915Y67552D01*
X103202Y67798D01*
X103448Y68085D01*
X103645Y68407D01*
X103790Y68756D01*
X103878Y69123D01*
X103900Y69500D01*
X103878Y69877D01*
X103790Y70244D01*
X103645Y70593D01*
X103448Y70915D01*
X103202Y71202D01*
X102915Y71448D01*
X102593Y71645D01*
X102244Y71790D01*
X101877Y71878D01*
X101500Y71907D01*
X101496Y71907D01*
Y87332D01*
X101681Y87634D01*
X101862Y88070D01*
X101972Y88529D01*
X102000Y89000D01*
X101972Y89471D01*
X101862Y89930D01*
X101681Y90366D01*
X101496Y90668D01*
Y140752D01*
X101605Y140707D01*
X102294Y140542D01*
X103000Y140486D01*
X103706Y140542D01*
X104395Y140707D01*
X105049Y140978D01*
X105653Y141348D01*
X106192Y141808D01*
X106652Y142347D01*
X107022Y142951D01*
X107293Y143605D01*
X107458Y144294D01*
X107500Y145000D01*
X107458Y145706D01*
X107293Y146395D01*
X107022Y147049D01*
X106652Y147653D01*
X106192Y148192D01*
X105653Y148652D01*
X105049Y149022D01*
X104395Y149293D01*
X103706Y149458D01*
X103000Y149514D01*
X102294Y149458D01*
X101605Y149293D01*
X101496Y149248D01*
Y152000D01*
X109996D01*
Y148352D01*
X109808Y148192D01*
X109348Y147653D01*
X108978Y147049D01*
X108707Y146395D01*
X108542Y145706D01*
X108486Y145000D01*
X108542Y144294D01*
X108707Y143605D01*
X108978Y142951D01*
X109348Y142347D01*
X109808Y141808D01*
X109996Y141648D01*
Y37407D01*
X109623Y37378D01*
X109256Y37290D01*
X108907Y37145D01*
X108585Y36948D01*
X108298Y36702D01*
X108052Y36415D01*
X107855Y36093D01*
X107710Y35744D01*
X107622Y35377D01*
X107593Y35000D01*
X107622Y34623D01*
X107710Y34256D01*
X107855Y33907D01*
X108052Y33585D01*
X108298Y33298D01*
X108585Y33052D01*
X108907Y32855D01*
X109256Y32710D01*
X109623Y32622D01*
X109996Y32593D01*
Y14352D01*
X109808Y14192D01*
X109348Y13653D01*
X108978Y13049D01*
X108707Y12395D01*
X108542Y11706D01*
X108486Y11000D01*
X108542Y10294D01*
X108707Y9605D01*
X108978Y8951D01*
X109348Y8347D01*
X109808Y7808D01*
X109996Y7648D01*
Y4000D01*
G37*
G36*
X101496Y90668D02*X101435Y90769D01*
X101128Y91128D01*
X100769Y91435D01*
X100366Y91681D01*
X99930Y91862D01*
X99471Y91972D01*
X99000Y92009D01*
X98529Y91972D01*
X98070Y91862D01*
X97634Y91681D01*
X97496Y91597D01*
Y144937D01*
X97500Y145000D01*
X97496Y145063D01*
Y152000D01*
X101496D01*
Y149248D01*
X100951Y149022D01*
X100347Y148652D01*
X99808Y148192D01*
X99348Y147653D01*
X98978Y147049D01*
X98707Y146395D01*
X98542Y145706D01*
X98486Y145000D01*
X98542Y144294D01*
X98707Y143605D01*
X98978Y142951D01*
X99348Y142347D01*
X99808Y141808D01*
X100347Y141348D01*
X100951Y140978D01*
X101496Y140752D01*
Y90668D01*
G37*
G36*
Y4000D02*X97496D01*
Y10937D01*
X97500Y11000D01*
X97496Y11063D01*
Y54593D01*
X97500Y54593D01*
X97877Y54622D01*
X98244Y54710D01*
X98593Y54855D01*
X98915Y55052D01*
X99202Y55298D01*
X99448Y55585D01*
X99645Y55907D01*
X99790Y56256D01*
X99878Y56623D01*
X99900Y57000D01*
X99878Y57377D01*
X99790Y57744D01*
X99645Y58093D01*
X99448Y58415D01*
X99202Y58702D01*
X98915Y58948D01*
X98593Y59145D01*
X98244Y59290D01*
X97877Y59378D01*
X97500Y59407D01*
X97496Y59407D01*
Y86403D01*
X97634Y86319D01*
X98070Y86138D01*
X98529Y86028D01*
X99000Y85991D01*
X99471Y86028D01*
X99930Y86138D01*
X100366Y86319D01*
X100769Y86565D01*
X101128Y86872D01*
X101435Y87231D01*
X101496Y87332D01*
Y71907D01*
X101123Y71878D01*
X100756Y71790D01*
X100407Y71645D01*
X100085Y71448D01*
X99798Y71202D01*
X99552Y70915D01*
X99355Y70593D01*
X99210Y70244D01*
X99122Y69877D01*
X99093Y69500D01*
X99122Y69123D01*
X99210Y68756D01*
X99355Y68407D01*
X99552Y68085D01*
X99798Y67798D01*
X100085Y67552D01*
X100407Y67355D01*
X100756Y67210D01*
X101123Y67122D01*
X101496Y67093D01*
Y15248D01*
X100951Y15022D01*
X100347Y14652D01*
X99808Y14192D01*
X99348Y13653D01*
X98978Y13049D01*
X98707Y12395D01*
X98542Y11706D01*
X98486Y11000D01*
X98542Y10294D01*
X98707Y9605D01*
X98978Y8951D01*
X99348Y8347D01*
X99808Y7808D01*
X100347Y7348D01*
X100951Y6978D01*
X101496Y6752D01*
Y4000D01*
G37*
G36*
X93409Y140518D02*X93706Y140542D01*
X94395Y140707D01*
X95049Y140978D01*
X95653Y141348D01*
X96192Y141808D01*
X96652Y142347D01*
X97022Y142951D01*
X97293Y143605D01*
X97458Y144294D01*
X97496Y144937D01*
Y91597D01*
X97231Y91435D01*
X96872Y91128D01*
X96565Y90769D01*
X96319Y90366D01*
X96138Y89930D01*
X96028Y89471D01*
X95991Y89000D01*
X96028Y88529D01*
X96138Y88070D01*
X96319Y87634D01*
X96565Y87231D01*
X96872Y86872D01*
X97231Y86565D01*
X97496Y86403D01*
Y59407D01*
X97123Y59378D01*
X96756Y59290D01*
X96407Y59145D01*
X96085Y58948D01*
X95798Y58702D01*
X95552Y58415D01*
X95355Y58093D01*
X95210Y57744D01*
X95122Y57377D01*
X95093Y57000D01*
X95122Y56623D01*
X95210Y56256D01*
X95355Y55907D01*
X95552Y55585D01*
X95798Y55298D01*
X96085Y55052D01*
X96407Y54855D01*
X96756Y54710D01*
X97123Y54622D01*
X97496Y54593D01*
Y11063D01*
X97458Y11706D01*
X97293Y12395D01*
X97022Y13049D01*
X96652Y13653D01*
X96192Y14192D01*
X95653Y14652D01*
X95049Y15022D01*
X94395Y15293D01*
X93706Y15458D01*
X93409Y15482D01*
Y61779D01*
X93593Y61855D01*
X93915Y62052D01*
X94202Y62298D01*
X94448Y62585D01*
X94645Y62907D01*
X94790Y63256D01*
X94878Y63623D01*
X94900Y64000D01*
X94878Y64377D01*
X94790Y64744D01*
X94645Y65093D01*
X94448Y65415D01*
X94202Y65702D01*
X93915Y65948D01*
X93593Y66145D01*
X93409Y66221D01*
Y94069D01*
X93437Y94073D01*
X93512Y94098D01*
X93582Y94134D01*
X93645Y94181D01*
X93700Y94237D01*
X93746Y94301D01*
X93780Y94372D01*
X93879Y94644D01*
X93948Y94925D01*
X93990Y95211D01*
X94003Y95500D01*
X93990Y95789D01*
X93948Y96075D01*
X93879Y96356D01*
X93783Y96629D01*
X93748Y96700D01*
X93702Y96764D01*
X93647Y96821D01*
X93583Y96868D01*
X93513Y96904D01*
X93438Y96929D01*
X93409Y96934D01*
Y140518D01*
G37*
G36*
Y15482D02*X93000Y15514D01*
X92496Y15474D01*
Y61593D01*
X92500Y61593D01*
X92877Y61622D01*
X93244Y61710D01*
X93409Y61779D01*
Y15482D01*
G37*
G36*
X92496Y140526D02*X93000Y140486D01*
X93409Y140518D01*
Y96934D01*
X93360Y96942D01*
X93281Y96942D01*
X93203Y96931D01*
X93127Y96907D01*
X93056Y96871D01*
X92992Y96825D01*
X92936Y96770D01*
X92889Y96706D01*
X92853Y96636D01*
X92828Y96561D01*
X92815Y96483D01*
X92814Y96404D01*
X92826Y96326D01*
X92851Y96251D01*
X92917Y96070D01*
X92963Y95883D01*
X92991Y95692D01*
X93000Y95500D01*
X92991Y95308D01*
X92963Y95117D01*
X92917Y94930D01*
X92853Y94748D01*
X92828Y94674D01*
X92816Y94596D01*
X92817Y94517D01*
X92830Y94440D01*
X92855Y94365D01*
X92891Y94295D01*
X92938Y94232D01*
X92994Y94176D01*
X93058Y94131D01*
X93128Y94095D01*
X93203Y94072D01*
X93281Y94060D01*
X93360Y94060D01*
X93409Y94069D01*
Y66221D01*
X93244Y66290D01*
X92877Y66378D01*
X92500Y66407D01*
X92496Y66407D01*
Y140526D01*
G37*
G36*
Y152000D02*X97496D01*
Y145063D01*
X97458Y145706D01*
X97293Y146395D01*
X97022Y147049D01*
X96652Y147653D01*
X96192Y148192D01*
X95653Y148652D01*
X95049Y149022D01*
X94395Y149293D01*
X93706Y149458D01*
X93000Y149514D01*
X92496Y149474D01*
Y152000D01*
G37*
G36*
X97496Y4000D02*X92496D01*
Y6526D01*
X93000Y6486D01*
X93706Y6542D01*
X94395Y6707D01*
X95049Y6978D01*
X95653Y7348D01*
X96192Y7808D01*
X96652Y8347D01*
X97022Y8951D01*
X97293Y9605D01*
X97458Y10294D01*
X97496Y10937D01*
Y4000D01*
G37*
G36*
X91001Y62124D02*X91085Y62052D01*
X91407Y61855D01*
X91756Y61710D01*
X92123Y61622D01*
X92496Y61593D01*
Y15474D01*
X92294Y15458D01*
X91605Y15293D01*
X91001Y15043D01*
Y62124D01*
G37*
G36*
Y140957D02*X91605Y140707D01*
X92294Y140542D01*
X92496Y140526D01*
Y66407D01*
X92123Y66378D01*
X91756Y66290D01*
X91407Y66145D01*
X91085Y65948D01*
X91001Y65876D01*
Y92497D01*
X91289Y92510D01*
X91575Y92552D01*
X91856Y92621D01*
X92129Y92717D01*
X92200Y92752D01*
X92264Y92798D01*
X92321Y92853D01*
X92368Y92917D01*
X92404Y92987D01*
X92429Y93062D01*
X92442Y93140D01*
X92442Y93219D01*
X92431Y93297D01*
X92407Y93373D01*
X92371Y93444D01*
X92325Y93508D01*
X92270Y93564D01*
X92206Y93611D01*
X92136Y93647D01*
X92061Y93672D01*
X91983Y93685D01*
X91904Y93686D01*
X91826Y93674D01*
X91751Y93649D01*
X91570Y93583D01*
X91383Y93537D01*
X91192Y93509D01*
X91001Y93500D01*
Y97500D01*
X91192Y97491D01*
X91383Y97463D01*
X91570Y97417D01*
X91752Y97353D01*
X91826Y97328D01*
X91904Y97316D01*
X91983Y97317D01*
X92060Y97330D01*
X92135Y97355D01*
X92205Y97391D01*
X92268Y97438D01*
X92324Y97494D01*
X92369Y97558D01*
X92405Y97628D01*
X92428Y97703D01*
X92440Y97781D01*
X92440Y97860D01*
X92427Y97937D01*
X92402Y98012D01*
X92366Y98082D01*
X92319Y98145D01*
X92263Y98200D01*
X92199Y98246D01*
X92128Y98280D01*
X91856Y98379D01*
X91575Y98448D01*
X91289Y98490D01*
X91001Y98503D01*
Y140957D01*
G37*
G36*
Y152000D02*X92496D01*
Y149474D01*
X92294Y149458D01*
X91605Y149293D01*
X91001Y149043D01*
Y152000D01*
G37*
G36*
X92496Y4000D02*X91001D01*
Y6957D01*
X91605Y6707D01*
X92294Y6542D01*
X92496Y6526D01*
Y4000D01*
G37*
G36*
X88591Y144087D02*X88707Y143605D01*
X88978Y142951D01*
X89348Y142347D01*
X89808Y141808D01*
X90347Y141348D01*
X90951Y140978D01*
X91001Y140957D01*
Y98503D01*
X91000Y98503D01*
X90711Y98490D01*
X90425Y98448D01*
X90144Y98379D01*
X89871Y98283D01*
X89800Y98248D01*
X89736Y98202D01*
X89679Y98147D01*
X89632Y98083D01*
X89596Y98013D01*
X89571Y97938D01*
X89558Y97860D01*
X89558Y97781D01*
X89569Y97703D01*
X89593Y97627D01*
X89629Y97556D01*
X89675Y97492D01*
X89730Y97436D01*
X89794Y97389D01*
X89864Y97353D01*
X89939Y97328D01*
X90017Y97315D01*
X90096Y97314D01*
X90174Y97326D01*
X90249Y97351D01*
X90430Y97417D01*
X90617Y97463D01*
X90808Y97491D01*
X91000Y97500D01*
X91001Y97500D01*
Y93500D01*
X91000Y93500D01*
X90808Y93509D01*
X90617Y93537D01*
X90430Y93583D01*
X90248Y93647D01*
X90174Y93672D01*
X90096Y93684D01*
X90017Y93683D01*
X89940Y93670D01*
X89865Y93645D01*
X89795Y93609D01*
X89732Y93562D01*
X89676Y93506D01*
X89631Y93442D01*
X89595Y93372D01*
X89572Y93297D01*
X89560Y93219D01*
X89560Y93140D01*
X89573Y93063D01*
X89598Y92988D01*
X89634Y92918D01*
X89681Y92855D01*
X89737Y92800D01*
X89801Y92754D01*
X89872Y92720D01*
X90144Y92621D01*
X90425Y92552D01*
X90711Y92510D01*
X91000Y92497D01*
X91001Y92497D01*
Y65876D01*
X90798Y65702D01*
X90552Y65415D01*
X90355Y65093D01*
X90210Y64744D01*
X90122Y64377D01*
X90093Y64000D01*
X90122Y63623D01*
X90210Y63256D01*
X90355Y62907D01*
X90552Y62585D01*
X90798Y62298D01*
X91001Y62124D01*
Y15043D01*
X90951Y15022D01*
X90347Y14652D01*
X89808Y14192D01*
X89348Y13653D01*
X88978Y13049D01*
X88707Y12395D01*
X88591Y11913D01*
Y84841D01*
X88628Y84872D01*
X88935Y85231D01*
X89181Y85634D01*
X89362Y86070D01*
X89472Y86529D01*
X89500Y87000D01*
X89472Y87471D01*
X89362Y87930D01*
X89181Y88366D01*
X88935Y88769D01*
X88628Y89128D01*
X88591Y89159D01*
Y94066D01*
X88640Y94058D01*
X88719Y94058D01*
X88797Y94069D01*
X88873Y94093D01*
X88944Y94129D01*
X89008Y94175D01*
X89064Y94230D01*
X89111Y94294D01*
X89147Y94364D01*
X89172Y94439D01*
X89185Y94517D01*
X89186Y94596D01*
X89174Y94674D01*
X89149Y94749D01*
X89083Y94930D01*
X89037Y95117D01*
X89009Y95308D01*
X89000Y95500D01*
X89009Y95692D01*
X89037Y95883D01*
X89083Y96070D01*
X89147Y96252D01*
X89172Y96326D01*
X89184Y96404D01*
X89183Y96483D01*
X89170Y96560D01*
X89145Y96635D01*
X89109Y96705D01*
X89062Y96768D01*
X89006Y96824D01*
X88942Y96869D01*
X88872Y96905D01*
X88797Y96928D01*
X88719Y96940D01*
X88640Y96940D01*
X88591Y96931D01*
Y144087D01*
G37*
G36*
Y152000D02*X91001D01*
Y149043D01*
X90951Y149022D01*
X90347Y148652D01*
X89808Y148192D01*
X89348Y147653D01*
X88978Y147049D01*
X88707Y146395D01*
X88591Y145913D01*
Y152000D01*
G37*
G36*
X91001Y4000D02*X88591D01*
Y10087D01*
X88707Y9605D01*
X88978Y8951D01*
X89348Y8347D01*
X89808Y7808D01*
X90347Y7348D01*
X90951Y6978D01*
X91001Y6957D01*
Y4000D01*
G37*
G36*
X88591D02*X82993D01*
Y6487D01*
X83000Y6486D01*
X83706Y6542D01*
X84395Y6707D01*
X85049Y6978D01*
X85653Y7348D01*
X86192Y7808D01*
X86652Y8347D01*
X87022Y8951D01*
X87293Y9605D01*
X87458Y10294D01*
X87500Y11000D01*
X87458Y11706D01*
X87293Y12395D01*
X87022Y13049D01*
X86652Y13653D01*
X86192Y14192D01*
X85653Y14652D01*
X85049Y15022D01*
X84395Y15293D01*
X83706Y15458D01*
X83000Y15514D01*
X82993Y15513D01*
Y140487D01*
X83000Y140486D01*
X83706Y140542D01*
X84395Y140707D01*
X85049Y140978D01*
X85653Y141348D01*
X86192Y141808D01*
X86652Y142347D01*
X87022Y142951D01*
X87293Y143605D01*
X87458Y144294D01*
X87500Y145000D01*
X87458Y145706D01*
X87293Y146395D01*
X87022Y147049D01*
X86652Y147653D01*
X86192Y148192D01*
X85653Y148652D01*
X85049Y149022D01*
X84395Y149293D01*
X83706Y149458D01*
X83000Y149514D01*
X82993Y149513D01*
Y152000D01*
X88591D01*
Y145913D01*
X88542Y145706D01*
X88486Y145000D01*
X88542Y144294D01*
X88591Y144087D01*
Y96931D01*
X88563Y96927D01*
X88488Y96902D01*
X88418Y96866D01*
X88355Y96819D01*
X88300Y96763D01*
X88254Y96699D01*
X88220Y96628D01*
X88121Y96356D01*
X88052Y96075D01*
X88010Y95789D01*
X87997Y95500D01*
X88010Y95211D01*
X88052Y94925D01*
X88121Y94644D01*
X88217Y94371D01*
X88252Y94300D01*
X88298Y94236D01*
X88353Y94179D01*
X88417Y94132D01*
X88487Y94096D01*
X88562Y94071D01*
X88591Y94066D01*
Y89159D01*
X88269Y89435D01*
X87866Y89681D01*
X87430Y89862D01*
X86971Y89972D01*
X86500Y90009D01*
X86029Y89972D01*
X85570Y89862D01*
X85134Y89681D01*
X84731Y89435D01*
X84372Y89128D01*
X84065Y88769D01*
X83819Y88366D01*
X83638Y87930D01*
X83528Y87471D01*
X83491Y87000D01*
X83528Y86529D01*
X83638Y86070D01*
X83819Y85634D01*
X84065Y85231D01*
X84372Y84872D01*
X84731Y84565D01*
X85134Y84319D01*
X85570Y84138D01*
X86029Y84028D01*
X86500Y83991D01*
X86971Y84028D01*
X87430Y84138D01*
X87866Y84319D01*
X88269Y84565D01*
X88591Y84841D01*
Y11913D01*
X88542Y11706D01*
X88486Y11000D01*
X88542Y10294D01*
X88591Y10087D01*
Y4000D01*
G37*
G36*
X82993D02*X74409D01*
Y6713D01*
X75049Y6978D01*
X75653Y7348D01*
X76192Y7808D01*
X76652Y8347D01*
X77022Y8951D01*
X77293Y9605D01*
X77458Y10294D01*
X77500Y11000D01*
X77458Y11706D01*
X77293Y12395D01*
X77022Y13049D01*
X76652Y13653D01*
X76192Y14192D01*
X75653Y14652D01*
X75049Y15022D01*
X74409Y15287D01*
Y62503D01*
X79235Y62514D01*
X79465Y62569D01*
X79683Y62659D01*
X79884Y62783D01*
X80064Y62936D01*
X80217Y63116D01*
X80341Y63317D01*
X80431Y63535D01*
X80486Y63765D01*
X80500Y64000D01*
X80486Y70235D01*
X80431Y70465D01*
X80341Y70683D01*
X80217Y70884D01*
X80064Y71064D01*
X79884Y71217D01*
X79683Y71341D01*
X79465Y71431D01*
X79235Y71486D01*
X79000Y71500D01*
X74409Y71490D01*
Y82788D01*
X74605Y82707D01*
X75294Y82542D01*
X76000Y82486D01*
X76706Y82542D01*
X77395Y82707D01*
X78049Y82978D01*
X78653Y83348D01*
X79192Y83808D01*
X79652Y84347D01*
X80022Y84951D01*
X80293Y85605D01*
X80458Y86294D01*
X80500Y87000D01*
X80458Y87706D01*
X80293Y88395D01*
X80022Y89049D01*
X79652Y89653D01*
X79192Y90192D01*
X78653Y90652D01*
X78049Y91022D01*
X77395Y91293D01*
X76706Y91458D01*
X76000Y91514D01*
X75294Y91458D01*
X74605Y91293D01*
X74409Y91212D01*
Y128569D01*
X74437Y128573D01*
X74512Y128598D01*
X74582Y128634D01*
X74645Y128681D01*
X74700Y128737D01*
X74746Y128801D01*
X74780Y128872D01*
X74879Y129144D01*
X74948Y129425D01*
X74990Y129711D01*
X75003Y130000D01*
X74990Y130289D01*
X74948Y130575D01*
X74879Y130856D01*
X74783Y131129D01*
X74748Y131200D01*
X74702Y131264D01*
X74647Y131321D01*
X74583Y131368D01*
X74513Y131404D01*
X74438Y131429D01*
X74409Y131434D01*
Y140713D01*
X75049Y140978D01*
X75653Y141348D01*
X76192Y141808D01*
X76652Y142347D01*
X77022Y142951D01*
X77293Y143605D01*
X77458Y144294D01*
X77500Y145000D01*
X77458Y145706D01*
X77293Y146395D01*
X77022Y147049D01*
X76652Y147653D01*
X76192Y148192D01*
X75653Y148652D01*
X75049Y149022D01*
X74409Y149287D01*
Y152000D01*
X82993D01*
Y149513D01*
X82294Y149458D01*
X81605Y149293D01*
X80951Y149022D01*
X80347Y148652D01*
X79808Y148192D01*
X79348Y147653D01*
X78978Y147049D01*
X78707Y146395D01*
X78542Y145706D01*
X78486Y145000D01*
X78542Y144294D01*
X78707Y143605D01*
X78978Y142951D01*
X79348Y142347D01*
X79808Y141808D01*
X80347Y141348D01*
X80951Y140978D01*
X81605Y140707D01*
X82294Y140542D01*
X82993Y140487D01*
Y15513D01*
X82294Y15458D01*
X81605Y15293D01*
X80951Y15022D01*
X80347Y14652D01*
X79808Y14192D01*
X79348Y13653D01*
X78978Y13049D01*
X78707Y12395D01*
X78542Y11706D01*
X78486Y11000D01*
X78542Y10294D01*
X78707Y9605D01*
X78978Y8951D01*
X79348Y8347D01*
X79808Y7808D01*
X80347Y7348D01*
X80951Y6978D01*
X81605Y6707D01*
X82294Y6542D01*
X82993Y6487D01*
Y4000D01*
G37*
G36*
X74409Y149287D02*X74395Y149293D01*
X73706Y149458D01*
X73000Y149514D01*
X72294Y149458D01*
X72001Y149388D01*
Y152000D01*
X74409D01*
Y149287D01*
G37*
G36*
Y91212D02*X73951Y91022D01*
X73347Y90652D01*
X72808Y90192D01*
X72348Y89653D01*
X72001Y89087D01*
Y126997D01*
X72289Y127010D01*
X72575Y127052D01*
X72856Y127121D01*
X73129Y127217D01*
X73200Y127252D01*
X73264Y127298D01*
X73321Y127353D01*
X73368Y127417D01*
X73404Y127487D01*
X73429Y127562D01*
X73442Y127640D01*
X73442Y127719D01*
X73431Y127797D01*
X73407Y127873D01*
X73371Y127944D01*
X73325Y128008D01*
X73270Y128064D01*
X73206Y128111D01*
X73136Y128147D01*
X73061Y128172D01*
X72983Y128185D01*
X72904Y128186D01*
X72826Y128174D01*
X72751Y128149D01*
X72570Y128083D01*
X72383Y128037D01*
X72192Y128009D01*
X72001Y128000D01*
Y132000D01*
X72192Y131991D01*
X72383Y131963D01*
X72570Y131917D01*
X72752Y131853D01*
X72826Y131828D01*
X72904Y131816D01*
X72983Y131817D01*
X73060Y131830D01*
X73135Y131855D01*
X73205Y131891D01*
X73268Y131938D01*
X73324Y131994D01*
X73369Y132058D01*
X73405Y132128D01*
X73428Y132203D01*
X73440Y132281D01*
X73440Y132360D01*
X73427Y132437D01*
X73402Y132512D01*
X73366Y132582D01*
X73319Y132645D01*
X73263Y132700D01*
X73199Y132746D01*
X73128Y132780D01*
X72856Y132879D01*
X72575Y132948D01*
X72289Y132990D01*
X72001Y133003D01*
Y140612D01*
X72294Y140542D01*
X73000Y140486D01*
X73706Y140542D01*
X74395Y140707D01*
X74409Y140713D01*
Y131434D01*
X74360Y131442D01*
X74281Y131442D01*
X74203Y131431D01*
X74127Y131407D01*
X74056Y131371D01*
X73992Y131325D01*
X73936Y131270D01*
X73889Y131206D01*
X73853Y131136D01*
X73828Y131061D01*
X73815Y130983D01*
X73814Y130904D01*
X73826Y130826D01*
X73851Y130751D01*
X73917Y130570D01*
X73963Y130383D01*
X73991Y130192D01*
X74000Y130000D01*
X73991Y129808D01*
X73963Y129617D01*
X73917Y129430D01*
X73853Y129248D01*
X73828Y129174D01*
X73816Y129096D01*
X73817Y129017D01*
X73830Y128940D01*
X73855Y128865D01*
X73891Y128795D01*
X73938Y128732D01*
X73994Y128676D01*
X74058Y128631D01*
X74128Y128595D01*
X74203Y128572D01*
X74281Y128560D01*
X74360Y128560D01*
X74409Y128569D01*
Y91212D01*
G37*
G36*
Y71490D02*X72765Y71486D01*
X72535Y71431D01*
X72317Y71341D01*
X72116Y71217D01*
X72001Y71120D01*
Y84913D01*
X72348Y84347D01*
X72808Y83808D01*
X73347Y83348D01*
X73951Y82978D01*
X74409Y82788D01*
Y71490D01*
G37*
G36*
Y15287D02*X74395Y15293D01*
X73706Y15458D01*
X73000Y15514D01*
X72294Y15458D01*
X72001Y15388D01*
Y62880D01*
X72116Y62783D01*
X72317Y62659D01*
X72535Y62569D01*
X72765Y62514D01*
X73000Y62500D01*
X74409Y62503D01*
Y15287D01*
G37*
G36*
Y4000D02*X72001D01*
Y6612D01*
X72294Y6542D01*
X73000Y6486D01*
X73706Y6542D01*
X74395Y6707D01*
X74409Y6713D01*
Y4000D01*
G37*
G36*
X69591Y142062D02*X69808Y141808D01*
X70347Y141348D01*
X70951Y140978D01*
X71605Y140707D01*
X72001Y140612D01*
Y133003D01*
X72000Y133003D01*
X71711Y132990D01*
X71425Y132948D01*
X71144Y132879D01*
X70871Y132783D01*
X70800Y132748D01*
X70736Y132702D01*
X70679Y132647D01*
X70632Y132583D01*
X70596Y132513D01*
X70571Y132438D01*
X70558Y132360D01*
X70558Y132281D01*
X70569Y132203D01*
X70593Y132127D01*
X70629Y132056D01*
X70675Y131992D01*
X70730Y131936D01*
X70794Y131889D01*
X70864Y131853D01*
X70939Y131828D01*
X71017Y131815D01*
X71096Y131814D01*
X71174Y131826D01*
X71249Y131851D01*
X71430Y131917D01*
X71617Y131963D01*
X71808Y131991D01*
X72000Y132000D01*
X72001Y132000D01*
Y128000D01*
X72000Y128000D01*
X71808Y128009D01*
X71617Y128037D01*
X71430Y128083D01*
X71248Y128147D01*
X71174Y128172D01*
X71096Y128184D01*
X71017Y128183D01*
X70940Y128170D01*
X70865Y128145D01*
X70795Y128109D01*
X70732Y128062D01*
X70676Y128006D01*
X70631Y127942D01*
X70595Y127872D01*
X70572Y127797D01*
X70560Y127719D01*
X70560Y127640D01*
X70573Y127563D01*
X70598Y127488D01*
X70634Y127418D01*
X70681Y127355D01*
X70737Y127300D01*
X70801Y127254D01*
X70872Y127220D01*
X71144Y127121D01*
X71425Y127052D01*
X71711Y127010D01*
X72000Y126997D01*
X72001Y126997D01*
Y89087D01*
X71978Y89049D01*
X71707Y88395D01*
X71542Y87706D01*
X71486Y87000D01*
X71542Y86294D01*
X71707Y85605D01*
X71978Y84951D01*
X72001Y84913D01*
Y71120D01*
X71936Y71064D01*
X71783Y70884D01*
X71659Y70683D01*
X71569Y70465D01*
X71514Y70235D01*
X71500Y70000D01*
X71514Y63765D01*
X71569Y63535D01*
X71659Y63317D01*
X71783Y63116D01*
X71936Y62936D01*
X72001Y62880D01*
Y15388D01*
X71605Y15293D01*
X70951Y15022D01*
X70347Y14652D01*
X69808Y14192D01*
X69591Y13938D01*
Y128566D01*
X69640Y128558D01*
X69719Y128558D01*
X69797Y128569D01*
X69873Y128593D01*
X69944Y128629D01*
X70008Y128675D01*
X70064Y128730D01*
X70111Y128794D01*
X70147Y128864D01*
X70172Y128939D01*
X70185Y129017D01*
X70186Y129096D01*
X70174Y129174D01*
X70149Y129249D01*
X70083Y129430D01*
X70037Y129617D01*
X70009Y129808D01*
X70000Y130000D01*
X70009Y130192D01*
X70037Y130383D01*
X70083Y130570D01*
X70147Y130752D01*
X70172Y130826D01*
X70184Y130904D01*
X70183Y130983D01*
X70170Y131060D01*
X70145Y131135D01*
X70109Y131205D01*
X70062Y131268D01*
X70006Y131324D01*
X69942Y131369D01*
X69872Y131405D01*
X69797Y131428D01*
X69719Y131440D01*
X69640Y131440D01*
X69591Y131431D01*
Y142062D01*
G37*
G36*
Y152000D02*X72001D01*
Y149388D01*
X71605Y149293D01*
X70951Y149022D01*
X70347Y148652D01*
X69808Y148192D01*
X69591Y147938D01*
Y152000D01*
G37*
G36*
X72001Y4000D02*X69591D01*
Y8062D01*
X69808Y7808D01*
X70347Y7348D01*
X70951Y6978D01*
X71605Y6707D01*
X72001Y6612D01*
Y4000D01*
G37*
G36*
X69591D02*X66496D01*
Y8165D01*
X66652Y8347D01*
X67022Y8951D01*
X67293Y9605D01*
X67458Y10294D01*
X67500Y11000D01*
X67458Y11706D01*
X67293Y12395D01*
X67022Y13049D01*
X66652Y13653D01*
X66496Y13835D01*
Y58593D01*
X66500Y58593D01*
X66877Y58622D01*
X67244Y58710D01*
X67593Y58855D01*
X67915Y59052D01*
X68202Y59298D01*
X68448Y59585D01*
X68645Y59907D01*
X68790Y60256D01*
X68878Y60623D01*
X68900Y61000D01*
X68878Y61377D01*
X68790Y61744D01*
X68645Y62093D01*
X68448Y62415D01*
X68202Y62702D01*
X67915Y62948D01*
X67593Y63145D01*
X67244Y63290D01*
X66877Y63378D01*
X66500Y63407D01*
X66496Y63407D01*
Y98539D01*
X66497Y98538D01*
X66739Y98390D01*
X67001Y98282D01*
X67276Y98216D01*
X67559Y98193D01*
X67842Y98216D01*
X68117Y98282D01*
X68379Y98390D01*
X68621Y98538D01*
X68836Y98723D01*
X69021Y98938D01*
X69169Y99180D01*
X69277Y99442D01*
X69343Y99717D01*
X69360Y100000D01*
X69343Y100283D01*
X69277Y100558D01*
X69169Y100820D01*
X69021Y101062D01*
X68836Y101277D01*
X68621Y101462D01*
X68379Y101610D01*
X68117Y101718D01*
X67842Y101784D01*
X67559Y101807D01*
X67276Y101784D01*
X67001Y101718D01*
X66739Y101610D01*
X66497Y101462D01*
X66496Y101461D01*
Y106539D01*
X66497Y106538D01*
X66739Y106390D01*
X67001Y106282D01*
X67276Y106216D01*
X67559Y106193D01*
X67842Y106216D01*
X68117Y106282D01*
X68379Y106390D01*
X68621Y106538D01*
X68836Y106723D01*
X69021Y106938D01*
X69169Y107180D01*
X69277Y107442D01*
X69343Y107717D01*
X69360Y108000D01*
X69343Y108283D01*
X69277Y108558D01*
X69169Y108820D01*
X69021Y109062D01*
X68836Y109277D01*
X68621Y109462D01*
X68379Y109610D01*
X68117Y109718D01*
X67842Y109784D01*
X67559Y109807D01*
X67276Y109784D01*
X67001Y109718D01*
X66739Y109610D01*
X66497Y109462D01*
X66496Y109461D01*
Y142165D01*
X66652Y142347D01*
X67022Y142951D01*
X67293Y143605D01*
X67458Y144294D01*
X67500Y145000D01*
X67458Y145706D01*
X67293Y146395D01*
X67022Y147049D01*
X66652Y147653D01*
X66496Y147835D01*
Y152000D01*
X69591D01*
Y147938D01*
X69348Y147653D01*
X68978Y147049D01*
X68707Y146395D01*
X68542Y145706D01*
X68486Y145000D01*
X68542Y144294D01*
X68707Y143605D01*
X68978Y142951D01*
X69348Y142347D01*
X69591Y142062D01*
Y131431D01*
X69563Y131427D01*
X69488Y131402D01*
X69418Y131366D01*
X69355Y131319D01*
X69300Y131263D01*
X69254Y131199D01*
X69220Y131128D01*
X69121Y130856D01*
X69052Y130575D01*
X69010Y130289D01*
X68997Y130000D01*
X69010Y129711D01*
X69052Y129425D01*
X69121Y129144D01*
X69217Y128871D01*
X69252Y128800D01*
X69298Y128736D01*
X69353Y128679D01*
X69417Y128632D01*
X69487Y128596D01*
X69562Y128571D01*
X69591Y128566D01*
Y13938D01*
X69348Y13653D01*
X68978Y13049D01*
X68707Y12395D01*
X68542Y11706D01*
X68486Y11000D01*
X68542Y10294D01*
X68707Y9605D01*
X68978Y8951D01*
X69348Y8347D01*
X69591Y8062D01*
Y4000D01*
G37*
G36*
X66496Y147835D02*X66192Y148192D01*
X65653Y148652D01*
X65049Y149022D01*
X64395Y149293D01*
X63706Y149458D01*
X63000Y149514D01*
X62294Y149458D01*
X61605Y149293D01*
X60951Y149022D01*
X60347Y148652D01*
X59808Y148192D01*
X59348Y147653D01*
X58996Y147079D01*
Y152000D01*
X66496D01*
Y147835D01*
G37*
G36*
Y13835D02*X66192Y14192D01*
X65653Y14652D01*
X65049Y15022D01*
X64395Y15293D01*
X63706Y15458D01*
X63000Y15514D01*
X62294Y15458D01*
X61605Y15293D01*
X60951Y15022D01*
X60347Y14652D01*
X59808Y14192D01*
X59348Y13653D01*
X58996Y13079D01*
Y78451D01*
X59011Y78475D01*
X59146Y78803D01*
X59229Y79147D01*
X59250Y79500D01*
X59229Y79853D01*
X59146Y80197D01*
X59011Y80525D01*
X58996Y80549D01*
Y82593D01*
X59000Y82593D01*
X59377Y82622D01*
X59744Y82710D01*
X60093Y82855D01*
X60415Y83052D01*
X60702Y83298D01*
X60948Y83585D01*
X61145Y83907D01*
X61290Y84256D01*
X61378Y84623D01*
X61400Y85000D01*
X61378Y85377D01*
X61290Y85744D01*
X61145Y86093D01*
X60948Y86415D01*
X60702Y86702D01*
X60415Y86948D01*
X60093Y87145D01*
X59744Y87290D01*
X59377Y87378D01*
X59000Y87407D01*
X58996Y87407D01*
Y88451D01*
X59011Y88475D01*
X59146Y88803D01*
X59229Y89147D01*
X59250Y89500D01*
X59229Y89853D01*
X59146Y90197D01*
X59011Y90525D01*
X58996Y90549D01*
Y115844D01*
X59065Y115731D01*
X59372Y115372D01*
X59731Y115065D01*
X60134Y114819D01*
X60570Y114638D01*
X61029Y114528D01*
X61500Y114491D01*
X61971Y114528D01*
X62430Y114638D01*
X62866Y114819D01*
X63269Y115065D01*
X63628Y115372D01*
X63935Y115731D01*
X64181Y116134D01*
X64362Y116570D01*
X64472Y117029D01*
X64500Y117500D01*
X64472Y117971D01*
X64362Y118430D01*
X64181Y118866D01*
X63935Y119269D01*
X63628Y119628D01*
X63269Y119935D01*
X62866Y120181D01*
X62430Y120362D01*
X61971Y120472D01*
X61500Y120509D01*
X61029Y120472D01*
X60570Y120362D01*
X60134Y120181D01*
X59731Y119935D01*
X59372Y119628D01*
X59065Y119269D01*
X58996Y119156D01*
Y142921D01*
X59348Y142347D01*
X59808Y141808D01*
X60347Y141348D01*
X60951Y140978D01*
X61605Y140707D01*
X62294Y140542D01*
X63000Y140486D01*
X63706Y140542D01*
X64395Y140707D01*
X65049Y140978D01*
X65653Y141348D01*
X66192Y141808D01*
X66496Y142165D01*
Y109461D01*
X66282Y109277D01*
X66098Y109062D01*
X65949Y108820D01*
X65841Y108558D01*
X65775Y108283D01*
X65752Y108000D01*
X65775Y107717D01*
X65841Y107442D01*
X65949Y107180D01*
X66098Y106938D01*
X66282Y106723D01*
X66496Y106539D01*
Y101461D01*
X66282Y101277D01*
X66098Y101062D01*
X65949Y100820D01*
X65841Y100558D01*
X65775Y100283D01*
X65752Y100000D01*
X65775Y99717D01*
X65841Y99442D01*
X65949Y99180D01*
X66098Y98938D01*
X66282Y98723D01*
X66496Y98539D01*
Y63407D01*
X66123Y63378D01*
X65756Y63290D01*
X65407Y63145D01*
X65085Y62948D01*
X64798Y62702D01*
X64552Y62415D01*
X64355Y62093D01*
X64210Y61744D01*
X64122Y61377D01*
X64093Y61000D01*
X64122Y60623D01*
X64210Y60256D01*
X64355Y59907D01*
X64552Y59585D01*
X64798Y59298D01*
X65085Y59052D01*
X65407Y58855D01*
X65756Y58710D01*
X66123Y58622D01*
X66496Y58593D01*
Y13835D01*
G37*
G36*
Y4000D02*X58996D01*
Y8921D01*
X59348Y8347D01*
X59808Y7808D01*
X60347Y7348D01*
X60951Y6978D01*
X61605Y6707D01*
X62294Y6542D01*
X63000Y6486D01*
X63706Y6542D01*
X64395Y6707D01*
X65049Y6978D01*
X65653Y7348D01*
X66192Y7808D01*
X66496Y8165D01*
Y4000D01*
G37*
G36*
X56613Y84739D02*X56622Y84623D01*
X56710Y84256D01*
X56855Y83907D01*
X57052Y83585D01*
X57298Y83298D01*
X57585Y83052D01*
X57907Y82855D01*
X58256Y82710D01*
X58623Y82622D01*
X58996Y82593D01*
Y80549D01*
X58826Y80827D01*
X58596Y81096D01*
X58327Y81326D01*
X58025Y81511D01*
X57697Y81646D01*
X57353Y81729D01*
X57000Y81757D01*
X56647Y81729D01*
X56613Y81721D01*
Y84739D01*
G37*
G36*
Y87279D02*X56647Y87271D01*
X57000Y87243D01*
X57353Y87271D01*
X57697Y87354D01*
X58025Y87489D01*
X58327Y87674D01*
X58596Y87904D01*
X58826Y88173D01*
X58996Y88451D01*
Y87407D01*
X58623Y87378D01*
X58256Y87290D01*
X57907Y87145D01*
X57585Y86948D01*
X57298Y86702D01*
X57052Y86415D01*
X56855Y86093D01*
X56710Y85744D01*
X56622Y85377D01*
X56613Y85261D01*
Y87279D01*
G37*
G36*
Y94355D02*X56645Y94407D01*
X56790Y94756D01*
X56878Y95123D01*
X56900Y95500D01*
X56878Y95877D01*
X56790Y96244D01*
X56645Y96593D01*
X56613Y96645D01*
Y142853D01*
X56656Y142860D01*
X56768Y142897D01*
X56873Y142952D01*
X56968Y143022D01*
X57051Y143106D01*
X57119Y143202D01*
X57170Y143308D01*
X57318Y143716D01*
X57422Y144137D01*
X57484Y144567D01*
X57505Y145000D01*
X57484Y145433D01*
X57422Y145863D01*
X57318Y146284D01*
X57175Y146694D01*
X57122Y146800D01*
X57053Y146896D01*
X56970Y146981D01*
X56875Y147051D01*
X56769Y147106D01*
X56657Y147143D01*
X56613Y147151D01*
Y152000D01*
X58996D01*
Y147079D01*
X58978Y147049D01*
X58707Y146395D01*
X58542Y145706D01*
X58486Y145000D01*
X58542Y144294D01*
X58707Y143605D01*
X58978Y142951D01*
X58996Y142921D01*
Y119156D01*
X58819Y118866D01*
X58638Y118430D01*
X58528Y117971D01*
X58491Y117500D01*
X58528Y117029D01*
X58638Y116570D01*
X58819Y116134D01*
X58996Y115844D01*
Y90549D01*
X58826Y90827D01*
X58596Y91096D01*
X58327Y91326D01*
X58025Y91511D01*
X57697Y91646D01*
X57353Y91729D01*
X57000Y91757D01*
X56647Y91729D01*
X56613Y91721D01*
Y94355D01*
G37*
G36*
X58996Y4000D02*X56613D01*
Y8302D01*
X56652Y8347D01*
X57022Y8951D01*
X57293Y9605D01*
X57458Y10294D01*
X57500Y11000D01*
X57458Y11706D01*
X57293Y12395D01*
X57022Y13049D01*
X56652Y13653D01*
X56613Y13698D01*
Y77279D01*
X56647Y77271D01*
X57000Y77243D01*
X57353Y77271D01*
X57697Y77354D01*
X58025Y77489D01*
X58327Y77674D01*
X58596Y77904D01*
X58826Y78173D01*
X58996Y78451D01*
Y13079D01*
X58978Y13049D01*
X58707Y12395D01*
X58542Y11706D01*
X58486Y11000D01*
X58542Y10294D01*
X58707Y9605D01*
X58978Y8951D01*
X58996Y8921D01*
Y4000D01*
G37*
G36*
X56613Y96645D02*X56448Y96915D01*
X56202Y97202D01*
X55915Y97448D01*
X55593Y97645D01*
X55244Y97790D01*
X54877Y97878D01*
X54500Y97907D01*
X54496Y97907D01*
Y140756D01*
X54694Y140825D01*
X54800Y140878D01*
X54896Y140947D01*
X54981Y141030D01*
X55051Y141125D01*
X55106Y141231D01*
X55143Y141343D01*
X55163Y141460D01*
X55164Y141579D01*
X55146Y141696D01*
X55110Y141809D01*
X55057Y141915D01*
X54988Y142012D01*
X54905Y142096D01*
X54809Y142167D01*
X54704Y142221D01*
X54592Y142259D01*
X54496Y142274D01*
Y147729D01*
X54591Y147745D01*
X54703Y147782D01*
X54807Y147836D01*
X54902Y147906D01*
X54985Y147991D01*
X55054Y148087D01*
X55107Y148192D01*
X55143Y148305D01*
X55160Y148421D01*
X55159Y148539D01*
X55140Y148656D01*
X55103Y148768D01*
X55048Y148873D01*
X54978Y148968D01*
X54894Y149051D01*
X54798Y149119D01*
X54692Y149170D01*
X54496Y149241D01*
Y152000D01*
X56613D01*
Y147151D01*
X56540Y147163D01*
X56421Y147164D01*
X56304Y147146D01*
X56191Y147110D01*
X56085Y147057D01*
X55988Y146988D01*
X55904Y146905D01*
X55833Y146809D01*
X55779Y146704D01*
X55741Y146592D01*
X55722Y146475D01*
X55721Y146356D01*
X55739Y146239D01*
X55777Y146126D01*
X55876Y145855D01*
X55944Y145575D01*
X55986Y145289D01*
X56000Y145000D01*
X55986Y144711D01*
X55944Y144425D01*
X55876Y144145D01*
X55780Y143872D01*
X55742Y143761D01*
X55725Y143644D01*
X55725Y143526D01*
X55745Y143409D01*
X55782Y143297D01*
X55836Y143193D01*
X55906Y143098D01*
X55991Y143015D01*
X56087Y142946D01*
X56192Y142893D01*
X56305Y142857D01*
X56421Y142840D01*
X56539Y142841D01*
X56613Y142853D01*
Y96645D01*
G37*
G36*
Y13698D02*X56192Y14192D01*
X55653Y14652D01*
X55049Y15022D01*
X54496Y15251D01*
Y93093D01*
X54500Y93093D01*
X54877Y93122D01*
X55244Y93210D01*
X55593Y93355D01*
X55915Y93552D01*
X56202Y93798D01*
X56448Y94085D01*
X56613Y94355D01*
Y91721D01*
X56303Y91646D01*
X55975Y91511D01*
X55673Y91326D01*
X55404Y91096D01*
X55174Y90827D01*
X54989Y90525D01*
X54854Y90197D01*
X54771Y89853D01*
X54743Y89500D01*
X54771Y89147D01*
X54854Y88803D01*
X54989Y88475D01*
X55174Y88173D01*
X55404Y87904D01*
X55673Y87674D01*
X55975Y87489D01*
X56303Y87354D01*
X56613Y87279D01*
Y85261D01*
X56593Y85000D01*
X56613Y84739D01*
Y81721D01*
X56303Y81646D01*
X55975Y81511D01*
X55673Y81326D01*
X55404Y81096D01*
X55174Y80827D01*
X54989Y80525D01*
X54854Y80197D01*
X54771Y79853D01*
X54743Y79500D01*
X54771Y79147D01*
X54854Y78803D01*
X54989Y78475D01*
X55174Y78173D01*
X55404Y77904D01*
X55673Y77674D01*
X55975Y77489D01*
X56303Y77354D01*
X56613Y77279D01*
Y13698D01*
G37*
G36*
Y4000D02*X54496D01*
Y6749D01*
X55049Y6978D01*
X55653Y7348D01*
X56192Y7808D01*
X56613Y8302D01*
Y4000D01*
G37*
G36*
X51497Y140762D02*X51716Y140682D01*
X52137Y140578D01*
X52567Y140516D01*
X53000Y140495D01*
X53433Y140516D01*
X53863Y140578D01*
X54284Y140682D01*
X54496Y140756D01*
Y97907D01*
X54123Y97878D01*
X53756Y97790D01*
X53407Y97645D01*
X53085Y97448D01*
X52798Y97202D01*
X52552Y96915D01*
X52355Y96593D01*
X52210Y96244D01*
X52122Y95877D01*
X52093Y95500D01*
X52122Y95123D01*
X52210Y94756D01*
X52355Y94407D01*
X52552Y94085D01*
X52798Y93798D01*
X53085Y93552D01*
X53407Y93355D01*
X53756Y93210D01*
X54123Y93122D01*
X54496Y93093D01*
Y15251D01*
X54395Y15293D01*
X53706Y15458D01*
X53000Y15514D01*
X52294Y15458D01*
X51605Y15293D01*
X51497Y15248D01*
Y126743D01*
X51500Y126743D01*
X51853Y126771D01*
X52197Y126854D01*
X52525Y126989D01*
X52827Y127174D01*
X53096Y127404D01*
X53326Y127673D01*
X53511Y127975D01*
X53646Y128303D01*
X53729Y128647D01*
X53750Y129000D01*
X53729Y129353D01*
X53646Y129697D01*
X53511Y130025D01*
X53326Y130327D01*
X53096Y130596D01*
X52827Y130826D01*
X52525Y131011D01*
X52197Y131146D01*
X51853Y131229D01*
X51500Y131257D01*
X51497Y131257D01*
Y140762D01*
G37*
G36*
Y147727D02*X51525Y147722D01*
X51644Y147721D01*
X51761Y147739D01*
X51874Y147777D01*
X52145Y147876D01*
X52425Y147944D01*
X52711Y147986D01*
X53000Y148000D01*
X53289Y147986D01*
X53575Y147944D01*
X53855Y147876D01*
X54128Y147780D01*
X54239Y147742D01*
X54356Y147725D01*
X54474Y147725D01*
X54496Y147729D01*
Y142274D01*
X54475Y142278D01*
X54356Y142279D01*
X54239Y142261D01*
X54126Y142223D01*
X53855Y142124D01*
X53575Y142056D01*
X53289Y142014D01*
X53000Y142000D01*
X52711Y142014D01*
X52425Y142056D01*
X52145Y142124D01*
X51872Y142220D01*
X51761Y142258D01*
X51644Y142275D01*
X51526Y142275D01*
X51497Y142270D01*
Y147727D01*
G37*
G36*
Y152000D02*X54496D01*
Y149241D01*
X54284Y149318D01*
X53863Y149422D01*
X53433Y149484D01*
X53000Y149505D01*
X52567Y149484D01*
X52137Y149422D01*
X51716Y149318D01*
X51497Y149241D01*
Y152000D01*
G37*
G36*
X54496Y4000D02*X51497D01*
Y6752D01*
X51605Y6707D01*
X52294Y6542D01*
X53000Y6486D01*
X53706Y6542D01*
X54395Y6707D01*
X54496Y6749D01*
Y4000D01*
G37*
G36*
X49387Y152000D02*X51497D01*
Y149241D01*
X51306Y149175D01*
X51200Y149122D01*
X51104Y149053D01*
X51019Y148970D01*
X50949Y148875D01*
X50894Y148769D01*
X50857Y148657D01*
X50837Y148540D01*
X50836Y148421D01*
X50854Y148304D01*
X50890Y148191D01*
X50943Y148085D01*
X51012Y147988D01*
X51095Y147904D01*
X51191Y147833D01*
X51296Y147779D01*
X51408Y147741D01*
X51497Y147727D01*
Y142270D01*
X51409Y142255D01*
X51297Y142218D01*
X51193Y142164D01*
X51098Y142094D01*
X51015Y142009D01*
X50946Y141913D01*
X50893Y141808D01*
X50857Y141695D01*
X50840Y141579D01*
X50841Y141461D01*
X50860Y141344D01*
X50897Y141232D01*
X50952Y141127D01*
X51022Y141032D01*
X51106Y140949D01*
X51202Y140881D01*
X51308Y140830D01*
X51497Y140762D01*
Y131257D01*
X51147Y131229D01*
X50803Y131146D01*
X50475Y131011D01*
X50173Y130826D01*
X49904Y130596D01*
X49674Y130327D01*
X49489Y130025D01*
X49387Y129778D01*
Y142849D01*
X49460Y142837D01*
X49579Y142836D01*
X49696Y142854D01*
X49809Y142890D01*
X49915Y142943D01*
X50012Y143012D01*
X50096Y143095D01*
X50167Y143191D01*
X50221Y143296D01*
X50259Y143408D01*
X50278Y143525D01*
X50279Y143644D01*
X50261Y143761D01*
X50223Y143874D01*
X50124Y144145D01*
X50056Y144425D01*
X50014Y144711D01*
X50000Y145000D01*
X50014Y145289D01*
X50056Y145575D01*
X50124Y145855D01*
X50220Y146128D01*
X50258Y146239D01*
X50275Y146356D01*
X50275Y146474D01*
X50255Y146591D01*
X50218Y146703D01*
X50164Y146807D01*
X50094Y146902D01*
X50009Y146985D01*
X49913Y147054D01*
X49808Y147107D01*
X49695Y147143D01*
X49579Y147160D01*
X49461Y147159D01*
X49387Y147147D01*
Y152000D01*
G37*
G36*
Y72035D02*X49415Y72052D01*
X49702Y72298D01*
X49948Y72585D01*
X50145Y72907D01*
X50290Y73256D01*
X50378Y73623D01*
X50400Y74000D01*
X50378Y74377D01*
X50290Y74744D01*
X50145Y75093D01*
X49948Y75415D01*
X49702Y75702D01*
X49415Y75948D01*
X49387Y75965D01*
Y96514D01*
X49448Y96585D01*
X49645Y96907D01*
X49790Y97256D01*
X49878Y97623D01*
X49900Y98000D01*
X49878Y98377D01*
X49790Y98744D01*
X49645Y99093D01*
X49448Y99415D01*
X49387Y99486D01*
Y128222D01*
X49489Y127975D01*
X49674Y127673D01*
X49904Y127404D01*
X50173Y127174D01*
X50475Y126989D01*
X50803Y126854D01*
X51147Y126771D01*
X51497Y126743D01*
Y15248D01*
X50951Y15022D01*
X50347Y14652D01*
X49808Y14192D01*
X49387Y13698D01*
Y72035D01*
G37*
G36*
X51497Y4000D02*X49387D01*
Y8302D01*
X49808Y7808D01*
X50347Y7348D01*
X50951Y6978D01*
X51497Y6752D01*
Y4000D01*
G37*
G36*
X49387Y99486D02*X49202Y99702D01*
X48915Y99948D01*
X48593Y100145D01*
X48244Y100290D01*
X47877Y100378D01*
X47500Y100407D01*
X47123Y100378D01*
X46756Y100290D01*
X46407Y100145D01*
X46085Y99948D01*
X45798Y99702D01*
X45750Y99646D01*
X45746Y99651D01*
Y141428D01*
X46192Y141808D01*
X46652Y142347D01*
X47022Y142951D01*
X47293Y143605D01*
X47458Y144294D01*
X47500Y145000D01*
X47458Y145706D01*
X47293Y146395D01*
X47022Y147049D01*
X46652Y147653D01*
X46192Y148192D01*
X45746Y148572D01*
Y152000D01*
X49387D01*
Y147147D01*
X49344Y147140D01*
X49232Y147103D01*
X49127Y147048D01*
X49032Y146978D01*
X48949Y146894D01*
X48881Y146798D01*
X48830Y146692D01*
X48682Y146284D01*
X48578Y145863D01*
X48516Y145433D01*
X48495Y145000D01*
X48516Y144567D01*
X48578Y144137D01*
X48682Y143716D01*
X48825Y143306D01*
X48878Y143200D01*
X48947Y143104D01*
X49030Y143019D01*
X49125Y142949D01*
X49231Y142894D01*
X49343Y142857D01*
X49387Y142849D01*
Y129778D01*
X49354Y129697D01*
X49271Y129353D01*
X49243Y129000D01*
X49271Y128647D01*
X49354Y128303D01*
X49387Y128222D01*
Y99486D01*
G37*
G36*
Y75965D02*X49093Y76145D01*
X48744Y76290D01*
X48377Y76378D01*
X48000Y76407D01*
X47623Y76378D01*
X47256Y76290D01*
X46907Y76145D01*
X46585Y75948D01*
X46298Y75702D01*
X46052Y75415D01*
X45855Y75093D01*
X45746Y74831D01*
Y96349D01*
X45750Y96354D01*
X45798Y96298D01*
X46085Y96052D01*
X46407Y95855D01*
X46756Y95710D01*
X47123Y95622D01*
X47500Y95593D01*
X47877Y95622D01*
X48244Y95710D01*
X48593Y95855D01*
X48915Y96052D01*
X49202Y96298D01*
X49387Y96514D01*
Y75965D01*
G37*
G36*
Y4000D02*X45746D01*
Y6513D01*
X46235Y6514D01*
X46465Y6569D01*
X46683Y6659D01*
X46884Y6783D01*
X47064Y6936D01*
X47217Y7116D01*
X47341Y7317D01*
X47431Y7535D01*
X47486Y7765D01*
X47500Y8000D01*
X47486Y14235D01*
X47431Y14465D01*
X47341Y14683D01*
X47217Y14884D01*
X47064Y15064D01*
X46884Y15217D01*
X46683Y15341D01*
X46465Y15431D01*
X46235Y15486D01*
X46000Y15500D01*
X45746Y15499D01*
Y73169D01*
X45855Y72907D01*
X46052Y72585D01*
X46298Y72298D01*
X46585Y72052D01*
X46907Y71855D01*
X47256Y71710D01*
X47623Y71622D01*
X48000Y71593D01*
X48377Y71622D01*
X48744Y71710D01*
X49093Y71855D01*
X49387Y72035D01*
Y13698D01*
X49348Y13653D01*
X48978Y13049D01*
X48707Y12395D01*
X48542Y11706D01*
X48486Y11000D01*
X48542Y10294D01*
X48707Y9605D01*
X48978Y8951D01*
X49348Y8347D01*
X49387Y8302D01*
Y4000D01*
G37*
G36*
X45746D02*X35496D01*
Y76093D01*
X35500Y76093D01*
X35877Y76122D01*
X36244Y76210D01*
X36593Y76355D01*
X36915Y76552D01*
X37202Y76798D01*
X37448Y77085D01*
X37645Y77407D01*
X37790Y77756D01*
X37878Y78123D01*
X37900Y78500D01*
X37878Y78877D01*
X37790Y79244D01*
X37645Y79593D01*
X37448Y79915D01*
X37202Y80202D01*
X36915Y80448D01*
X36593Y80645D01*
X36244Y80790D01*
X35877Y80878D01*
X35500Y80907D01*
X35496Y80907D01*
Y141252D01*
X35653Y141348D01*
X36192Y141808D01*
X36652Y142347D01*
X37022Y142951D01*
X37293Y143605D01*
X37458Y144294D01*
X37500Y145000D01*
X37458Y145706D01*
X37293Y146395D01*
X37022Y147049D01*
X36652Y147653D01*
X36192Y148192D01*
X35653Y148652D01*
X35496Y148748D01*
Y152000D01*
X45746D01*
Y148572D01*
X45653Y148652D01*
X45049Y149022D01*
X44395Y149293D01*
X43706Y149458D01*
X43000Y149514D01*
X42294Y149458D01*
X41605Y149293D01*
X40951Y149022D01*
X40347Y148652D01*
X39808Y148192D01*
X39348Y147653D01*
X38978Y147049D01*
X38707Y146395D01*
X38542Y145706D01*
X38486Y145000D01*
X38542Y144294D01*
X38707Y143605D01*
X38978Y142951D01*
X39348Y142347D01*
X39808Y141808D01*
X40347Y141348D01*
X40951Y140978D01*
X41605Y140707D01*
X42294Y140542D01*
X43000Y140486D01*
X43706Y140542D01*
X44395Y140707D01*
X45049Y140978D01*
X45653Y141348D01*
X45746Y141428D01*
Y99651D01*
X45702Y99702D01*
X45415Y99948D01*
X45093Y100145D01*
X44744Y100290D01*
X44377Y100378D01*
X44000Y100407D01*
X43623Y100378D01*
X43256Y100290D01*
X42907Y100145D01*
X42585Y99948D01*
X42298Y99702D01*
X42052Y99415D01*
X41855Y99093D01*
X41710Y98744D01*
X41622Y98377D01*
X41593Y98000D01*
X41622Y97623D01*
X41710Y97256D01*
X41855Y96907D01*
X42052Y96585D01*
X42298Y96298D01*
X42585Y96052D01*
X42907Y95855D01*
X43256Y95710D01*
X43623Y95622D01*
X44000Y95593D01*
X44377Y95622D01*
X44744Y95710D01*
X45093Y95855D01*
X45415Y96052D01*
X45702Y96298D01*
X45746Y96349D01*
Y74831D01*
X45710Y74744D01*
X45622Y74377D01*
X45593Y74000D01*
X45622Y73623D01*
X45710Y73256D01*
X45746Y73169D01*
Y15499D01*
X39765Y15486D01*
X39535Y15431D01*
X39317Y15341D01*
X39116Y15217D01*
X38936Y15064D01*
X38783Y14884D01*
X38659Y14683D01*
X38569Y14465D01*
X38514Y14235D01*
X38500Y14000D01*
X38514Y7765D01*
X38569Y7535D01*
X38659Y7317D01*
X38783Y7116D01*
X38936Y6936D01*
X39116Y6783D01*
X39317Y6659D01*
X39535Y6569D01*
X39765Y6514D01*
X40000Y6500D01*
X45746Y6513D01*
Y4000D01*
G37*
G36*
X35496Y148748D02*X35049Y149022D01*
X34395Y149293D01*
X33706Y149458D01*
X33000Y149514D01*
X32294Y149458D01*
X31605Y149293D01*
X30951Y149022D01*
X30347Y148652D01*
X30195Y148522D01*
Y152000D01*
X35496D01*
Y148748D01*
G37*
G36*
Y4000D02*X30195D01*
Y4640D01*
X30524Y5176D01*
X30963Y6237D01*
X31232Y7355D01*
X31299Y8500D01*
X31232Y9645D01*
X30963Y10763D01*
X30524Y11824D01*
X30195Y12360D01*
Y79608D01*
X30529Y79528D01*
X31000Y79491D01*
X31471Y79528D01*
X31930Y79638D01*
X32366Y79819D01*
X32769Y80065D01*
X33128Y80372D01*
X33435Y80731D01*
X33681Y81134D01*
X33862Y81570D01*
X33972Y82029D01*
X34000Y82500D01*
X33972Y82971D01*
X33862Y83430D01*
X33681Y83866D01*
X33435Y84269D01*
X33128Y84628D01*
X32769Y84935D01*
X32366Y85181D01*
X31930Y85362D01*
X31471Y85472D01*
X31000Y85509D01*
X30529Y85472D01*
X30195Y85392D01*
Y88608D01*
X30377Y88622D01*
X30744Y88710D01*
X31093Y88855D01*
X31415Y89052D01*
X31702Y89298D01*
X31948Y89585D01*
X32145Y89907D01*
X32290Y90256D01*
X32378Y90623D01*
X32400Y91000D01*
X32378Y91377D01*
X32320Y91618D01*
X32377Y91622D01*
X32744Y91710D01*
X33093Y91855D01*
X33415Y92052D01*
X33702Y92298D01*
X33948Y92585D01*
X34145Y92907D01*
X34290Y93256D01*
X34378Y93623D01*
X34400Y94000D01*
X34378Y94377D01*
X34290Y94744D01*
X34145Y95093D01*
X33948Y95415D01*
X33702Y95702D01*
X33415Y95948D01*
X33093Y96145D01*
X32744Y96290D01*
X32377Y96378D01*
X32000Y96407D01*
X31788Y96391D01*
X31862Y96570D01*
X31972Y97029D01*
X32000Y97500D01*
X31972Y97971D01*
X31862Y98430D01*
X31681Y98866D01*
X31435Y99269D01*
X31128Y99628D01*
X30769Y99935D01*
X30366Y100181D01*
X30195Y100252D01*
Y141478D01*
X30347Y141348D01*
X30951Y140978D01*
X31605Y140707D01*
X32294Y140542D01*
X33000Y140486D01*
X33706Y140542D01*
X34395Y140707D01*
X35049Y140978D01*
X35496Y141252D01*
Y80907D01*
X35123Y80878D01*
X34756Y80790D01*
X34407Y80645D01*
X34085Y80448D01*
X33798Y80202D01*
X33552Y79915D01*
X33355Y79593D01*
X33210Y79244D01*
X33122Y78877D01*
X33093Y78500D01*
X33122Y78123D01*
X33210Y77756D01*
X33355Y77407D01*
X33552Y77085D01*
X33798Y76798D01*
X34085Y76552D01*
X34407Y76355D01*
X34756Y76210D01*
X35123Y76122D01*
X35496Y76093D01*
Y4000D01*
G37*
G36*
X30195Y12360D02*X29923Y12804D01*
X29177Y13677D01*
X28304Y14423D01*
X27324Y15024D01*
X26263Y15463D01*
X25145Y15732D01*
X24409Y15790D01*
Y63569D01*
X24437Y63573D01*
X24512Y63598D01*
X24582Y63634D01*
X24645Y63681D01*
X24700Y63737D01*
X24746Y63801D01*
X24780Y63872D01*
X24879Y64144D01*
X24948Y64425D01*
X24990Y64711D01*
X25003Y65000D01*
X24990Y65289D01*
X24948Y65575D01*
X24879Y65856D01*
X24783Y66129D01*
X24748Y66200D01*
X24702Y66264D01*
X24647Y66321D01*
X24583Y66368D01*
X24513Y66404D01*
X24438Y66429D01*
X24409Y66434D01*
Y140713D01*
X25049Y140978D01*
X25653Y141348D01*
X26192Y141808D01*
X26652Y142347D01*
X27022Y142951D01*
X27293Y143605D01*
X27458Y144294D01*
X27500Y145000D01*
X27458Y145706D01*
X27293Y146395D01*
X27022Y147049D01*
X26652Y147653D01*
X26192Y148192D01*
X25653Y148652D01*
X25049Y149022D01*
X24409Y149287D01*
Y152000D01*
X30195D01*
Y148522D01*
X29808Y148192D01*
X29348Y147653D01*
X28978Y147049D01*
X28707Y146395D01*
X28542Y145706D01*
X28486Y145000D01*
X28542Y144294D01*
X28707Y143605D01*
X28978Y142951D01*
X29348Y142347D01*
X29808Y141808D01*
X30195Y141478D01*
Y100252D01*
X29930Y100362D01*
X29471Y100472D01*
X29000Y100509D01*
X28529Y100472D01*
X28070Y100362D01*
X27634Y100181D01*
X27231Y99935D01*
X26872Y99628D01*
X26565Y99269D01*
X26319Y98866D01*
X26138Y98430D01*
X26028Y97971D01*
X25991Y97500D01*
X26028Y97029D01*
X26138Y96570D01*
X26319Y96134D01*
X26565Y95731D01*
X26872Y95372D01*
X27231Y95065D01*
X27634Y94819D01*
X28070Y94638D01*
X28529Y94528D01*
X29000Y94491D01*
X29471Y94528D01*
X29670Y94576D01*
X29622Y94377D01*
X29593Y94000D01*
X29622Y93623D01*
X29680Y93382D01*
X29623Y93378D01*
X29256Y93290D01*
X28907Y93145D01*
X28585Y92948D01*
X28298Y92702D01*
X28052Y92415D01*
X27855Y92093D01*
X27710Y91744D01*
X27622Y91377D01*
X27593Y91000D01*
X27622Y90623D01*
X27710Y90256D01*
X27855Y89907D01*
X28052Y89585D01*
X28298Y89298D01*
X28585Y89052D01*
X28907Y88855D01*
X29256Y88710D01*
X29623Y88622D01*
X30000Y88593D01*
X30195Y88608D01*
Y85392D01*
X30070Y85362D01*
X29634Y85181D01*
X29231Y84935D01*
X28872Y84628D01*
X28565Y84269D01*
X28319Y83866D01*
X28138Y83430D01*
X28028Y82971D01*
X27991Y82500D01*
X28028Y82029D01*
X28138Y81570D01*
X28319Y81134D01*
X28565Y80731D01*
X28872Y80372D01*
X29231Y80065D01*
X29634Y79819D01*
X30070Y79638D01*
X30195Y79608D01*
Y12360D01*
G37*
G36*
X24409Y149287D02*X24395Y149293D01*
X23706Y149458D01*
X23000Y149514D01*
X22409Y149467D01*
Y152000D01*
X24409D01*
Y149287D01*
G37*
G36*
Y15790D02*X24000Y15822D01*
X22855Y15732D01*
X22409Y15625D01*
Y24069D01*
X22437Y24073D01*
X22512Y24098D01*
X22582Y24134D01*
X22645Y24181D01*
X22700Y24237D01*
X22746Y24301D01*
X22780Y24372D01*
X22879Y24644D01*
X22948Y24925D01*
X22990Y25211D01*
X23003Y25500D01*
X22990Y25789D01*
X22948Y26075D01*
X22879Y26356D01*
X22783Y26629D01*
X22748Y26700D01*
X22702Y26764D01*
X22647Y26821D01*
X22583Y26868D01*
X22513Y26904D01*
X22438Y26929D01*
X22409Y26934D01*
Y62028D01*
X22575Y62052D01*
X22856Y62121D01*
X23129Y62217D01*
X23200Y62252D01*
X23264Y62298D01*
X23321Y62353D01*
X23368Y62417D01*
X23404Y62487D01*
X23429Y62562D01*
X23442Y62640D01*
X23442Y62719D01*
X23431Y62797D01*
X23407Y62873D01*
X23371Y62944D01*
X23325Y63008D01*
X23270Y63064D01*
X23206Y63111D01*
X23136Y63147D01*
X23061Y63172D01*
X22983Y63185D01*
X22904Y63186D01*
X22826Y63174D01*
X22751Y63149D01*
X22570Y63083D01*
X22409Y63043D01*
Y66957D01*
X22570Y66917D01*
X22752Y66853D01*
X22826Y66828D01*
X22904Y66816D01*
X22983Y66817D01*
X23060Y66830D01*
X23135Y66855D01*
X23205Y66891D01*
X23268Y66938D01*
X23324Y66994D01*
X23369Y67058D01*
X23405Y67128D01*
X23428Y67203D01*
X23440Y67281D01*
X23440Y67360D01*
X23427Y67437D01*
X23402Y67512D01*
X23366Y67582D01*
X23319Y67645D01*
X23263Y67700D01*
X23199Y67746D01*
X23128Y67780D01*
X22856Y67879D01*
X22575Y67948D01*
X22409Y67972D01*
Y140533D01*
X23000Y140486D01*
X23706Y140542D01*
X24395Y140707D01*
X24409Y140713D01*
Y66434D01*
X24360Y66442D01*
X24281Y66442D01*
X24203Y66431D01*
X24127Y66407D01*
X24056Y66371D01*
X23992Y66325D01*
X23936Y66270D01*
X23889Y66206D01*
X23853Y66136D01*
X23828Y66061D01*
X23815Y65983D01*
X23814Y65904D01*
X23826Y65826D01*
X23851Y65751D01*
X23917Y65570D01*
X23963Y65383D01*
X23991Y65192D01*
X24000Y65000D01*
X23991Y64808D01*
X23963Y64617D01*
X23917Y64430D01*
X23853Y64248D01*
X23828Y64174D01*
X23816Y64096D01*
X23817Y64017D01*
X23830Y63940D01*
X23855Y63865D01*
X23891Y63795D01*
X23938Y63732D01*
X23994Y63676D01*
X24058Y63631D01*
X24128Y63595D01*
X24203Y63572D01*
X24281Y63560D01*
X24360Y63560D01*
X24409Y63569D01*
Y15790D01*
G37*
G36*
X30195Y4000D02*X29756D01*
X29923Y4196D01*
X30195Y4640D01*
Y4000D01*
G37*
G36*
X22409Y149467D02*X22294Y149458D01*
X21605Y149293D01*
X20951Y149022D01*
X20347Y148652D01*
X20001Y148357D01*
Y152000D01*
X22409D01*
Y149467D01*
G37*
G36*
Y15625D02*X21737Y15463D01*
X20676Y15024D01*
X20001Y14610D01*
Y22497D01*
X20289Y22510D01*
X20575Y22552D01*
X20856Y22621D01*
X21129Y22717D01*
X21200Y22752D01*
X21264Y22798D01*
X21321Y22853D01*
X21368Y22917D01*
X21404Y22987D01*
X21429Y23062D01*
X21442Y23140D01*
X21442Y23219D01*
X21431Y23297D01*
X21407Y23373D01*
X21371Y23444D01*
X21325Y23508D01*
X21270Y23564D01*
X21206Y23611D01*
X21136Y23647D01*
X21061Y23672D01*
X20983Y23685D01*
X20904Y23686D01*
X20826Y23674D01*
X20751Y23649D01*
X20570Y23583D01*
X20383Y23537D01*
X20192Y23509D01*
X20001Y23500D01*
Y27500D01*
X20192Y27491D01*
X20383Y27463D01*
X20570Y27417D01*
X20752Y27353D01*
X20826Y27328D01*
X20904Y27316D01*
X20983Y27317D01*
X21060Y27330D01*
X21135Y27355D01*
X21205Y27391D01*
X21268Y27438D01*
X21324Y27494D01*
X21369Y27558D01*
X21405Y27628D01*
X21428Y27703D01*
X21440Y27781D01*
X21440Y27860D01*
X21427Y27937D01*
X21402Y28012D01*
X21366Y28082D01*
X21319Y28145D01*
X21263Y28200D01*
X21199Y28246D01*
X21128Y28280D01*
X20856Y28379D01*
X20575Y28448D01*
X20289Y28490D01*
X20001Y28503D01*
Y63670D01*
X20008Y63675D01*
X20064Y63730D01*
X20111Y63794D01*
X20147Y63864D01*
X20172Y63939D01*
X20185Y64017D01*
X20186Y64096D01*
X20174Y64174D01*
X20149Y64249D01*
X20083Y64430D01*
X20037Y64617D01*
X20009Y64808D01*
X20001Y64976D01*
Y65024D01*
X20009Y65192D01*
X20037Y65383D01*
X20083Y65570D01*
X20147Y65752D01*
X20172Y65826D01*
X20184Y65904D01*
X20183Y65983D01*
X20170Y66060D01*
X20145Y66135D01*
X20109Y66205D01*
X20062Y66268D01*
X20006Y66324D01*
X20001Y66327D01*
Y78980D01*
X20206Y79065D01*
X20670Y79349D01*
X21085Y79703D01*
X21438Y80117D01*
X21723Y80582D01*
X21931Y81085D01*
X22058Y81614D01*
X22091Y82157D01*
X22058Y82701D01*
X21931Y83230D01*
X21723Y83733D01*
X21438Y84198D01*
X21085Y84612D01*
X20670Y84966D01*
X20206Y85250D01*
X20001Y85335D01*
Y98665D01*
X20206Y98750D01*
X20670Y99034D01*
X21085Y99388D01*
X21438Y99802D01*
X21723Y100267D01*
X21931Y100770D01*
X22058Y101299D01*
X22091Y101843D01*
X22058Y102386D01*
X21931Y102915D01*
X21723Y103418D01*
X21438Y103883D01*
X21085Y104297D01*
X20670Y104651D01*
X20206Y104935D01*
X20001Y105020D01*
Y141643D01*
X20347Y141348D01*
X20951Y140978D01*
X21605Y140707D01*
X22294Y140542D01*
X22409Y140533D01*
Y67972D01*
X22289Y67990D01*
X22000Y68003D01*
X21711Y67990D01*
X21425Y67948D01*
X21144Y67879D01*
X20871Y67783D01*
X20800Y67748D01*
X20736Y67702D01*
X20679Y67647D01*
X20632Y67583D01*
X20596Y67513D01*
X20571Y67438D01*
X20558Y67360D01*
X20558Y67281D01*
X20569Y67203D01*
X20593Y67127D01*
X20629Y67056D01*
X20675Y66992D01*
X20730Y66936D01*
X20794Y66889D01*
X20864Y66853D01*
X20939Y66828D01*
X21017Y66815D01*
X21096Y66814D01*
X21174Y66826D01*
X21249Y66851D01*
X21430Y66917D01*
X21617Y66963D01*
X21808Y66991D01*
X22000Y67000D01*
X22192Y66991D01*
X22383Y66963D01*
X22409Y66957D01*
Y63043D01*
X22383Y63037D01*
X22192Y63009D01*
X22000Y63000D01*
X21808Y63009D01*
X21617Y63037D01*
X21430Y63083D01*
X21248Y63147D01*
X21174Y63172D01*
X21096Y63184D01*
X21017Y63183D01*
X20940Y63170D01*
X20865Y63145D01*
X20795Y63109D01*
X20732Y63062D01*
X20676Y63006D01*
X20631Y62942D01*
X20595Y62872D01*
X20572Y62797D01*
X20560Y62719D01*
X20560Y62640D01*
X20573Y62563D01*
X20598Y62488D01*
X20634Y62418D01*
X20681Y62355D01*
X20737Y62300D01*
X20801Y62254D01*
X20872Y62220D01*
X21144Y62121D01*
X21425Y62052D01*
X21711Y62010D01*
X22000Y61997D01*
X22289Y62010D01*
X22409Y62028D01*
Y26934D01*
X22360Y26942D01*
X22281Y26942D01*
X22203Y26931D01*
X22127Y26907D01*
X22056Y26871D01*
X21992Y26825D01*
X21936Y26770D01*
X21889Y26706D01*
X21853Y26636D01*
X21828Y26561D01*
X21815Y26483D01*
X21814Y26404D01*
X21826Y26326D01*
X21851Y26251D01*
X21917Y26070D01*
X21963Y25883D01*
X21991Y25692D01*
X22000Y25500D01*
X21991Y25308D01*
X21963Y25117D01*
X21917Y24930D01*
X21853Y24748D01*
X21828Y24674D01*
X21816Y24596D01*
X21817Y24517D01*
X21830Y24440D01*
X21855Y24365D01*
X21891Y24295D01*
X21938Y24232D01*
X21994Y24176D01*
X22058Y24131D01*
X22128Y24095D01*
X22203Y24072D01*
X22281Y24060D01*
X22360Y24060D01*
X22409Y24069D01*
Y15625D01*
G37*
G36*
X20001Y64976D02*X20000Y65000D01*
X20001Y65024D01*
Y64976D01*
G37*
G36*
X17591Y98533D02*X18087Y98414D01*
X18630Y98371D01*
X19173Y98414D01*
X19703Y98541D01*
X20001Y98665D01*
Y85335D01*
X19703Y85459D01*
X19173Y85586D01*
X18630Y85629D01*
X18087Y85586D01*
X17591Y85467D01*
Y98533D01*
G37*
G36*
Y152000D02*X20001D01*
Y148357D01*
X19808Y148192D01*
X19348Y147653D01*
X18978Y147049D01*
X18707Y146395D01*
X18542Y145706D01*
X18486Y145000D01*
X18542Y144294D01*
X18707Y143605D01*
X18978Y142951D01*
X19348Y142347D01*
X19808Y141808D01*
X20001Y141643D01*
Y105020D01*
X19703Y105144D01*
X19173Y105271D01*
X18630Y105314D01*
X18087Y105271D01*
X17591Y105152D01*
Y152000D01*
G37*
G36*
Y4988D02*X18077Y4196D01*
X18244Y4000D01*
X17591D01*
Y4988D01*
G37*
G36*
X20001Y14610D02*X19696Y14423D01*
X18823Y13677D01*
X18077Y12804D01*
X17591Y12012D01*
Y24066D01*
X17640Y24058D01*
X17719Y24058D01*
X17797Y24069D01*
X17873Y24093D01*
X17944Y24129D01*
X18008Y24175D01*
X18064Y24230D01*
X18111Y24294D01*
X18147Y24364D01*
X18172Y24439D01*
X18185Y24517D01*
X18186Y24596D01*
X18174Y24674D01*
X18149Y24749D01*
X18083Y24930D01*
X18037Y25117D01*
X18009Y25308D01*
X18000Y25500D01*
X18009Y25692D01*
X18037Y25883D01*
X18083Y26070D01*
X18147Y26252D01*
X18172Y26326D01*
X18184Y26404D01*
X18183Y26483D01*
X18170Y26560D01*
X18145Y26635D01*
X18109Y26705D01*
X18062Y26768D01*
X18006Y26824D01*
X17942Y26869D01*
X17872Y26905D01*
X17797Y26928D01*
X17719Y26940D01*
X17640Y26940D01*
X17591Y26931D01*
Y78848D01*
X18087Y78729D01*
X18630Y78686D01*
X19173Y78729D01*
X19703Y78856D01*
X20001Y78980D01*
Y66327D01*
X19942Y66369D01*
X19872Y66405D01*
X19797Y66428D01*
X19719Y66440D01*
X19640Y66440D01*
X19563Y66427D01*
X19488Y66402D01*
X19418Y66366D01*
X19355Y66319D01*
X19300Y66263D01*
X19254Y66199D01*
X19220Y66128D01*
X19121Y65856D01*
X19052Y65575D01*
X19010Y65289D01*
X18997Y65000D01*
X19010Y64711D01*
X19052Y64425D01*
X19121Y64144D01*
X19217Y63871D01*
X19252Y63800D01*
X19298Y63736D01*
X19353Y63679D01*
X19417Y63632D01*
X19487Y63596D01*
X19562Y63571D01*
X19640Y63558D01*
X19719Y63558D01*
X19797Y63569D01*
X19873Y63593D01*
X19944Y63629D01*
X20001Y63670D01*
Y28503D01*
X20000Y28503D01*
X19711Y28490D01*
X19425Y28448D01*
X19144Y28379D01*
X18871Y28283D01*
X18800Y28248D01*
X18736Y28202D01*
X18679Y28147D01*
X18632Y28083D01*
X18596Y28013D01*
X18571Y27938D01*
X18558Y27860D01*
X18558Y27781D01*
X18569Y27703D01*
X18593Y27627D01*
X18629Y27556D01*
X18675Y27492D01*
X18730Y27436D01*
X18794Y27389D01*
X18864Y27353D01*
X18939Y27328D01*
X19017Y27315D01*
X19096Y27314D01*
X19174Y27326D01*
X19249Y27351D01*
X19430Y27417D01*
X19617Y27463D01*
X19808Y27491D01*
X20000Y27500D01*
X20001Y27500D01*
Y23500D01*
X20000Y23500D01*
X19808Y23509D01*
X19617Y23537D01*
X19430Y23583D01*
X19248Y23647D01*
X19174Y23672D01*
X19096Y23684D01*
X19017Y23683D01*
X18940Y23670D01*
X18865Y23645D01*
X18795Y23609D01*
X18732Y23562D01*
X18676Y23506D01*
X18631Y23442D01*
X18595Y23372D01*
X18572Y23297D01*
X18560Y23219D01*
X18560Y23140D01*
X18573Y23063D01*
X18598Y22988D01*
X18634Y22918D01*
X18681Y22855D01*
X18737Y22800D01*
X18801Y22754D01*
X18872Y22720D01*
X19144Y22621D01*
X19425Y22552D01*
X19711Y22510D01*
X20000Y22497D01*
X20001Y22497D01*
Y14610D01*
G37*
G36*
X17591Y12012D02*X17476Y11824D01*
X17037Y10763D01*
X16768Y9645D01*
X16678Y8500D01*
X16768Y7355D01*
X17037Y6237D01*
X17476Y5176D01*
X17591Y4988D01*
Y4000D01*
X10993D01*
Y6487D01*
X11000Y6486D01*
X11706Y6542D01*
X12395Y6707D01*
X13049Y6978D01*
X13653Y7348D01*
X14192Y7808D01*
X14652Y8347D01*
X15022Y8951D01*
X15293Y9605D01*
X15458Y10294D01*
X15500Y11000D01*
X15458Y11706D01*
X15293Y12395D01*
X15022Y13049D01*
X14652Y13653D01*
X14192Y14192D01*
X13653Y14652D01*
X13049Y15022D01*
X12395Y15293D01*
X11706Y15458D01*
X11000Y15514D01*
X10993Y15513D01*
Y16487D01*
X11000Y16486D01*
X11706Y16542D01*
X12395Y16707D01*
X13049Y16978D01*
X13653Y17348D01*
X14192Y17808D01*
X14652Y18347D01*
X15022Y18951D01*
X15293Y19605D01*
X15458Y20294D01*
X15500Y21000D01*
X15458Y21706D01*
X15293Y22395D01*
X15022Y23049D01*
X14652Y23653D01*
X14192Y24192D01*
X13653Y24652D01*
X13049Y25022D01*
X12395Y25293D01*
X11706Y25458D01*
X11000Y25514D01*
X10993Y25513D01*
Y26487D01*
X11000Y26486D01*
X11706Y26542D01*
X12395Y26707D01*
X13049Y26978D01*
X13653Y27348D01*
X14192Y27808D01*
X14652Y28347D01*
X15022Y28951D01*
X15293Y29605D01*
X15458Y30294D01*
X15500Y31000D01*
X15458Y31706D01*
X15293Y32395D01*
X15022Y33049D01*
X14652Y33653D01*
X14192Y34192D01*
X13653Y34652D01*
X13049Y35022D01*
X12395Y35293D01*
X11706Y35458D01*
X11000Y35514D01*
X10993Y35513D01*
Y36487D01*
X11000Y36486D01*
X11706Y36542D01*
X12395Y36707D01*
X13049Y36978D01*
X13653Y37348D01*
X14192Y37808D01*
X14652Y38347D01*
X15022Y38951D01*
X15293Y39605D01*
X15458Y40294D01*
X15500Y41000D01*
X15458Y41706D01*
X15293Y42395D01*
X15022Y43049D01*
X14652Y43653D01*
X14192Y44192D01*
X13653Y44652D01*
X13049Y45022D01*
X12395Y45293D01*
X11706Y45458D01*
X11000Y45514D01*
X10993Y45513D01*
Y46487D01*
X11000Y46486D01*
X11706Y46542D01*
X12395Y46707D01*
X13049Y46978D01*
X13653Y47348D01*
X14192Y47808D01*
X14652Y48347D01*
X15022Y48951D01*
X15293Y49605D01*
X15458Y50294D01*
X15500Y51000D01*
X15458Y51706D01*
X15293Y52395D01*
X15022Y53049D01*
X14652Y53653D01*
X14192Y54192D01*
X13653Y54652D01*
X13049Y55022D01*
X12395Y55293D01*
X11706Y55458D01*
X11000Y55514D01*
X10993Y55513D01*
Y56507D01*
X14235Y56514D01*
X14465Y56569D01*
X14683Y56659D01*
X14884Y56783D01*
X15064Y56936D01*
X15217Y57116D01*
X15341Y57317D01*
X15431Y57535D01*
X15486Y57765D01*
X15500Y58000D01*
X15486Y64235D01*
X15431Y64465D01*
X15341Y64683D01*
X15217Y64884D01*
X15064Y65064D01*
X14884Y65217D01*
X14683Y65341D01*
X14465Y65431D01*
X14235Y65486D01*
X14000Y65500D01*
X10993Y65493D01*
Y75487D01*
X11288Y75832D01*
X11621Y76376D01*
X11865Y76965D01*
X12014Y77585D01*
X12051Y78220D01*
X12014Y78856D01*
X11865Y79476D01*
X11621Y80065D01*
X11288Y80609D01*
X10993Y80954D01*
Y103046D01*
X11288Y103391D01*
X11621Y103935D01*
X11865Y104524D01*
X12014Y105144D01*
X12051Y105780D01*
X12014Y106415D01*
X11865Y107035D01*
X11621Y107624D01*
X11288Y108168D01*
X10993Y108513D01*
Y118487D01*
X11000Y118486D01*
X11706Y118542D01*
X12395Y118707D01*
X13049Y118978D01*
X13653Y119348D01*
X14192Y119808D01*
X14652Y120347D01*
X15022Y120951D01*
X15293Y121605D01*
X15458Y122294D01*
X15500Y123000D01*
X15458Y123706D01*
X15293Y124395D01*
X15022Y125049D01*
X14652Y125653D01*
X14192Y126192D01*
X13653Y126652D01*
X13049Y127022D01*
X12395Y127293D01*
X11706Y127458D01*
X11000Y127514D01*
X10993Y127513D01*
Y128507D01*
X14235Y128514D01*
X14465Y128569D01*
X14683Y128659D01*
X14884Y128783D01*
X15064Y128936D01*
X15217Y129116D01*
X15341Y129317D01*
X15431Y129535D01*
X15486Y129765D01*
X15500Y130000D01*
X15486Y136235D01*
X15431Y136465D01*
X15341Y136683D01*
X15217Y136884D01*
X15064Y137064D01*
X14884Y137217D01*
X14683Y137341D01*
X14465Y137431D01*
X14235Y137486D01*
X14000Y137500D01*
X10993Y137493D01*
Y140632D01*
X11824Y140976D01*
X12804Y141577D01*
X13677Y142323D01*
X14423Y143196D01*
X15024Y144176D01*
X15463Y145237D01*
X15732Y146355D01*
X15799Y147500D01*
X15732Y148645D01*
X15463Y149763D01*
X15024Y150824D01*
X14423Y151804D01*
X14256Y152000D01*
X17591D01*
Y105152D01*
X17557Y105144D01*
X17054Y104935D01*
X16590Y104651D01*
X16175Y104297D01*
X15822Y103883D01*
X15537Y103418D01*
X15329Y102915D01*
X15201Y102386D01*
X15159Y101843D01*
X15201Y101299D01*
X15329Y100770D01*
X15537Y100267D01*
X15822Y99802D01*
X16175Y99388D01*
X16590Y99034D01*
X17054Y98750D01*
X17557Y98541D01*
X17591Y98533D01*
Y85467D01*
X17557Y85459D01*
X17054Y85250D01*
X16590Y84966D01*
X16175Y84612D01*
X15822Y84198D01*
X15537Y83733D01*
X15329Y83230D01*
X15201Y82701D01*
X15159Y82157D01*
X15201Y81614D01*
X15329Y81085D01*
X15537Y80582D01*
X15822Y80117D01*
X16175Y79703D01*
X16590Y79349D01*
X17054Y79065D01*
X17557Y78856D01*
X17591Y78848D01*
Y26931D01*
X17563Y26927D01*
X17488Y26902D01*
X17418Y26866D01*
X17355Y26819D01*
X17300Y26763D01*
X17254Y26699D01*
X17220Y26628D01*
X17121Y26356D01*
X17052Y26075D01*
X17010Y25789D01*
X16997Y25500D01*
X17010Y25211D01*
X17052Y24925D01*
X17121Y24644D01*
X17217Y24371D01*
X17252Y24300D01*
X17298Y24236D01*
X17353Y24179D01*
X17417Y24132D01*
X17487Y24096D01*
X17562Y24071D01*
X17591Y24066D01*
Y12012D01*
G37*
G36*
X10993Y108513D02*X10873Y108653D01*
X10389Y109067D01*
X9845Y109400D01*
X9256Y109644D01*
X8636Y109793D01*
X8000Y109843D01*
X7364Y109793D01*
X6744Y109644D01*
X6155Y109400D01*
X5611Y109067D01*
X5127Y108653D01*
X4712Y108168D01*
X4379Y107624D01*
X4135Y107035D01*
X4000Y106472D01*
Y141744D01*
X4196Y141577D01*
X5176Y140976D01*
X6237Y140537D01*
X7355Y140268D01*
X8500Y140178D01*
X9645Y140268D01*
X10763Y140537D01*
X10993Y140632D01*
Y137493D01*
X7765Y137486D01*
X7535Y137431D01*
X7317Y137341D01*
X7116Y137217D01*
X6936Y137064D01*
X6783Y136884D01*
X6659Y136683D01*
X6569Y136465D01*
X6514Y136235D01*
X6500Y136000D01*
X6514Y129765D01*
X6569Y129535D01*
X6659Y129317D01*
X6783Y129116D01*
X6936Y128936D01*
X7116Y128783D01*
X7317Y128659D01*
X7535Y128569D01*
X7765Y128514D01*
X8000Y128500D01*
X10993Y128507D01*
Y127513D01*
X10294Y127458D01*
X9605Y127293D01*
X8951Y127022D01*
X8347Y126652D01*
X7808Y126192D01*
X7348Y125653D01*
X6978Y125049D01*
X6707Y124395D01*
X6542Y123706D01*
X6486Y123000D01*
X6542Y122294D01*
X6707Y121605D01*
X6978Y120951D01*
X7348Y120347D01*
X7808Y119808D01*
X8347Y119348D01*
X8951Y118978D01*
X9605Y118707D01*
X10294Y118542D01*
X10993Y118487D01*
Y108513D01*
G37*
G36*
Y80954D02*X10873Y81094D01*
X10389Y81508D01*
X9845Y81841D01*
X9256Y82085D01*
X8636Y82234D01*
X8000Y82284D01*
X7364Y82234D01*
X6744Y82085D01*
X6155Y81841D01*
X5611Y81508D01*
X5127Y81094D01*
X4712Y80609D01*
X4379Y80065D01*
X4135Y79476D01*
X4000Y78913D01*
Y105087D01*
X4135Y104524D01*
X4379Y103935D01*
X4712Y103391D01*
X5127Y102906D01*
X5611Y102492D01*
X6155Y102159D01*
X6744Y101915D01*
X7364Y101766D01*
X8000Y101716D01*
X8636Y101766D01*
X9256Y101915D01*
X9845Y102159D01*
X10389Y102492D01*
X10873Y102906D01*
X10993Y103046D01*
Y80954D01*
G37*
G36*
Y4000D02*X4000D01*
Y77528D01*
X4135Y76965D01*
X4379Y76376D01*
X4712Y75832D01*
X5127Y75347D01*
X5611Y74933D01*
X6155Y74600D01*
X6744Y74356D01*
X7364Y74207D01*
X8000Y74157D01*
X8636Y74207D01*
X9256Y74356D01*
X9845Y74600D01*
X10389Y74933D01*
X10873Y75347D01*
X10993Y75487D01*
Y65493D01*
X7765Y65486D01*
X7535Y65431D01*
X7317Y65341D01*
X7116Y65217D01*
X6936Y65064D01*
X6783Y64884D01*
X6659Y64683D01*
X6569Y64465D01*
X6514Y64235D01*
X6500Y64000D01*
X6514Y57765D01*
X6569Y57535D01*
X6659Y57317D01*
X6783Y57116D01*
X6936Y56936D01*
X7116Y56783D01*
X7317Y56659D01*
X7535Y56569D01*
X7765Y56514D01*
X8000Y56500D01*
X10993Y56507D01*
Y55513D01*
X10294Y55458D01*
X9605Y55293D01*
X8951Y55022D01*
X8347Y54652D01*
X7808Y54192D01*
X7348Y53653D01*
X6978Y53049D01*
X6707Y52395D01*
X6542Y51706D01*
X6486Y51000D01*
X6542Y50294D01*
X6707Y49605D01*
X6978Y48951D01*
X7348Y48347D01*
X7808Y47808D01*
X8347Y47348D01*
X8951Y46978D01*
X9605Y46707D01*
X10294Y46542D01*
X10993Y46487D01*
Y45513D01*
X10294Y45458D01*
X9605Y45293D01*
X8951Y45022D01*
X8347Y44652D01*
X7808Y44192D01*
X7348Y43653D01*
X6978Y43049D01*
X6707Y42395D01*
X6542Y41706D01*
X6486Y41000D01*
X6542Y40294D01*
X6707Y39605D01*
X6978Y38951D01*
X7348Y38347D01*
X7808Y37808D01*
X8347Y37348D01*
X8951Y36978D01*
X9605Y36707D01*
X10294Y36542D01*
X10993Y36487D01*
Y35513D01*
X10294Y35458D01*
X9605Y35293D01*
X8951Y35022D01*
X8347Y34652D01*
X7808Y34192D01*
X7348Y33653D01*
X6978Y33049D01*
X6707Y32395D01*
X6542Y31706D01*
X6486Y31000D01*
X6542Y30294D01*
X6707Y29605D01*
X6978Y28951D01*
X7348Y28347D01*
X7808Y27808D01*
X8347Y27348D01*
X8951Y26978D01*
X9605Y26707D01*
X10294Y26542D01*
X10993Y26487D01*
Y25513D01*
X10294Y25458D01*
X9605Y25293D01*
X8951Y25022D01*
X8347Y24652D01*
X7808Y24192D01*
X7348Y23653D01*
X6978Y23049D01*
X6707Y22395D01*
X6542Y21706D01*
X6486Y21000D01*
X6542Y20294D01*
X6707Y19605D01*
X6978Y18951D01*
X7348Y18347D01*
X7808Y17808D01*
X8347Y17348D01*
X8951Y16978D01*
X9605Y16707D01*
X10294Y16542D01*
X10993Y16487D01*
Y15513D01*
X10294Y15458D01*
X9605Y15293D01*
X8951Y15022D01*
X8347Y14652D01*
X7808Y14192D01*
X7348Y13653D01*
X6978Y13049D01*
X6707Y12395D01*
X6542Y11706D01*
X6486Y11000D01*
X6542Y10294D01*
X6707Y9605D01*
X6978Y8951D01*
X7348Y8347D01*
X7808Y7808D01*
X8347Y7348D01*
X8951Y6978D01*
X9605Y6707D01*
X10294Y6542D01*
X10993Y6487D01*
Y4000D01*
G37*
G36*
X73000Y70000D02*Y64000D01*
X79000D01*
Y70000D01*
X73000D01*
G37*
G54D55*X76000Y87000D03*
X83000Y11000D03*
X93000D03*
X103000D03*
X145000Y23000D03*
X113000Y11000D03*
X123000D03*
X133000D03*
X145000Y33000D03*
Y43000D03*
G54D54*G36*
X8000Y136000D02*Y130000D01*
X14000D01*
Y136000D01*
X8000D01*
G37*
G54D55*X11000Y123000D03*
X73000Y145000D03*
X63000D03*
X53000D03*
X43000D03*
X33000D03*
X23000D03*
G54D56*X8000Y105780D03*
G54D57*X18630Y101843D03*
G54D55*X145000Y53000D03*
Y63000D03*
Y73000D03*
Y83000D03*
Y93000D03*
Y103000D03*
Y113000D03*
Y123000D03*
Y133000D03*
G54D54*G36*
X130000Y148000D02*Y142000D01*
X136000D01*
Y148000D01*
X130000D01*
G37*
G54D55*X123000Y145000D03*
X113000D03*
X103000D03*
X93000D03*
X83000D03*
G54D54*G36*
X40000Y14000D02*Y8000D01*
X46000D01*
Y14000D01*
X40000D01*
G37*
G54D55*X53000Y11000D03*
X63000D03*
X73000D03*
G54D54*G36*
X8000Y64000D02*Y58000D01*
X14000D01*
Y64000D01*
X8000D01*
G37*
G54D56*Y78220D03*
G54D57*X18630Y82157D03*
G54D55*X11000Y51000D03*
Y41000D03*
Y31000D03*
Y21000D03*
Y11000D03*
G54D58*X67559Y100000D03*
G54D59*X99000Y89000D03*
X91000Y95500D03*
G54D60*X57000Y89500D03*
G54D61*X54500Y95500D03*
G54D59*X126000Y93000D03*
G54D61*X118000Y89500D03*
X121000Y87000D03*
G54D59*X86500D03*
G54D58*X67559Y108000D03*
G54D59*X72000Y130000D03*
G54D60*X51500Y129000D03*
G54D59*X61500Y117500D03*
X29000Y97500D03*
G54D61*X44000Y98000D03*
X47500D03*
X30000Y91000D03*
X32000Y94000D03*
G54D59*X31000Y82500D03*
G54D60*X57000Y79500D03*
G54D61*X59000Y85000D03*
X35500Y78500D03*
G54D59*X22000Y65000D03*
G54D61*X66500Y61000D03*
G54D59*X124500Y62500D03*
G54D61*X101500Y69500D03*
X48000Y74000D03*
X110000Y35000D03*
X116000D03*
X122000D03*
X92500Y64000D03*
X97500Y57000D03*
G54D59*X20000Y25500D03*
G54D62*G54D63*G54D64*G54D65*G54D63*G54D65*G54D66*G54D63*G54D62*G54D63*G54D64*G54D63*G54D66*G54D63*G54D65*G54D63*G54D64*G54D65*G54D63*G54D65*G54D63*G54D66*G54D65*G54D63*G54D66*G54D61*G54D67*G54D68*G54D69*G54D67*G54D68*G54D69*G54D67*M02*
