M48
INCH
T97C0.014
T96C0.015
T95C0.020
T94C0.012
T93C0.033
T92C0.045
T91C0.038
T90C0.028
T98C0.126
%
T94
X006756Y010800
X006756Y010000
T97
X003000Y009100
X003200Y009400
X003550Y007850
X004400Y009800
X004750Y009800
X004800Y007400
X005450Y009550
X005900Y008500
X006650Y006100
X009250Y006400
X009750Y005700
X010150Y006950
X011000Y003500
X011600Y003500
X011800Y008950
X012100Y008700
X012200Y003500
T96
X005150Y012900
X005700Y008950
X005700Y007950
T95
X002000Y002550
X002200Y006500
X002900Y009750
X003100Y008250
X006150Y011750
X007200Y013000
X008650Y008700
X009100Y009550
X009900Y008900
X012450Y006250
X012600Y009300
T90
X007600Y008700
X007600Y006700
T93
X001863Y010184
X001863Y008216
T91
X001100Y013300
X001100Y012300
X001100Y006100
X001100Y005100
X001100Y004100
X001100Y003100
X001100Y002100
X001100Y001100
X002300Y014500
X003300Y014500
X004300Y014500
X004300Y001100
X005300Y014500
X005300Y001100
X006300Y014500
X006300Y001100
X007300Y014500
X007300Y001100
X008300Y014500
X008300Y001100
X009300Y014500
X009300Y001100
X010300Y014500
X010300Y001100
X011300Y014500
X011300Y001100
X012300Y014500
X012300Y001100
X013300Y014500
X013300Y001100
X014500Y013300
X014500Y012300
X014500Y011300
X014500Y010300
X014500Y009300
X014500Y008300
X014500Y007300
X014500Y006300
X014500Y005300
X014500Y004300
X014500Y003300
X014500Y002300
T92
X000800Y010578
X000800Y007822
T98
X000850Y014750
X002400Y000850
X014750Y014750
X014750Y000850
M30
