G04 start of page 9 for group -4063 idx -4063 *
G04 Title: (unknown), componentmask *
G04 Creator: pcb 20140316 *
G04 CreationDate: Sun 17 Jul 2016 04:20:40 PM GMT UTC *
G04 For: dev *
G04 Format: Gerber/RS-274X *
G04 PCB-Dimensions (mil): 1560.00 1560.00 *
G04 PCB-Coordinate-Origin: lower left *
%MOIN*%
%FSLAX25Y25*%
%LNTOPMASK*%
%ADD114R,0.0420X0.0420*%
%ADD113R,0.0355X0.0355*%
%ADD112R,0.0631X0.0631*%
%ADD111R,0.0180X0.0180*%
%ADD110R,0.0867X0.0867*%
%ADD109R,0.0651X0.0651*%
%ADD108R,0.0176X0.0176*%
%ADD107R,0.0572X0.0572*%
%ADD106R,0.0152X0.0152*%
%ADD105C,0.1361*%
%ADD104C,0.1341*%
%ADD103C,0.1381*%
%ADD102C,0.0513*%
%ADD101C,0.0631*%
%ADD100C,0.0660*%
%ADD99C,0.0001*%
G54D99*G36*
X72700Y70300D02*Y63700D01*
X79300D01*
Y70300D01*
X72700D01*
G37*
G54D100*X76000Y87000D03*
X83000Y11000D03*
X93000D03*
X103000D03*
X145000Y23000D03*
X113000Y11000D03*
X123000D03*
X133000D03*
X145000Y33000D03*
Y43000D03*
G54D99*G36*
X7700Y136300D02*Y129700D01*
X14300D01*
Y136300D01*
X7700D01*
G37*
G54D100*X11000Y123000D03*
X73000Y145000D03*
X63000D03*
X53000D03*
X43000D03*
X33000D03*
X23000D03*
G54D101*X8000Y105780D03*
G54D102*X18630Y101843D03*
G54D100*X145000Y53000D03*
Y63000D03*
Y73000D03*
Y83000D03*
Y93000D03*
Y103000D03*
Y113000D03*
Y123000D03*
Y133000D03*
G54D99*G36*
X129700Y148300D02*Y141700D01*
X136300D01*
Y148300D01*
X129700D01*
G37*
G54D100*X123000Y145000D03*
X113000D03*
X103000D03*
X93000D03*
X83000D03*
G54D99*G36*
X39700Y14300D02*Y7700D01*
X46300D01*
Y14300D01*
X39700D01*
G37*
G54D100*X53000Y11000D03*
X63000D03*
X73000D03*
G54D99*G36*
X7700Y64300D02*Y57700D01*
X14300D01*
Y64300D01*
X7700D01*
G37*
G54D101*X8000Y78220D03*
G54D102*X18630Y82157D03*
G54D100*X11000Y51000D03*
Y41000D03*
Y31000D03*
Y21000D03*
Y11000D03*
G54D103*X147500Y147500D03*
G54D104*X8500D03*
G54D103*X147500Y8500D03*
G54D105*X24000D03*
G54D106*X90496Y88827D02*X94039D01*
X90496Y86858D02*X94039D01*
X90496Y84890D02*X94039D01*
X90496Y82921D02*X94039D01*
X90496Y80953D02*X94039D01*
X90496Y78984D02*X94039D01*
X90496Y77016D02*X94039D01*
X90496Y75047D02*X94039D01*
X90496Y73079D02*X94039D01*
X90496Y71110D02*X94039D01*
X90496Y69142D02*X94039D01*
X90496Y67173D02*X94039D01*
X98173Y63039D02*Y59496D01*
X100142Y63039D02*Y59496D01*
X102110Y63039D02*Y59496D01*
X104079Y63039D02*Y59496D01*
X106047Y63039D02*Y59496D01*
X108016Y63039D02*Y59496D01*
X109984Y63039D02*Y59496D01*
X111953Y63039D02*Y59496D01*
X113921Y63039D02*Y59496D01*
X115890Y63039D02*Y59496D01*
X117858Y63039D02*Y59496D01*
X119827Y63039D02*Y59496D01*
G54D107*X68457Y55393D02*Y54607D01*
X75543Y55393D02*Y54607D01*
X64107Y40457D02*X64893D01*
X64107Y47543D02*X64893D01*
G54D106*X119827Y96504D02*Y92961D01*
X117858Y96504D02*Y92961D01*
X115890Y96504D02*Y92961D01*
X113921Y96504D02*Y92961D01*
X111953Y96504D02*Y92961D01*
X109984Y96504D02*Y92961D01*
X108016Y96504D02*Y92961D01*
X106047Y96504D02*Y92961D01*
X104079Y96504D02*Y92961D01*
X102110Y96504D02*Y92961D01*
X100142Y96504D02*Y92961D01*
X98173Y96504D02*Y92961D01*
G54D108*X51043Y82162D02*X53129D01*
X51043Y84721D02*X53129D01*
X36871Y87279D02*X38957D01*
X36871Y84721D02*X38957D01*
X36871Y82162D02*X38957D01*
G54D99*G36*
X40666Y90334D02*Y81666D01*
X49334D01*
Y90334D01*
X40666D01*
G37*
G54D108*X41162Y79957D02*Y77871D01*
X43721Y79957D02*Y77871D01*
X46279Y79957D02*Y77871D01*
X48838Y79957D02*Y77871D01*
X51043Y87279D02*X53129D01*
X51043Y89838D02*X53129D01*
X48838Y94129D02*Y92043D01*
X46279Y94129D02*Y92043D01*
X43721Y94129D02*Y92043D01*
X41162Y94129D02*Y92043D01*
X36871Y89838D02*X38957D01*
G54D109*X50110Y28677D02*Y25921D01*
Y64504D02*Y61748D01*
G54D110*X34733Y109787D02*Y108213D01*
G54D109*X32551Y28677D02*Y25921D01*
Y64504D02*Y61748D01*
G54D111*X16661Y97118D02*X20402D01*
X16661Y94559D02*X20402D01*
X16661Y92000D02*X20402D01*
X16661Y86882D02*X20402D01*
X16661Y89441D02*X20402D01*
G54D110*X28733Y126787D02*Y125213D01*
G54D112*X7803Y88063D02*X8000D01*
X7803Y95937D02*X8000D01*
G54D110*X51268Y109787D02*Y108213D01*
G54D113*X62441Y100492D02*Y99508D01*
X67559Y100492D02*Y99508D01*
X62441Y108492D02*Y107508D01*
X67559Y108492D02*Y107508D01*
G54D107*X76107Y104543D02*X76893D01*
X76107Y97457D02*X76893D01*
G54D110*X45268Y126787D02*Y125213D01*
G54D114*X56319Y125900D02*X56919D01*
X65700Y122000D02*X66300D01*
X65700Y129800D02*X66300D01*
G54D106*X123961Y67173D02*X127504D01*
X123961Y69142D02*X127504D01*
X123961Y71110D02*X127504D01*
X123961Y73079D02*X127504D01*
X123961Y75047D02*X127504D01*
X123961Y77016D02*X127504D01*
X123961Y78984D02*X127504D01*
X123961Y80953D02*X127504D01*
X123961Y82921D02*X127504D01*
X123961Y84890D02*X127504D01*
X123961Y86858D02*X127504D01*
X123961Y88827D02*X127504D01*
G54D113*X121508Y47559D02*X122492D01*
X115508D02*X116492D01*
X109508D02*X110492D01*
X115508Y42441D02*X116492D01*
X109508D02*X110492D01*
X121508D02*X122492D01*
M02*
