G04 start of page 2 for group 0 idx 0 *
G04 Title: (unknown), top *
G04 Creator: pcb 20140316 *
G04 CreationDate: Sun 17 Jul 2016 04:20:40 PM GMT UTC *
G04 For: dev *
G04 Format: Gerber/RS-274X *
G04 PCB-Dimensions (mil): 1560.00 1560.00 *
G04 PCB-Coordinate-Origin: lower left *
%MOIN*%
%FSLAX25Y25*%
%LNTOP*%
%ADD37C,0.0335*%
%ADD36C,0.0453*%
%ADD35C,0.0380*%
%ADD34C,0.1260*%
%ADD33C,0.0140*%
%ADD32C,0.0118*%
%ADD31C,0.0280*%
%ADD30C,0.0250*%
%ADD29C,0.0400*%
%ADD28C,0.0240*%
%ADD27R,0.0340X0.0340*%
%ADD26R,0.0295X0.0295*%
%ADD25R,0.0591X0.0591*%
%ADD24R,0.0157X0.0157*%
%ADD23R,0.0787X0.0787*%
%ADD22R,0.0551X0.0551*%
%ADD21C,0.0011*%
%ADD20R,0.0146X0.0146*%
%ADD19R,0.0512X0.0512*%
%ADD18R,0.0118X0.0118*%
%ADD17C,0.0492*%
%ADD16C,0.0610*%
%ADD15C,0.0600*%
%ADD14C,0.0001*%
%ADD13C,0.0150*%
%ADD12C,0.0200*%
%ADD11C,0.0100*%
G54D11*X104000Y118000D02*Y96000D01*
X106000Y119000D02*Y96000D01*
X108000Y120000D02*Y96000D01*
X112000Y119000D02*Y96000D01*
X114000Y120000D02*Y96000D01*
X116000Y121000D02*Y96000D01*
X118000Y140000D02*Y96000D01*
X145000Y123000D02*X135000Y113000D01*
X145000Y133000D02*X133000Y121000D01*
X110000Y93000D02*Y92000D01*
G54D12*X126000Y87000D02*Y93000D01*
G54D11*X120000D02*Y91500D01*
X118500Y90000D01*
X124000Y85000D02*X123000D01*
X121000Y87000D01*
X110000Y92000D02*X108000Y90000D01*
X100000D01*
X99000Y89000D01*
X100000Y92500D02*Y90000D01*
X145000Y103000D02*X139000Y97000D01*
X145000Y113000D02*X137000Y105000D01*
Y82000D01*
X139000Y97000D02*Y81000D01*
X135000Y113000D02*Y83000D01*
X133000Y121000D02*Y84000D01*
G54D12*X23000Y145000D02*X22000D01*
G54D11*X33000D02*Y136000D01*
X35000Y134000D01*
G54D12*X11000Y133000D02*X21500D01*
X28500Y126000D01*
G54D11*X45000Y136000D02*X86000D01*
X35000Y134000D02*X85000D01*
X73000Y142000D02*X75000Y140000D01*
X63000Y145000D02*Y140000D01*
X65000Y138000D01*
X87000D01*
X73000Y145000D02*Y142000D01*
X75000Y140000D02*X88000D01*
X93000Y145000D02*Y138000D01*
X43000Y145000D02*Y138000D01*
X45000Y136000D01*
G54D13*X46000Y126000D02*X49000Y129000D01*
G54D12*X56500Y126000D02*X47000D01*
G54D13*X49000Y129000D02*X51500D01*
G54D12*X46000Y115000D02*Y125500D01*
X66000Y122000D02*X61500Y117500D01*
G54D11*X139000Y81000D02*X133000Y75000D01*
X137000Y82000D02*X134000Y79000D01*
X135000Y83000D02*X133000Y81000D01*
Y84000D02*X132000Y83000D01*
X133000Y75000D02*X127000D01*
X134000Y79000D02*X127000D01*
X133000Y81000D02*X127000D01*
X132000Y83000D02*X127000D01*
X145000Y73000D02*X127000D01*
X137000Y71000D02*X127000D01*
X132000Y69000D02*X127000D01*
X131000Y67000D02*X127000D01*
X94500Y73000D02*X98000D01*
X101500Y69500D01*
X118000Y70000D02*X99000Y89000D01*
X97500Y75000D02*X99000Y76500D01*
Y88500D01*
X145000Y63000D02*X137000Y71000D01*
X145000Y56000D02*X132000Y69000D01*
X137000Y61000D02*X131000Y67000D01*
X108016Y59496D02*Y48984D01*
X109000Y48000D01*
X109984Y59496D02*Y54016D01*
X111953Y57047D02*X121000Y48000D01*
X116000Y58000D02*X117000Y57000D01*
X124000D01*
X114000Y57500D02*X116500Y55000D01*
X123000D01*
X109984Y54016D02*X116000Y48000D01*
X111953Y59496D02*Y57047D01*
X116000Y60000D02*Y58000D01*
X114000Y59500D02*Y57500D01*
G54D12*X120500Y61500D02*X123000D01*
X123500Y62000D01*
G54D11*X118000Y63000D02*Y70000D01*
X122000Y42000D02*Y35000D01*
X145000Y53000D02*Y56000D01*
Y43000D02*X137000Y51000D01*
Y61000D01*
X124000Y57000D02*X140000Y41000D01*
Y38000D01*
X145000Y33000D01*
X123000Y55000D02*X137000Y41000D01*
Y31000D01*
X145000Y23000D01*
G54D12*X71800Y129800D02*X72000Y130000D01*
G54D11*X85000Y134000D02*X102000Y117000D01*
Y96000D01*
X76500Y105000D02*X79500D01*
X84000Y100500D01*
X86000Y136000D02*X104000Y118000D01*
X87000Y138000D02*X106000Y119000D01*
X88000Y140000D02*X108000Y120000D01*
X103000Y145000D02*Y131000D01*
X113000Y145000D02*Y124000D01*
X123000Y145000D02*X118000Y140000D01*
X93000Y138000D02*X112000Y119000D01*
X103000Y131000D02*X114000Y120000D01*
X113000Y124000D02*X116000Y121000D01*
G54D12*X65500Y129500D02*X71500D01*
X72000Y130000D01*
G54D11*X84000Y89500D02*X86000Y87500D01*
X82000Y81000D02*X90500D01*
X82000Y79000D02*X90500D01*
G54D13*X86642Y86858D02*X86500Y87000D01*
G54D11*X94000Y75000D02*X97500D01*
G54D13*X92268Y86858D02*X86642D01*
X91000Y95500D02*X92500Y94000D01*
Y89000D01*
X91000Y95500D02*X98000D01*
G54D11*X76000Y87000D02*X82000Y81000D01*
X76000Y73000D02*X82000Y79000D01*
X76000Y73000D02*Y57000D01*
Y87000D02*Y97000D01*
X68500Y55500D02*Y59000D01*
X66500Y61000D01*
X91000Y69000D02*X89500D01*
X88500Y68000D01*
X91000Y71000D02*X88500D01*
X85500Y68000D01*
X83500Y74000D02*X86500Y77000D01*
X90500D01*
X110000Y42000D02*Y35000D01*
X116000Y42000D02*Y35000D01*
X106000Y59500D02*Y31500D01*
X113000Y24500D01*
Y10500D01*
X104000Y59500D02*Y11000D01*
X102000Y59500D02*Y21000D01*
X98000Y59500D02*Y39000D01*
X92500Y67000D02*Y41500D01*
X88500Y68000D02*Y48500D01*
X85500Y68000D02*Y53000D01*
X100000Y59500D02*Y30000D01*
X83500Y55000D02*Y74000D01*
G54D13*X53500Y82000D02*X56000Y79500D01*
X57000D01*
X53500Y87000D02*X54500D01*
G54D11*X53000Y84500D02*X53500Y85000D01*
X59000D01*
X46500Y78000D02*Y75500D01*
X48000Y74000D01*
G54D13*X51000Y87500D02*X49000D01*
G54D12*X50000Y27500D02*Y64000D01*
X8000Y78000D02*X12500Y73500D01*
X25000D01*
X32500Y66000D01*
Y27500D02*Y66000D01*
G54D11*X104000Y11000D02*X103000Y10000D01*
X10500Y21000D02*X12500Y19000D01*
X42500D01*
X102000Y21000D02*X94000Y13000D01*
X98000Y39000D02*X72500Y13500D01*
X100000Y30000D02*X83500Y13500D01*
X92500Y41500D02*X64000Y13000D01*
X88500Y48500D02*X53500Y13500D01*
X85500Y53000D02*X45500Y13000D01*
X42500Y19000D02*X64500Y41000D01*
X69500D01*
G54D12*X64500Y47500D02*Y51500D01*
G54D11*X69500Y41000D02*X83500Y55000D01*
G54D12*X64500Y51500D02*X68000Y55000D01*
G54D11*X84000Y100500D02*Y89500D01*
G54D13*X43000Y101000D02*X62000D01*
Y107500D01*
Y99500D02*X65000Y96500D01*
Y85000D01*
X62000Y82000D01*
X53500D01*
X54500Y87000D02*X57000Y89500D01*
G54D11*X49000Y93500D02*X52500D01*
X44000Y98000D02*X43500Y97500D01*
Y94000D01*
X46000Y94500D02*X47500Y96000D01*
Y98000D01*
X52500Y93500D02*X54500Y95500D01*
G54D12*X51500Y109500D02*X46000Y115000D01*
X8000Y103000D02*Y80500D01*
G54D13*X31000Y82500D02*Y84500D01*
X33500Y87000D01*
X37000D01*
G54D12*X18500Y89500D02*Y84000D01*
G54D11*X30000Y91000D02*X29000Y92000D01*
X20500D01*
G54D13*X41000Y94000D02*Y99000D01*
X43000Y101000D01*
X38000Y90000D02*Y92000D01*
X39000Y93000D01*
X40500D01*
X41000Y80000D02*Y81000D01*
X42000Y82000D01*
G54D11*X37500Y84500D02*X35500D01*
X34500Y83500D01*
Y79500D01*
X35500Y78500D01*
G54D12*X20500Y97500D02*X29000D01*
X20500Y98000D02*X23000D01*
X32500Y107500D01*
G54D11*X32000Y94000D02*X25500D01*
X25000Y94500D01*
X20500D01*
G54D14*G36*
X73000Y70000D02*Y64000D01*
X79000D01*
Y70000D01*
X73000D01*
G37*
G54D15*X76000Y87000D03*
X83000Y11000D03*
X93000D03*
X103000D03*
X145000Y23000D03*
X113000Y11000D03*
X123000D03*
X133000D03*
X145000Y33000D03*
Y43000D03*
G54D14*G36*
X8000Y136000D02*Y130000D01*
X14000D01*
Y136000D01*
X8000D01*
G37*
G54D15*X11000Y123000D03*
X73000Y145000D03*
X63000D03*
X53000D03*
X43000D03*
X33000D03*
X23000D03*
G54D16*X8000Y105780D03*
G54D17*X18630Y101843D03*
G54D15*X145000Y53000D03*
Y63000D03*
Y73000D03*
Y83000D03*
Y93000D03*
Y103000D03*
Y113000D03*
Y123000D03*
Y133000D03*
G54D14*G36*
X130000Y148000D02*Y142000D01*
X136000D01*
Y148000D01*
X130000D01*
G37*
G54D15*X123000Y145000D03*
X113000D03*
X103000D03*
X93000D03*
X83000D03*
G54D14*G36*
X40000Y14000D02*Y8000D01*
X46000D01*
Y14000D01*
X40000D01*
G37*
G54D15*X53000Y11000D03*
X63000D03*
X73000D03*
G54D14*G36*
X8000Y64000D02*Y58000D01*
X14000D01*
Y64000D01*
X8000D01*
G37*
G54D16*Y78220D03*
G54D17*X18630Y82157D03*
G54D15*X11000Y51000D03*
Y41000D03*
Y31000D03*
Y21000D03*
Y11000D03*
G54D18*X90496Y88827D02*X94039D01*
X90496Y86858D02*X94039D01*
X90496Y84890D02*X94039D01*
X90496Y82921D02*X94039D01*
X90496Y80953D02*X94039D01*
X90496Y78984D02*X94039D01*
X90496Y77016D02*X94039D01*
X90496Y75047D02*X94039D01*
X90496Y73079D02*X94039D01*
X90496Y71110D02*X94039D01*
X90496Y69142D02*X94039D01*
X90496Y67173D02*X94039D01*
X98173Y63039D02*Y59496D01*
X100142Y63039D02*Y59496D01*
X102110Y63039D02*Y59496D01*
X104079Y63039D02*Y59496D01*
X106047Y63039D02*Y59496D01*
X108016Y63039D02*Y59496D01*
X109984Y63039D02*Y59496D01*
X111953Y63039D02*Y59496D01*
X113921Y63039D02*Y59496D01*
X115890Y63039D02*Y59496D01*
X117858Y63039D02*Y59496D01*
X119827Y63039D02*Y59496D01*
G54D19*X68457Y55393D02*Y54607D01*
X75543Y55393D02*Y54607D01*
X64107Y40457D02*X64893D01*
X64107Y47543D02*X64893D01*
G54D18*X119827Y96504D02*Y92961D01*
X117858Y96504D02*Y92961D01*
X115890Y96504D02*Y92961D01*
X113921Y96504D02*Y92961D01*
X111953Y96504D02*Y92961D01*
X109984Y96504D02*Y92961D01*
X108016Y96504D02*Y92961D01*
X106047Y96504D02*Y92961D01*
X104079Y96504D02*Y92961D01*
X102110Y96504D02*Y92961D01*
X100142Y96504D02*Y92961D01*
X98173Y96504D02*Y92961D01*
G54D20*X51043Y82162D02*X53129D01*
G54D21*X51115Y82700D02*X51405Y81540D01*
X51695Y82700D01*
X52246Y81540D02*X52623D01*
X52043Y81743D02*X52246Y81540D01*
X52043Y82497D02*Y81743D01*
Y82497D02*X52246Y82700D01*
X52623D01*
X53174Y81540D02*X53551D01*
X52971Y81743D02*X53174Y81540D01*
X52971Y82497D02*Y81743D01*
Y82497D02*X53174Y82700D01*
X53551D01*
X53899D02*X54189D01*
X54044D02*Y81540D01*
X53899D02*X54189D01*
X54537Y82555D02*Y81685D01*
Y82555D02*X54682Y82700D01*
X54972D01*
X55117Y82555D01*
Y81685D01*
X54972Y81540D02*X55117Y81685D01*
X54682Y81540D02*X54972D01*
X54537Y81685D02*X54682Y81540D01*
G54D20*X51043Y84721D02*X53129D01*
G54D21*X51115Y85259D02*X51695D01*
X51840Y85114D01*
Y84824D01*
X51695Y84679D02*X51840Y84824D01*
X51260Y84679D02*X51695D01*
X51260Y85259D02*Y84099D01*
X51492Y84679D02*X51840Y84099D01*
X52188D02*X52913Y85259D01*
X52188D02*X52913Y84099D01*
X53406Y85259D02*Y84099D01*
X53783Y85259D02*X53986Y85056D01*
Y84302D01*
X53783Y84099D02*X53986Y84302D01*
X53261Y84099D02*X53783D01*
X53261Y85259D02*X53783D01*
G54D20*X36871Y87279D02*X38957D01*
G54D21*X36943Y87817D02*X37233Y86657D01*
X37523Y87817D01*
X38074Y86657D02*X38451D01*
X37871Y86860D02*X38074Y86657D01*
X37871Y87614D02*Y86860D01*
Y87614D02*X38074Y87817D01*
X38451D01*
X39002Y86657D02*X39379D01*
X38799Y86860D02*X39002Y86657D01*
X38799Y87614D02*Y86860D01*
Y87614D02*X39002Y87817D01*
X39379D01*
G54D20*X36871Y84721D02*X38957D01*
G54D21*X37146Y84099D02*X37523D01*
X36943Y84302D02*X37146Y84099D01*
X36943Y85056D02*Y84302D01*
Y85056D02*X37146Y85259D01*
X37523D01*
X37871Y84099D02*X38451D01*
X38596Y84244D01*
Y84592D02*Y84244D01*
X38451Y84737D02*X38596Y84592D01*
X38016Y84737D02*X38451D01*
X38016Y85259D02*Y84099D01*
X37871Y85259D02*X38451D01*
X38596Y85114D01*
Y84882D01*
X38451Y84737D02*X38596Y84882D01*
X38944Y85259D02*Y84244D01*
X39089Y84099D01*
X39379D01*
X39524Y84244D01*
Y85259D02*Y84244D01*
X40452Y85259D02*X40597Y85114D01*
X40017Y85259D02*X40452D01*
X39872Y85114D02*X40017Y85259D01*
X39872Y85114D02*Y84824D01*
X40017Y84679D01*
X40452D01*
X40597Y84534D01*
Y84244D01*
X40452Y84099D02*X40597Y84244D01*
X40017Y84099D02*X40452D01*
X39872Y84244D02*X40017Y84099D01*
X40945Y85027D02*X41177Y85259D01*
Y84099D01*
X40945D02*X41380D01*
X41728Y84244D02*X42598Y85114D01*
X42946Y85259D02*X43526D01*
X43671Y85114D01*
Y84824D01*
X43526Y84679D02*X43671Y84824D01*
X43091Y84679D02*X43526D01*
X43091Y85259D02*Y84099D01*
X43323Y84679D02*X43671Y84099D01*
X44019D02*X44744Y85259D01*
X44019D02*X44744Y84099D01*
X45092Y85259D02*Y84099D01*
X45672D01*
X46020Y84737D02*X46455D01*
X46020Y84099D02*X46600D01*
X46020Y85259D02*Y84099D01*
Y85259D02*X46600D01*
X47093D02*Y84099D01*
X47470Y85259D02*X47673Y85056D01*
Y84302D01*
X47470Y84099D02*X47673Y84302D01*
X46948Y84099D02*X47470D01*
X46948Y85259D02*X47470D01*
X48021Y84534D02*X48601D01*
X48021Y84824D02*X48601D01*
X48456Y84969D02*Y84389D01*
X48166Y84969D02*Y84389D01*
G54D20*X36871Y82162D02*X38957D01*
G54D21*X37146Y81540D02*X37523D01*
X36943Y81743D02*X37146Y81540D01*
X36943Y82497D02*Y81743D01*
Y82497D02*X37146Y82700D01*
X37523D01*
X37871Y81540D02*X38451D01*
X38596Y81685D01*
Y82033D02*Y81685D01*
X38451Y82178D02*X38596Y82033D01*
X38016Y82178D02*X38451D01*
X38016Y82700D02*Y81540D01*
X37871Y82700D02*X38451D01*
X38596Y82555D01*
Y82323D01*
X38451Y82178D02*X38596Y82323D01*
X38944Y82700D02*Y81685D01*
X39089Y81540D01*
X39379D01*
X39524Y81685D01*
Y82700D02*Y81685D01*
X40452Y82700D02*X40597Y82555D01*
X40017Y82700D02*X40452D01*
X39872Y82555D02*X40017Y82700D01*
X39872Y82555D02*Y82265D01*
X40017Y82120D01*
X40452D01*
X40597Y81975D01*
Y81685D01*
X40452Y81540D02*X40597Y81685D01*
X40017Y81540D02*X40452D01*
X39872Y81685D02*X40017Y81540D01*
X40945Y81685D02*X41090Y81540D01*
X40945Y82555D02*Y81685D01*
Y82555D02*X41090Y82700D01*
X41380D01*
X41525Y82555D01*
Y81685D01*
X41380Y81540D02*X41525Y81685D01*
X41090Y81540D02*X41380D01*
X40945Y81830D02*X41525Y82410D01*
G54D14*G36*
X40866Y90134D02*Y81866D01*
X49134D01*
Y90134D01*
X40866D01*
G37*
G54D20*X41162Y79957D02*Y77871D01*
G54D21*X40624Y78523D02*X40769Y78668D01*
X40624Y78523D02*Y78088D01*
X40769Y77943D02*X40624Y78088D01*
X40769Y77943D02*X41639D01*
X41784Y78088D01*
Y78523D02*Y78088D01*
Y78523D02*X41639Y78668D01*
X41349D02*X41639D01*
X41204Y78523D02*X41349Y78668D01*
X41204Y78523D02*Y78233D01*
X40624Y79016D02*X41784D01*
X40624D02*X41784Y79741D01*
X40624D02*X41784D01*
X40624Y80234D02*X41784D01*
X40624Y80611D02*X40827Y80814D01*
X41581D01*
X41784Y80611D02*X41581Y80814D01*
X41784Y80611D02*Y80089D01*
X40624Y80611D02*Y80089D01*
G54D20*X43721Y79957D02*Y77871D01*
G54D21*X44343Y78523D02*Y78146D01*
X44140Y77943D02*X44343Y78146D01*
X43386Y77943D02*X44140D01*
X43386D02*X43183Y78146D01*
Y78523D02*Y78146D01*
X44343Y79451D02*Y78871D01*
Y79451D02*X44198Y79596D01*
X43850D02*X44198D01*
X43705Y79451D02*X43850Y79596D01*
X43705Y79451D02*Y79016D01*
X43183D02*X44343D01*
X43183Y79451D02*Y78871D01*
Y79451D02*X43328Y79596D01*
X43560D01*
X43705Y79451D02*X43560Y79596D01*
X43183Y79944D02*X44198D01*
X44343Y80089D01*
Y80379D02*Y80089D01*
Y80379D02*X44198Y80524D01*
X43183D02*X44198D01*
X43183Y81452D02*X43328Y81597D01*
X43183Y81452D02*Y81017D01*
X43328Y80872D02*X43183Y81017D01*
X43328Y80872D02*X43618D01*
X43763Y81017D01*
Y81452D02*Y81017D01*
Y81452D02*X43908Y81597D01*
X44198D01*
X44343Y81452D02*X44198Y81597D01*
X44343Y81452D02*Y81017D01*
X44198Y80872D02*X44343Y81017D01*
X43328Y81945D02*X43183Y82090D01*
Y82380D02*Y82090D01*
Y82380D02*X43328Y82525D01*
X44343Y82380D02*X44198Y82525D01*
X44343Y82380D02*Y82090D01*
X44198Y81945D02*X44343Y82090D01*
X43705Y82380D02*Y82090D01*
X43328Y82525D02*X43560D01*
X43850D02*X44198D01*
X43850D02*X43705Y82380D01*
X43560Y82525D02*X43705Y82380D01*
G54D20*X46279Y79957D02*Y77871D01*
G54D21*X45741Y78523D02*Y77943D01*
Y78233D02*X46901D01*
Y78871D02*X45741Y79596D01*
Y78871D02*X46901Y79596D01*
X45741Y80089D02*X46901D01*
X45741Y80466D02*X45944Y80669D01*
X46698D01*
X46901Y80466D02*X46698Y80669D01*
X46901Y80466D02*Y79944D01*
X45741Y80466D02*Y79944D01*
G54D20*X48838Y79957D02*Y77871D01*
G54D21*X48300Y78523D02*Y77943D01*
Y78523D02*X48445Y78668D01*
X48735D01*
X48880Y78523D02*X48735Y78668D01*
X48880Y78523D02*Y78088D01*
X48300D02*X49460D01*
X48880Y78320D02*X49460Y78668D01*
X48300Y79596D02*Y79016D01*
Y79306D02*X49460D01*
X48300Y80524D02*X48445Y80669D01*
X48300Y80524D02*Y80089D01*
X48445Y79944D02*X48300Y80089D01*
X48445Y79944D02*X48735D01*
X48880Y80089D01*
Y80524D02*Y80089D01*
Y80524D02*X49025Y80669D01*
X49315D01*
X49460Y80524D02*X49315Y80669D01*
X49460Y80524D02*Y80089D01*
X49315Y79944D02*X49460Y80089D01*
X49025Y81597D02*Y81017D01*
X48735Y81597D02*Y81017D01*
X48590Y81452D02*X49170D01*
X48590Y81162D02*X49170D01*
G54D20*X51043Y87279D02*X53129D01*
G54D21*X51695Y87817D02*X51840Y87672D01*
X51260Y87817D02*X51695D01*
X51115Y87672D02*X51260Y87817D01*
X51115Y87672D02*Y86802D01*
X51260Y86657D01*
X51695D01*
X51840Y86802D01*
Y87092D02*Y86802D01*
X51695Y87237D02*X51840Y87092D01*
X51405Y87237D02*X51695D01*
X52188Y87817D02*Y86657D01*
Y87817D02*X52913Y86657D01*
Y87817D02*Y86657D01*
X53406Y87817D02*Y86657D01*
X53783Y87817D02*X53986Y87614D01*
Y86860D01*
X53783Y86657D02*X53986Y86860D01*
X53261Y86657D02*X53783D01*
X53261Y87817D02*X53783D01*
G54D20*X51043Y89838D02*X53129D01*
G54D21*X51318Y89216D02*X51695D01*
X51115Y89419D02*X51318Y89216D01*
X51115Y90173D02*Y89419D01*
Y90173D02*X51318Y90376D01*
X51695D01*
X52043D02*X52623D01*
X52333D02*Y89216D01*
X53551Y90376D02*X53696Y90231D01*
X53116Y90376D02*X53551D01*
X52971Y90231D02*X53116Y90376D01*
X52971Y90231D02*Y89941D01*
X53116Y89796D01*
X53551D01*
X53696Y89651D01*
Y89361D01*
X53551Y89216D02*X53696Y89361D01*
X53116Y89216D02*X53551D01*
X52971Y89361D02*X53116Y89216D01*
X54044Y89651D02*X54624D01*
X54044Y89941D02*X54624D01*
X54479Y90086D02*Y89506D01*
X54189Y90086D02*Y89506D01*
G54D20*X48838Y94129D02*Y92043D01*
G54D21*X49460Y92695D02*Y92318D01*
X49257Y92115D02*X49460Y92318D01*
X48503Y92115D02*X49257D01*
X48503D02*X48300Y92318D01*
Y92695D02*Y92318D01*
X49460Y93623D02*Y93043D01*
Y93623D02*X49315Y93768D01*
X48967D02*X49315D01*
X48822Y93623D02*X48967Y93768D01*
X48822Y93623D02*Y93188D01*
X48300D02*X49460D01*
X48300Y93623D02*Y93043D01*
Y93623D02*X48445Y93768D01*
X48677D01*
X48822Y93623D02*X48677Y93768D01*
X48300Y94116D02*X49315D01*
X49460Y94261D01*
Y94551D02*Y94261D01*
Y94551D02*X49315Y94696D01*
X48300D02*X49315D01*
X48300Y95624D02*X48445Y95769D01*
X48300Y95624D02*Y95189D01*
X48445Y95044D02*X48300Y95189D01*
X48445Y95044D02*X48735D01*
X48880Y95189D01*
Y95624D02*Y95189D01*
Y95624D02*X49025Y95769D01*
X49315D01*
X49460Y95624D02*X49315Y95769D01*
X49460Y95624D02*Y95189D01*
X49315Y95044D02*X49460Y95189D01*
X48445Y96117D02*X48300Y96262D01*
Y96697D02*Y96262D01*
Y96697D02*X48445Y96842D01*
X48735D01*
X49460Y96117D02*X48735Y96842D01*
X49460D02*Y96117D01*
X49315Y97190D02*X48445Y98060D01*
X48300Y98988D02*Y98408D01*
Y98698D02*X49460D01*
Y99336D02*X48300Y100061D01*
Y99336D02*X49460Y100061D01*
X48300Y100409D02*X49460D01*
Y100989D02*Y100409D01*
X48822Y101772D02*Y101337D01*
X49460Y101917D02*Y101337D01*
X48300D02*X49460D01*
X48300Y101917D02*Y101337D01*
Y102410D02*X49460D01*
X48300Y102787D02*X48503Y102990D01*
X49257D01*
X49460Y102787D02*X49257Y102990D01*
X49460Y102787D02*Y102265D01*
X48300Y102787D02*Y102265D01*
X49025Y103918D02*Y103338D01*
X48735Y103918D02*Y103338D01*
X48590Y103773D02*X49170D01*
X48590Y103483D02*X49170D01*
G54D20*X46279Y94129D02*Y92043D01*
G54D21*X45741Y92115D02*X46756D01*
X46901Y92260D01*
Y92550D02*Y92260D01*
Y92550D02*X46756Y92695D01*
X45741D02*X46756D01*
X45741Y93623D02*X45886Y93768D01*
X45741Y93623D02*Y93188D01*
X45886Y93043D02*X45741Y93188D01*
X45886Y93043D02*X46176D01*
X46321Y93188D01*
Y93623D02*Y93188D01*
Y93623D02*X46466Y93768D01*
X46756D01*
X46901Y93623D02*X46756Y93768D01*
X46901Y93623D02*Y93188D01*
X46756Y93043D02*X46901Y93188D01*
Y94696D02*Y94116D01*
Y94696D02*X46756Y94841D01*
X46408D02*X46756D01*
X46263Y94696D02*X46408Y94841D01*
X46263Y94696D02*Y94261D01*
X45741D02*X46901D01*
X45741Y94696D02*Y94116D01*
Y94696D02*X45886Y94841D01*
X46118D01*
X46263Y94696D02*X46118Y94841D01*
X45741Y95334D02*X46901D01*
X45741Y95711D02*X45944Y95914D01*
X46698D01*
X46901Y95711D02*X46698Y95914D01*
X46901Y95711D02*Y95189D01*
X45741Y95711D02*Y95189D01*
Y96407D02*X46901D01*
X45741Y96842D02*Y96262D01*
Y96842D02*X45886Y96987D01*
X46176D01*
X46321Y96842D02*X46176Y96987D01*
X46321Y96842D02*Y96407D01*
G54D20*X43721Y94129D02*Y92043D01*
G54D21*X43183Y92115D02*X44198D01*
X44343Y92260D01*
Y92550D02*Y92260D01*
Y92550D02*X44198Y92695D01*
X43183D02*X44198D01*
X43183Y93623D02*X43328Y93768D01*
X43183Y93623D02*Y93188D01*
X43328Y93043D02*X43183Y93188D01*
X43328Y93043D02*X43618D01*
X43763Y93188D01*
Y93623D02*Y93188D01*
Y93623D02*X43908Y93768D01*
X44198D01*
X44343Y93623D02*X44198Y93768D01*
X44343Y93623D02*Y93188D01*
X44198Y93043D02*X44343Y93188D01*
Y94696D02*Y94116D01*
Y94696D02*X44198Y94841D01*
X43850D02*X44198D01*
X43705Y94696D02*X43850Y94841D01*
X43705Y94696D02*Y94261D01*
X43183D02*X44343D01*
X43183Y94696D02*Y94116D01*
Y94696D02*X43328Y94841D01*
X43560D01*
X43705Y94696D02*X43560Y94841D01*
X43183Y95334D02*X44343D01*
X43183Y95711D02*X43386Y95914D01*
X44140D01*
X44343Y95711D02*X44140Y95914D01*
X44343Y95711D02*Y95189D01*
X43183Y95711D02*Y95189D01*
Y96262D02*X44343D01*
X43183D02*X43763Y96697D01*
X43183Y97132D01*
X44343D01*
G54D20*X41162Y94129D02*Y92043D01*
G54D21*X40769Y92115D02*X40624Y92260D01*
Y92550D02*Y92260D01*
Y92550D02*X40769Y92695D01*
X41784Y92550D02*X41639Y92695D01*
X41784Y92550D02*Y92260D01*
X41639Y92115D02*X41784Y92260D01*
X41146Y92550D02*Y92260D01*
X40769Y92695D02*X41001D01*
X41291D02*X41639D01*
X41291D02*X41146Y92550D01*
X41001Y92695D02*X41146Y92550D01*
X40624Y93043D02*X41784Y93333D01*
X40624Y93623D01*
X40769Y93971D02*X40624Y94116D01*
Y94406D02*Y94116D01*
Y94406D02*X40769Y94551D01*
X41784Y94406D02*X41639Y94551D01*
X41784Y94406D02*Y94116D01*
X41639Y93971D02*X41784Y94116D01*
X41146Y94406D02*Y94116D01*
X40769Y94551D02*X41001D01*
X41291D02*X41639D01*
X41291D02*X41146Y94406D01*
X41001Y94551D02*X41146Y94406D01*
X40769Y94899D02*X41639D01*
X40769D02*X40624Y95044D01*
Y95334D02*Y95044D01*
Y95334D02*X40769Y95479D01*
X41639D01*
X41784Y95334D02*X41639Y95479D01*
X41784Y95334D02*Y95044D01*
X41639Y94899D02*X41784Y95044D01*
X40624Y95827D02*X41639D01*
X41784Y95972D01*
Y96262D02*Y95972D01*
Y96262D02*X41639Y96407D01*
X40624D02*X41639D01*
X40624Y97335D02*Y96755D01*
Y97045D02*X41784D01*
G54D20*X36871Y89838D02*X38957D01*
G54D21*X36943Y90376D02*X37523D01*
X37668Y90231D01*
Y89941D01*
X37523Y89796D02*X37668Y89941D01*
X37088Y89796D02*X37523D01*
X37088Y90376D02*Y89216D01*
X37320Y89796D02*X37668Y89216D01*
X38016Y89854D02*X38451D01*
X38016Y89216D02*X38596D01*
X38016Y90376D02*Y89216D01*
Y90376D02*X38596D01*
X39524D02*X39669Y90231D01*
X39089Y90376D02*X39524D01*
X38944Y90231D02*X39089Y90376D01*
X38944Y90231D02*Y89941D01*
X39089Y89796D01*
X39524D01*
X39669Y89651D01*
Y89361D01*
X39524Y89216D02*X39669Y89361D01*
X39089Y89216D02*X39524D01*
X38944Y89361D02*X39089Y89216D01*
X40017Y89854D02*X40452D01*
X40017Y89216D02*X40597D01*
X40017Y90376D02*Y89216D01*
Y90376D02*X40597D01*
X40945D02*X41525D01*
X41235D02*Y89216D01*
X41873Y89651D02*X42453D01*
X41873Y89941D02*X42453D01*
X42308Y90086D02*Y89506D01*
X42018Y90086D02*Y89506D01*
G54D22*X50110Y28677D02*Y25921D01*
Y64504D02*Y61748D01*
G54D23*X34733Y109787D02*Y108213D01*
G54D22*X32551Y28677D02*Y25921D01*
Y64504D02*Y61748D01*
G54D24*X16661Y97118D02*X20402D01*
X16661Y94559D02*X20402D01*
X16661Y92000D02*X20402D01*
X16661Y86882D02*X20402D01*
X16661Y89441D02*X20402D01*
G54D23*X28733Y126787D02*Y125213D01*
G54D25*X7803Y88063D02*X8000D01*
X7803Y95937D02*X8000D01*
G54D23*X51268Y109787D02*Y108213D01*
G54D26*X62441Y100492D02*Y99508D01*
X67559Y100492D02*Y99508D01*
X62441Y108492D02*Y107508D01*
X67559Y108492D02*Y107508D01*
G54D19*X76107Y104543D02*X76893D01*
X76107Y97457D02*X76893D01*
G54D23*X45268Y126787D02*Y125213D01*
G54D27*X56319Y125900D02*X56919D01*
X65700Y122000D02*X66300D01*
X65700Y129800D02*X66300D01*
G54D18*X123961Y67173D02*X127504D01*
X123961Y69142D02*X127504D01*
X123961Y71110D02*X127504D01*
X123961Y73079D02*X127504D01*
X123961Y75047D02*X127504D01*
X123961Y77016D02*X127504D01*
X123961Y78984D02*X127504D01*
X123961Y80953D02*X127504D01*
X123961Y82921D02*X127504D01*
X123961Y84890D02*X127504D01*
X123961Y86858D02*X127504D01*
X123961Y88827D02*X127504D01*
G54D26*X121508Y47559D02*X122492D01*
X115508D02*X116492D01*
X109508D02*X110492D01*
X115508Y42441D02*X116492D01*
X109508D02*X110492D01*
X121508D02*X122492D01*
G54D28*X67559Y100000D03*
G54D29*X99000Y89000D03*
X91000Y95500D03*
G54D30*X57000Y89500D03*
G54D31*X54500Y95500D03*
G54D29*X126000Y93000D03*
G54D31*X118000Y89500D03*
X121000Y87000D03*
G54D29*X86500D03*
G54D28*X67559Y108000D03*
G54D29*X72000Y130000D03*
G54D30*X51500Y129000D03*
G54D29*X61500Y117500D03*
X29000Y97500D03*
G54D31*X44000Y98000D03*
X47500D03*
X30000Y91000D03*
X32000Y94000D03*
G54D29*X31000Y82500D03*
G54D30*X57000Y79500D03*
G54D31*X59000Y85000D03*
X35500Y78500D03*
G54D29*X22000Y65000D03*
G54D31*X66500Y61000D03*
G54D29*X124500Y62500D03*
G54D31*X101500Y69500D03*
X48000Y74000D03*
X110000Y35000D03*
X116000D03*
X122000D03*
X92500Y64000D03*
X97500Y57000D03*
G54D29*X20000Y25500D03*
G54D32*G54D12*G54D13*G54D33*G54D12*G54D33*G54D34*G54D12*G54D32*G54D12*G54D13*G54D12*G54D34*G54D12*G54D33*G54D12*G54D13*G54D33*G54D12*G54D33*G54D12*G54D34*G54D33*G54D12*G54D34*G54D31*G54D35*G54D36*G54D37*G54D35*G54D36*G54D37*G54D35*M02*
